M48
; DRILL file {KiCad 7.0.6-1.fc38} date Thu 03 Aug 2023 06:28:35 PM CEST
; FORMAT={-:-/ absolute / inch / decimal}
; #@! TF.CreationDate,2023-08-03T18:28:35+02:00
; #@! TF.GenerationSoftware,Kicad,Pcbnew,7.0.6-1.fc38
; #@! TF.FileFunction,Plated,1,4,PTH
FMAT,2
INCH
; #@! TA.AperFunction,Plated,PTH,ViaDrill
T1C0.0157
; #@! TA.AperFunction,Plated,PTH,ComponentDrill
T2C0.0197
; #@! TA.AperFunction,Plated,PTH,ComponentDrill
T3C0.0276
; #@! TA.AperFunction,Plated,PTH,ComponentDrill
T4C0.0394
%
G90
G05
T1
X5.4488Y-4.5787
X5.5709Y-4.8465
X5.6181Y-3.9449
X5.628Y-4.6161
X5.6373Y-4.811
X5.6417Y-4.1187
X5.6811Y-3.7874
X5.7165Y-4.2053
X5.7165Y-4.4567
X5.7165Y-4.7367
X5.721Y-3.6496
X5.8071Y-4.1732
X5.8071Y-4.252
X5.813Y-4.5236
X5.8268Y-3.5236
X5.8465Y-4.3622
X5.8622Y-4.4134
X5.8622Y-4.6299
X5.8661Y-3.9055
X5.8701Y-3.9764
X5.8893Y-4.1698
X5.8898Y-4.252
X5.9016Y-3.7835
X5.9134Y-3.9685
X5.9291Y-4.3701
X5.9291Y-4.4291
X5.937Y-4.2913
X5.937Y-4.5079
X5.9528Y-4.0276
X5.9724Y-3.874
X5.9764Y-3.6417
X6.0118Y-4.0945
X6.0157Y-4.5512
X6.0472Y-4.2638
X6.0945Y-3.8937
X6.1024Y-3.689
X6.1063Y-4.6614
X6.1299Y-4.0197
X6.1457Y-3.9331
X6.1457Y-4.6614
X6.1732Y-4.0197
X6.1772Y-3.689
X6.189Y-3.9291
X6.2126Y-4.0354
X6.2165Y-4.5098
X6.2205Y-4.4488
X6.2323Y-3.8425
X6.235Y-3.6193
X6.2362Y-3.5551
X6.2402Y-3.9252
X6.2874Y-4.311
X6.2874Y-4.3858
X6.2992Y-3.9843
X6.3031Y-3.8425
X6.3031Y-4.4685
X6.3425Y-4.8622
X6.3701Y-4.0866
X6.3701Y-4.1614
X6.3701Y-4.3819
X6.374Y-4.5157
X6.4331Y-3.622
X6.4336Y-3.4252
X6.437Y-4.6969
X6.4488Y-3.8386
X6.4488Y-3.9134
X6.4528Y-4.0394
X6.4528Y-4.1142
X6.4537Y-4.2165
X6.4882Y-4.3839
X6.4921Y-4.2953
X6.5157Y-4.8622
X6.5197Y-4.063
X6.5433Y-3.7559
X6.5906Y-3.9173
X6.6142Y-4.3661
X6.622Y-4.6339
X6.6309Y-4.5
T3
X5.4646Y-3.5217
X5.4646Y-3.5717
X5.4675Y-4.6793
X5.4675Y-4.7293
X5.4685Y-3.3307
X5.4685Y-3.3807
X6.6033Y-3.5177
X6.6033Y-3.5677
X6.6063Y-4.6902
X6.6063Y-4.7402
T4
X5.7409Y-3.2533
X5.7409Y-3.3533
X5.7953Y-4.811
X5.8409Y-3.2533
X5.8409Y-3.3533
X5.8953Y-4.811
X5.9409Y-3.2533
X5.9409Y-3.3533
X6.0394Y-4.811
X6.0906Y-3.252
X6.0906Y-3.352
X6.1394Y-4.811
X6.1906Y-3.252
X6.1906Y-3.352
X6.2394Y-4.811
X6.2906Y-3.252
X6.2906Y-3.352
X6.3906Y-3.252
X6.3906Y-3.352
T2
G00X5.4793Y-3.7618
M15
G01X5.4518Y-3.7618
M16
G05
G00X5.4793Y-4.0217
M15
G01X5.4518Y-4.0217
M16
G05
T0
M30
