%TF.GenerationSoftware,KiCad,Pcbnew,7.0.6-1.fc38*%
%TF.CreationDate,2023-08-03T18:28:49+02:00*%
%TF.ProjectId,quadcopter-flight-controler,71756164-636f-4707-9465-722d666c6967,rev?*%
%TF.SameCoordinates,Original*%
%TF.FileFunction,Paste,Top*%
%TF.FilePolarity,Positive*%
%FSLAX46Y46*%
G04 Gerber Fmt 4.6, Leading zero omitted, Abs format (unit mm)*
G04 Created by KiCad (PCBNEW 7.0.6-1.fc38) date 2023-08-03 18:28:49*
%MOMM*%
%LPD*%
G01*
G04 APERTURE LIST*
G04 Aperture macros list*
%AMRoundRect*
0 Rectangle with rounded corners*
0 $1 Rounding radius*
0 $2 $3 $4 $5 $6 $7 $8 $9 X,Y pos of 4 corners*
0 Add a 4 corners polygon primitive as box body*
4,1,4,$2,$3,$4,$5,$6,$7,$8,$9,$2,$3,0*
0 Add four circle primitives for the rounded corners*
1,1,$1+$1,$2,$3*
1,1,$1+$1,$4,$5*
1,1,$1+$1,$6,$7*
1,1,$1+$1,$8,$9*
0 Add four rect primitives between the rounded corners*
20,1,$1+$1,$2,$3,$4,$5,0*
20,1,$1+$1,$4,$5,$6,$7,0*
20,1,$1+$1,$6,$7,$8,$9,0*
20,1,$1+$1,$8,$9,$2,$3,0*%
G04 Aperture macros list end*
%ADD10R,0.350000X0.500000*%
%ADD11RoundRect,0.250000X0.475000X-0.250000X0.475000X0.250000X-0.475000X0.250000X-0.475000X-0.250000X0*%
%ADD12RoundRect,0.243750X-0.456250X0.243750X-0.456250X-0.243750X0.456250X-0.243750X0.456250X0.243750X0*%
%ADD13R,3.400000X0.980000*%
%ADD14RoundRect,0.250000X-0.250000X-0.475000X0.250000X-0.475000X0.250000X0.475000X-0.250000X0.475000X0*%
%ADD15RoundRect,0.250000X-0.450000X0.262500X-0.450000X-0.262500X0.450000X-0.262500X0.450000X0.262500X0*%
%ADD16RoundRect,0.075000X0.662500X0.075000X-0.662500X0.075000X-0.662500X-0.075000X0.662500X-0.075000X0*%
%ADD17RoundRect,0.075000X0.075000X0.662500X-0.075000X0.662500X-0.075000X-0.662500X0.075000X-0.662500X0*%
%ADD18RoundRect,0.150000X0.587500X0.150000X-0.587500X0.150000X-0.587500X-0.150000X0.587500X-0.150000X0*%
%ADD19R,1.200000X2.000000*%
%ADD20R,1.350000X0.400000*%
%ADD21R,1.400000X1.600000*%
%ADD22R,1.900000X1.900000*%
%ADD23RoundRect,0.250000X0.450000X-0.262500X0.450000X0.262500X-0.450000X0.262500X-0.450000X-0.262500X0*%
%ADD24RoundRect,0.250000X0.250000X0.475000X-0.250000X0.475000X-0.250000X-0.475000X0.250000X-0.475000X0*%
%ADD25RoundRect,0.075000X-0.350000X-0.075000X0.350000X-0.075000X0.350000X0.075000X-0.350000X0.075000X0*%
%ADD26RoundRect,0.075000X0.075000X-0.350000X0.075000X0.350000X-0.075000X0.350000X-0.075000X-0.350000X0*%
%ADD27RoundRect,0.250000X0.262500X0.450000X-0.262500X0.450000X-0.262500X-0.450000X0.262500X-0.450000X0*%
%ADD28RoundRect,0.079500X0.079500X0.100500X-0.079500X0.100500X-0.079500X-0.100500X0.079500X-0.100500X0*%
%ADD29RoundRect,0.250000X-0.262500X-0.450000X0.262500X-0.450000X0.262500X0.450000X-0.262500X0.450000X0*%
%ADD30RoundRect,0.079500X-0.079500X-0.100500X0.079500X-0.100500X0.079500X0.100500X-0.079500X0.100500X0*%
%ADD31RoundRect,0.150000X0.512500X0.150000X-0.512500X0.150000X-0.512500X-0.150000X0.512500X-0.150000X0*%
%ADD32RoundRect,0.150000X-0.150000X0.512500X-0.150000X-0.512500X0.150000X-0.512500X0.150000X0.512500X0*%
G04 APERTURE END LIST*
D10*
%TO.C,U6*%
X163050000Y-113050000D03*
X163700000Y-113050000D03*
X164350000Y-113050000D03*
X165000000Y-113050000D03*
X165000000Y-114650000D03*
X164350000Y-114650000D03*
X163700000Y-114650000D03*
X163050000Y-114650000D03*
%TD*%
D11*
%TO.C,C14*%
X159700000Y-111400000D03*
X159700000Y-109500000D03*
%TD*%
D12*
%TO.C,D6*%
X147700000Y-94262500D03*
X147700000Y-96137500D03*
%TD*%
D11*
%TO.C,C2*%
X151900000Y-112550000D03*
X151900000Y-110650000D03*
%TD*%
D13*
%TO.C,L1*%
X140050000Y-110000000D03*
X140050000Y-107630000D03*
%TD*%
D14*
%TO.C,C13*%
X143300000Y-106815000D03*
X145200000Y-106815000D03*
%TD*%
%TO.C,C1*%
X143300000Y-104615000D03*
X145200000Y-104615000D03*
%TD*%
%TO.C,C15*%
X156000000Y-114550000D03*
X157900000Y-114550000D03*
%TD*%
D15*
%TO.C,R18*%
X149900000Y-94287500D03*
X149900000Y-96112500D03*
%TD*%
%TO.C,R7*%
X149600000Y-104087500D03*
X149600000Y-105912500D03*
%TD*%
D12*
%TO.C,D1*%
X147500000Y-104062500D03*
X147500000Y-105937500D03*
%TD*%
D16*
%TO.C,U2*%
X161762500Y-102650000D03*
X161762500Y-102150000D03*
X161762500Y-101650000D03*
X161762500Y-101150000D03*
X161762500Y-100650000D03*
X161762500Y-100150000D03*
X161762500Y-99650000D03*
X161762500Y-99150000D03*
X161762500Y-98650000D03*
X161762500Y-98150000D03*
X161762500Y-97650000D03*
X161762500Y-97150000D03*
D17*
X160350000Y-95737500D03*
X159850000Y-95737500D03*
X159350000Y-95737500D03*
X158850000Y-95737500D03*
X158350000Y-95737500D03*
X157850000Y-95737500D03*
X157350000Y-95737500D03*
X156850000Y-95737500D03*
X156350000Y-95737500D03*
X155850000Y-95737500D03*
X155350000Y-95737500D03*
X154850000Y-95737500D03*
D16*
X153437500Y-97150000D03*
X153437500Y-97650000D03*
X153437500Y-98150000D03*
X153437500Y-98650000D03*
X153437500Y-99150000D03*
X153437500Y-99650000D03*
X153437500Y-100150000D03*
X153437500Y-100650000D03*
X153437500Y-101150000D03*
X153437500Y-101650000D03*
X153437500Y-102150000D03*
X153437500Y-102650000D03*
D17*
X154850000Y-104062500D03*
X155350000Y-104062500D03*
X155850000Y-104062500D03*
X156350000Y-104062500D03*
X156850000Y-104062500D03*
X157350000Y-104062500D03*
X157850000Y-104062500D03*
X158350000Y-104062500D03*
X158850000Y-104062500D03*
X159350000Y-104062500D03*
X159850000Y-104062500D03*
X160350000Y-104062500D03*
%TD*%
D18*
%TO.C,Q6*%
X149575000Y-91450000D03*
X149575000Y-89550000D03*
X147700000Y-90500000D03*
%TD*%
D19*
%TO.C,Y1*%
X165600000Y-99500000D03*
X165600000Y-103200000D03*
X167800000Y-103200000D03*
X167800000Y-99500000D03*
%TD*%
D20*
%TO.C,J2*%
X141500000Y-97550000D03*
X141500000Y-98200000D03*
X141500000Y-98850000D03*
X141500000Y-99500000D03*
X141500000Y-100150000D03*
D21*
X141275000Y-95650000D03*
X141275000Y-102050000D03*
D22*
X138825000Y-100050000D03*
X138825000Y-97650000D03*
%TD*%
D23*
%TO.C,R3*%
X148900000Y-113912500D03*
X148900000Y-112087500D03*
%TD*%
D24*
%TO.C,C18*%
X164800000Y-111350000D03*
X162900000Y-111350000D03*
%TD*%
D14*
%TO.C,C12*%
X143300000Y-113215000D03*
X145200000Y-113215000D03*
%TD*%
D25*
%TO.C,U5*%
X153800000Y-109350000D03*
X153800000Y-109850000D03*
X153800000Y-110350000D03*
X153800000Y-110850000D03*
X153800000Y-111350000D03*
X153800000Y-111850000D03*
D26*
X154500000Y-112550000D03*
X155000000Y-112550000D03*
X155500000Y-112550000D03*
X156000000Y-112550000D03*
X156500000Y-112550000D03*
X157000000Y-112550000D03*
D25*
X157700000Y-111850000D03*
X157700000Y-111350000D03*
X157700000Y-110850000D03*
X157700000Y-110350000D03*
X157700000Y-109850000D03*
X157700000Y-109350000D03*
D26*
X157000000Y-108650000D03*
X156500000Y-108650000D03*
X156000000Y-108650000D03*
X155500000Y-108650000D03*
X155000000Y-108650000D03*
X154500000Y-108650000D03*
%TD*%
D27*
%TO.C,R1*%
X163925000Y-109100000D03*
X162100000Y-109100000D03*
%TD*%
D23*
%TO.C,R6*%
X149600000Y-109825000D03*
X149600000Y-108000000D03*
%TD*%
D28*
%TO.C,C11*%
X166945000Y-97645000D03*
X166255000Y-97645000D03*
%TD*%
D29*
%TO.C,R9*%
X166600000Y-114300000D03*
X168425000Y-114300000D03*
%TD*%
D14*
%TO.C,C17*%
X162900000Y-116600000D03*
X164800000Y-116600000D03*
%TD*%
D30*
%TO.C,C10*%
X166355000Y-105045000D03*
X167045000Y-105045000D03*
%TD*%
%TO.C,C16*%
X159055000Y-108300000D03*
X159745000Y-108300000D03*
%TD*%
D27*
%TO.C,R2*%
X149100000Y-102100000D03*
X147275000Y-102100000D03*
%TD*%
D23*
%TO.C,R5*%
X147500000Y-109825000D03*
X147500000Y-108000000D03*
%TD*%
D27*
%TO.C,R4*%
X163925000Y-107100000D03*
X162100000Y-107100000D03*
%TD*%
%TO.C,R8*%
X153712500Y-114550000D03*
X151887500Y-114550000D03*
%TD*%
D18*
%TO.C,Q5*%
X153600000Y-119600000D03*
X153600000Y-117700000D03*
X151725000Y-118650000D03*
%TD*%
D31*
%TO.C,U3*%
X146537500Y-100150000D03*
X146537500Y-99200000D03*
X146537500Y-98250000D03*
X144262500Y-98250000D03*
X144262500Y-99200000D03*
X144262500Y-100150000D03*
%TD*%
D32*
%TO.C,U1*%
X145200000Y-108877500D03*
X144250000Y-108877500D03*
X143300000Y-108877500D03*
X143300000Y-111152500D03*
X144250000Y-111152500D03*
X145200000Y-111152500D03*
%TD*%
M02*
