%TF.GenerationSoftware,KiCad,Pcbnew,7.0.6-1.fc38*%
%TF.CreationDate,2023-08-03T18:28:49+02:00*%
%TF.ProjectId,quadcopter-flight-controler,71756164-636f-4707-9465-722d666c6967,rev?*%
%TF.SameCoordinates,Original*%
%TF.FileFunction,Legend,Top*%
%TF.FilePolarity,Positive*%
%FSLAX46Y46*%
G04 Gerber Fmt 4.6, Leading zero omitted, Abs format (unit mm)*
G04 Created by KiCad (PCBNEW 7.0.6-1.fc38) date 2023-08-03 18:28:49*
%MOMM*%
%LPD*%
G01*
G04 APERTURE LIST*
%ADD10C,0.150000*%
%ADD11C,0.200000*%
%ADD12C,0.120000*%
%ADD13C,0.100000*%
%ADD14C,0.127000*%
G04 APERTURE END LIST*
D10*
X161500000Y-88700000D02*
X165100000Y-88700000D01*
X165100000Y-96200000D01*
X161500000Y-96200000D01*
X161500000Y-88700000D01*
X146322200Y-96610839D02*
X146369819Y-96467982D01*
X146369819Y-96467982D02*
X146369819Y-96229887D01*
X146369819Y-96229887D02*
X146322200Y-96134649D01*
X146322200Y-96134649D02*
X146274580Y-96087030D01*
X146274580Y-96087030D02*
X146179342Y-96039411D01*
X146179342Y-96039411D02*
X146084104Y-96039411D01*
X146084104Y-96039411D02*
X145988866Y-96087030D01*
X145988866Y-96087030D02*
X145941247Y-96134649D01*
X145941247Y-96134649D02*
X145893628Y-96229887D01*
X145893628Y-96229887D02*
X145846009Y-96420363D01*
X145846009Y-96420363D02*
X145798390Y-96515601D01*
X145798390Y-96515601D02*
X145750771Y-96563220D01*
X145750771Y-96563220D02*
X145655533Y-96610839D01*
X145655533Y-96610839D02*
X145560295Y-96610839D01*
X145560295Y-96610839D02*
X145465057Y-96563220D01*
X145465057Y-96563220D02*
X145417438Y-96515601D01*
X145417438Y-96515601D02*
X145369819Y-96420363D01*
X145369819Y-96420363D02*
X145369819Y-96182268D01*
X145369819Y-96182268D02*
X145417438Y-96039411D01*
X145369819Y-95753696D02*
X145369819Y-95182268D01*
X146369819Y-95467982D02*
X145369819Y-95467982D01*
X146084104Y-94896553D02*
X146084104Y-94420363D01*
X146369819Y-94991791D02*
X145369819Y-94658458D01*
X145369819Y-94658458D02*
X146369819Y-94325125D01*
X145369819Y-94134648D02*
X145369819Y-93563220D01*
X146369819Y-93848934D02*
X145369819Y-93848934D01*
X146546009Y-120029887D02*
X146593628Y-119887030D01*
X146593628Y-119887030D02*
X146641247Y-119839411D01*
X146641247Y-119839411D02*
X146736485Y-119791792D01*
X146736485Y-119791792D02*
X146879342Y-119791792D01*
X146879342Y-119791792D02*
X146974580Y-119839411D01*
X146974580Y-119839411D02*
X147022200Y-119887030D01*
X147022200Y-119887030D02*
X147069819Y-119982268D01*
X147069819Y-119982268D02*
X147069819Y-120363220D01*
X147069819Y-120363220D02*
X146069819Y-120363220D01*
X146069819Y-120363220D02*
X146069819Y-120029887D01*
X146069819Y-120029887D02*
X146117438Y-119934649D01*
X146117438Y-119934649D02*
X146165057Y-119887030D01*
X146165057Y-119887030D02*
X146260295Y-119839411D01*
X146260295Y-119839411D02*
X146355533Y-119839411D01*
X146355533Y-119839411D02*
X146450771Y-119887030D01*
X146450771Y-119887030D02*
X146498390Y-119934649D01*
X146498390Y-119934649D02*
X146546009Y-120029887D01*
X146546009Y-120029887D02*
X146546009Y-120363220D01*
X146784104Y-119410839D02*
X146784104Y-118934649D01*
X147069819Y-119506077D02*
X146069819Y-119172744D01*
X146069819Y-119172744D02*
X147069819Y-118839411D01*
X146069819Y-118648934D02*
X146069819Y-118077506D01*
X147069819Y-118363220D02*
X146069819Y-118363220D01*
X165936779Y-88169819D02*
X165936779Y-87169819D01*
X165936779Y-87169819D02*
X166270112Y-87884104D01*
X166270112Y-87884104D02*
X166603445Y-87169819D01*
X166603445Y-87169819D02*
X166603445Y-88169819D01*
X166984398Y-87169819D02*
X167603445Y-87169819D01*
X167603445Y-87169819D02*
X167270112Y-87550771D01*
X167270112Y-87550771D02*
X167412969Y-87550771D01*
X167412969Y-87550771D02*
X167508207Y-87598390D01*
X167508207Y-87598390D02*
X167555826Y-87646009D01*
X167555826Y-87646009D02*
X167603445Y-87741247D01*
X167603445Y-87741247D02*
X167603445Y-87979342D01*
X167603445Y-87979342D02*
X167555826Y-88074580D01*
X167555826Y-88074580D02*
X167508207Y-88122200D01*
X167508207Y-88122200D02*
X167412969Y-88169819D01*
X167412969Y-88169819D02*
X167127255Y-88169819D01*
X167127255Y-88169819D02*
X167032017Y-88122200D01*
X167032017Y-88122200D02*
X166984398Y-88074580D01*
X158069819Y-120563220D02*
X158879342Y-120563220D01*
X158879342Y-120563220D02*
X158974580Y-120515601D01*
X158974580Y-120515601D02*
X159022200Y-120467982D01*
X159022200Y-120467982D02*
X159069819Y-120372744D01*
X159069819Y-120372744D02*
X159069819Y-120182268D01*
X159069819Y-120182268D02*
X159022200Y-120087030D01*
X159022200Y-120087030D02*
X158974580Y-120039411D01*
X158974580Y-120039411D02*
X158879342Y-119991792D01*
X158879342Y-119991792D02*
X158069819Y-119991792D01*
X159022200Y-119563220D02*
X159069819Y-119420363D01*
X159069819Y-119420363D02*
X159069819Y-119182268D01*
X159069819Y-119182268D02*
X159022200Y-119087030D01*
X159022200Y-119087030D02*
X158974580Y-119039411D01*
X158974580Y-119039411D02*
X158879342Y-118991792D01*
X158879342Y-118991792D02*
X158784104Y-118991792D01*
X158784104Y-118991792D02*
X158688866Y-119039411D01*
X158688866Y-119039411D02*
X158641247Y-119087030D01*
X158641247Y-119087030D02*
X158593628Y-119182268D01*
X158593628Y-119182268D02*
X158546009Y-119372744D01*
X158546009Y-119372744D02*
X158498390Y-119467982D01*
X158498390Y-119467982D02*
X158450771Y-119515601D01*
X158450771Y-119515601D02*
X158355533Y-119563220D01*
X158355533Y-119563220D02*
X158260295Y-119563220D01*
X158260295Y-119563220D02*
X158165057Y-119515601D01*
X158165057Y-119515601D02*
X158117438Y-119467982D01*
X158117438Y-119467982D02*
X158069819Y-119372744D01*
X158069819Y-119372744D02*
X158069819Y-119134649D01*
X158069819Y-119134649D02*
X158117438Y-118991792D01*
X158546009Y-118229887D02*
X158593628Y-118087030D01*
X158593628Y-118087030D02*
X158641247Y-118039411D01*
X158641247Y-118039411D02*
X158736485Y-117991792D01*
X158736485Y-117991792D02*
X158879342Y-117991792D01*
X158879342Y-117991792D02*
X158974580Y-118039411D01*
X158974580Y-118039411D02*
X159022200Y-118087030D01*
X159022200Y-118087030D02*
X159069819Y-118182268D01*
X159069819Y-118182268D02*
X159069819Y-118563220D01*
X159069819Y-118563220D02*
X158069819Y-118563220D01*
X158069819Y-118563220D02*
X158069819Y-118229887D01*
X158069819Y-118229887D02*
X158117438Y-118134649D01*
X158117438Y-118134649D02*
X158165057Y-118087030D01*
X158165057Y-118087030D02*
X158260295Y-118039411D01*
X158260295Y-118039411D02*
X158355533Y-118039411D01*
X158355533Y-118039411D02*
X158450771Y-118087030D01*
X158450771Y-118087030D02*
X158498390Y-118134649D01*
X158498390Y-118134649D02*
X158546009Y-118229887D01*
X158546009Y-118229887D02*
X158546009Y-118563220D01*
X143336779Y-103169819D02*
X143336779Y-102169819D01*
X143336779Y-102169819D02*
X143717731Y-102169819D01*
X143717731Y-102169819D02*
X143812969Y-102217438D01*
X143812969Y-102217438D02*
X143860588Y-102265057D01*
X143860588Y-102265057D02*
X143908207Y-102360295D01*
X143908207Y-102360295D02*
X143908207Y-102503152D01*
X143908207Y-102503152D02*
X143860588Y-102598390D01*
X143860588Y-102598390D02*
X143812969Y-102646009D01*
X143812969Y-102646009D02*
X143717731Y-102693628D01*
X143717731Y-102693628D02*
X143336779Y-102693628D01*
X144527255Y-102169819D02*
X144717731Y-102169819D01*
X144717731Y-102169819D02*
X144812969Y-102217438D01*
X144812969Y-102217438D02*
X144908207Y-102312676D01*
X144908207Y-102312676D02*
X144955826Y-102503152D01*
X144955826Y-102503152D02*
X144955826Y-102836485D01*
X144955826Y-102836485D02*
X144908207Y-103026961D01*
X144908207Y-103026961D02*
X144812969Y-103122200D01*
X144812969Y-103122200D02*
X144717731Y-103169819D01*
X144717731Y-103169819D02*
X144527255Y-103169819D01*
X144527255Y-103169819D02*
X144432017Y-103122200D01*
X144432017Y-103122200D02*
X144336779Y-103026961D01*
X144336779Y-103026961D02*
X144289160Y-102836485D01*
X144289160Y-102836485D02*
X144289160Y-102503152D01*
X144289160Y-102503152D02*
X144336779Y-102312676D01*
X144336779Y-102312676D02*
X144432017Y-102217438D01*
X144432017Y-102217438D02*
X144527255Y-102169819D01*
X145289160Y-102169819D02*
X145527255Y-103169819D01*
X145527255Y-103169819D02*
X145717731Y-102455533D01*
X145717731Y-102455533D02*
X145908207Y-103169819D01*
X145908207Y-103169819D02*
X146146303Y-102169819D01*
X139736779Y-117669819D02*
X139736779Y-116669819D01*
X139736779Y-116669819D02*
X140070112Y-117384104D01*
X140070112Y-117384104D02*
X140403445Y-116669819D01*
X140403445Y-116669819D02*
X140403445Y-117669819D01*
X141403445Y-117669819D02*
X140832017Y-117669819D01*
X141117731Y-117669819D02*
X141117731Y-116669819D01*
X141117731Y-116669819D02*
X141022493Y-116812676D01*
X141022493Y-116812676D02*
X140927255Y-116907914D01*
X140927255Y-116907914D02*
X140832017Y-116955533D01*
D11*
G36*
X161965212Y-95193509D02*
G01*
X161965212Y-95909141D01*
X162950000Y-95909141D01*
X162950000Y-95726936D01*
X162572644Y-95726936D01*
X162572644Y-95253837D01*
X162418527Y-95253837D01*
X162418527Y-95726936D01*
X162117864Y-95726936D01*
X162117864Y-95193509D01*
X161965212Y-95193509D01*
G37*
G36*
X162965631Y-94575086D02*
G01*
X162965463Y-94560067D01*
X162964961Y-94545190D01*
X162964125Y-94530461D01*
X162962957Y-94515883D01*
X162961460Y-94501460D01*
X162959634Y-94487197D01*
X162957481Y-94473098D01*
X162955003Y-94459166D01*
X162952201Y-94445407D01*
X162949076Y-94431824D01*
X162945631Y-94418422D01*
X162941867Y-94405204D01*
X162937786Y-94392174D01*
X162933388Y-94379338D01*
X162928677Y-94366699D01*
X162923652Y-94354260D01*
X162918316Y-94342028D01*
X162912670Y-94330004D01*
X162906716Y-94318195D01*
X162900456Y-94306603D01*
X162893890Y-94295233D01*
X162887022Y-94284090D01*
X162879851Y-94273176D01*
X162872380Y-94262498D01*
X162864610Y-94252057D01*
X162856543Y-94241860D01*
X162848181Y-94231910D01*
X162839524Y-94222210D01*
X162830575Y-94212766D01*
X162821335Y-94203582D01*
X162811805Y-94194661D01*
X162801988Y-94186008D01*
X162688660Y-94303488D01*
X162695959Y-94310246D01*
X162703020Y-94317100D01*
X162716428Y-94331098D01*
X162728887Y-94345477D01*
X162740401Y-94360233D01*
X162750973Y-94375363D01*
X162760607Y-94390862D01*
X162769307Y-94406727D01*
X162777076Y-94422954D01*
X162783917Y-94439538D01*
X162789834Y-94456476D01*
X162794832Y-94473765D01*
X162798912Y-94491399D01*
X162802080Y-94509375D01*
X162804338Y-94527689D01*
X162805690Y-94546338D01*
X162806140Y-94565317D01*
X162805720Y-94584178D01*
X162804470Y-94602695D01*
X162802404Y-94620851D01*
X162799539Y-94638629D01*
X162795891Y-94656013D01*
X162791473Y-94672985D01*
X162786303Y-94689530D01*
X162780396Y-94705630D01*
X162773766Y-94721269D01*
X162766430Y-94736431D01*
X162758403Y-94751097D01*
X162749700Y-94765253D01*
X162740338Y-94778880D01*
X162730330Y-94791963D01*
X162719694Y-94804485D01*
X162708443Y-94816429D01*
X162696595Y-94827778D01*
X162684164Y-94838516D01*
X162671165Y-94848626D01*
X162657615Y-94858091D01*
X162643529Y-94866895D01*
X162628921Y-94875021D01*
X162613808Y-94882452D01*
X162598206Y-94889171D01*
X162582129Y-94895163D01*
X162565593Y-94900410D01*
X162548613Y-94904895D01*
X162531206Y-94908602D01*
X162513386Y-94911515D01*
X162495169Y-94913616D01*
X162476571Y-94914889D01*
X162457606Y-94915317D01*
X162438663Y-94914889D01*
X162420086Y-94913616D01*
X162401888Y-94911515D01*
X162384086Y-94908602D01*
X162366696Y-94904895D01*
X162349732Y-94900410D01*
X162333211Y-94895163D01*
X162317147Y-94889171D01*
X162301557Y-94882452D01*
X162286456Y-94875021D01*
X162271859Y-94866895D01*
X162257781Y-94858091D01*
X162244240Y-94848626D01*
X162231249Y-94838516D01*
X162218825Y-94827778D01*
X162206982Y-94816429D01*
X162195737Y-94804485D01*
X162185105Y-94791963D01*
X162175102Y-94778880D01*
X162165743Y-94765253D01*
X162157043Y-94751097D01*
X162149018Y-94736431D01*
X162141684Y-94721269D01*
X162135057Y-94705630D01*
X162129150Y-94689530D01*
X162123981Y-94672985D01*
X162119565Y-94656013D01*
X162115916Y-94638629D01*
X162113052Y-94620851D01*
X162110987Y-94602695D01*
X162109736Y-94584178D01*
X162109316Y-94565317D01*
X162109765Y-94546338D01*
X162111115Y-94527689D01*
X162113366Y-94509375D01*
X162116521Y-94491399D01*
X162120580Y-94473765D01*
X162125544Y-94456476D01*
X162131416Y-94439538D01*
X162138197Y-94422954D01*
X162145888Y-94406727D01*
X162154491Y-94390862D01*
X162164007Y-94375363D01*
X162174437Y-94360233D01*
X162185783Y-94345477D01*
X162198046Y-94331098D01*
X162211229Y-94317100D01*
X162225331Y-94303488D01*
X162113468Y-94186008D01*
X162103650Y-94194661D01*
X162094118Y-94203581D01*
X162084875Y-94212765D01*
X162075922Y-94222208D01*
X162067259Y-94231905D01*
X162058890Y-94241852D01*
X162050816Y-94252045D01*
X162043038Y-94262478D01*
X162035558Y-94273149D01*
X162028378Y-94284052D01*
X162021499Y-94295184D01*
X162014923Y-94306539D01*
X162008652Y-94318113D01*
X162002687Y-94329902D01*
X161997030Y-94341902D01*
X161991682Y-94354108D01*
X161986646Y-94366515D01*
X161981923Y-94379121D01*
X161977514Y-94391919D01*
X161973422Y-94404905D01*
X161969647Y-94418076D01*
X161966192Y-94431427D01*
X161963058Y-94444954D01*
X161960247Y-94458651D01*
X161957761Y-94472515D01*
X161955601Y-94486542D01*
X161953768Y-94500727D01*
X161952265Y-94515065D01*
X161951093Y-94529552D01*
X161950254Y-94544184D01*
X161949749Y-94558957D01*
X161949581Y-94573865D01*
X161950199Y-94601845D01*
X161952037Y-94629348D01*
X161955071Y-94656346D01*
X161959278Y-94682812D01*
X161964635Y-94708720D01*
X161971118Y-94734042D01*
X161978703Y-94758752D01*
X161987366Y-94782823D01*
X161997084Y-94806227D01*
X162007834Y-94828939D01*
X162019592Y-94850930D01*
X162032335Y-94872174D01*
X162046038Y-94892645D01*
X162060678Y-94912315D01*
X162076232Y-94931157D01*
X162092677Y-94949144D01*
X162109987Y-94966250D01*
X162128141Y-94982448D01*
X162147114Y-94997710D01*
X162166883Y-95012009D01*
X162187424Y-95025320D01*
X162208714Y-95037614D01*
X162230729Y-95048865D01*
X162253446Y-95059046D01*
X162276840Y-95068130D01*
X162300889Y-95076090D01*
X162325569Y-95082900D01*
X162350856Y-95088532D01*
X162376727Y-95092959D01*
X162403158Y-95096154D01*
X162430125Y-95098091D01*
X162457606Y-95098743D01*
X162485108Y-95098091D01*
X162512094Y-95096155D01*
X162538541Y-95092960D01*
X162564426Y-95088534D01*
X162589724Y-95082905D01*
X162614413Y-95076098D01*
X162638470Y-95068143D01*
X162661869Y-95059065D01*
X162684589Y-95048892D01*
X162706606Y-95037651D01*
X162727896Y-95025369D01*
X162748436Y-95012074D01*
X162768203Y-94997791D01*
X162787172Y-94982550D01*
X162805321Y-94966376D01*
X162822627Y-94949297D01*
X162839065Y-94931340D01*
X162854612Y-94912532D01*
X162869246Y-94892901D01*
X162882941Y-94872473D01*
X162895676Y-94851275D01*
X162907427Y-94829335D01*
X162918169Y-94806681D01*
X162927880Y-94783338D01*
X162936537Y-94759334D01*
X162944115Y-94734697D01*
X162950592Y-94709453D01*
X162955943Y-94683630D01*
X162960147Y-94657255D01*
X162963178Y-94630354D01*
X162965014Y-94602956D01*
X162965631Y-94575086D01*
G37*
G36*
X162637369Y-93682379D02*
G01*
X162491800Y-93682379D01*
X162491800Y-94067306D01*
X162637369Y-94067306D01*
X162637369Y-93682379D01*
G37*
G36*
X162965631Y-93191206D02*
G01*
X162965241Y-93166410D01*
X162964084Y-93142439D01*
X162962181Y-93119292D01*
X162959552Y-93096966D01*
X162956217Y-93075459D01*
X162952197Y-93054767D01*
X162947513Y-93034889D01*
X162942184Y-93015821D01*
X162936231Y-92997562D01*
X162929674Y-92980108D01*
X162922535Y-92963457D01*
X162914832Y-92947607D01*
X162906588Y-92932555D01*
X162897821Y-92918299D01*
X162888552Y-92904835D01*
X162878803Y-92892162D01*
X162868592Y-92880276D01*
X162857941Y-92869176D01*
X162846871Y-92858859D01*
X162835400Y-92849321D01*
X162823550Y-92840562D01*
X162811342Y-92832577D01*
X162798795Y-92825365D01*
X162785929Y-92818923D01*
X162772767Y-92813249D01*
X162759326Y-92808339D01*
X162745629Y-92804191D01*
X162731696Y-92800804D01*
X162717546Y-92798173D01*
X162703201Y-92796298D01*
X162688681Y-92795174D01*
X162674005Y-92794800D01*
X162641486Y-92796467D01*
X162611739Y-92801326D01*
X162584609Y-92809164D01*
X162559941Y-92819767D01*
X162537578Y-92832925D01*
X162517366Y-92848423D01*
X162499149Y-92866049D01*
X162482771Y-92885590D01*
X162468076Y-92906833D01*
X162454910Y-92929566D01*
X162443116Y-92953576D01*
X162432540Y-92978649D01*
X162423024Y-93004574D01*
X162414415Y-93031137D01*
X162406557Y-93058126D01*
X162399293Y-93085327D01*
X162392469Y-93112529D01*
X162385928Y-93139517D01*
X162379516Y-93166080D01*
X162373076Y-93192005D01*
X162366454Y-93217079D01*
X162359493Y-93241088D01*
X162352038Y-93263821D01*
X162343934Y-93285064D01*
X162335025Y-93304605D01*
X162325155Y-93322231D01*
X162314169Y-93337729D01*
X162301912Y-93350887D01*
X162288227Y-93361491D01*
X162272960Y-93369329D01*
X162255954Y-93374187D01*
X162237055Y-93375854D01*
X162223009Y-93375126D01*
X162209400Y-93372914D01*
X162196293Y-93369177D01*
X162183752Y-93363875D01*
X162171843Y-93356965D01*
X162160629Y-93348407D01*
X162150176Y-93338159D01*
X162140548Y-93326181D01*
X162131811Y-93312431D01*
X162124028Y-93296869D01*
X162117265Y-93279452D01*
X162114286Y-93270036D01*
X162111586Y-93260140D01*
X162109174Y-93249761D01*
X162107057Y-93238892D01*
X162105243Y-93227529D01*
X162103741Y-93215667D01*
X162102559Y-93203299D01*
X162101705Y-93190422D01*
X162101186Y-93177030D01*
X162101011Y-93163119D01*
X162101312Y-93146966D01*
X162102217Y-93130584D01*
X162103729Y-93114001D01*
X162105850Y-93097245D01*
X162108584Y-93080345D01*
X162111934Y-93063329D01*
X162115901Y-93046224D01*
X162120490Y-93029060D01*
X162125702Y-93011864D01*
X162131542Y-92994665D01*
X162138011Y-92977491D01*
X162145112Y-92960370D01*
X162152850Y-92943331D01*
X162161225Y-92926402D01*
X162170241Y-92909611D01*
X162179902Y-92892986D01*
X162036531Y-92835589D01*
X162026338Y-92852007D01*
X162021462Y-92860531D01*
X162016737Y-92869254D01*
X162012161Y-92878168D01*
X162007737Y-92887266D01*
X162003466Y-92896538D01*
X161999349Y-92905977D01*
X161995387Y-92915574D01*
X161991580Y-92925323D01*
X161987931Y-92935214D01*
X161984440Y-92945241D01*
X161981109Y-92955393D01*
X161977938Y-92965665D01*
X161974928Y-92976047D01*
X161972082Y-92986531D01*
X161969399Y-92997110D01*
X161966881Y-93007775D01*
X161964529Y-93018519D01*
X161962345Y-93029333D01*
X161960329Y-93040209D01*
X161958482Y-93051139D01*
X161956806Y-93062116D01*
X161955301Y-93073130D01*
X161953970Y-93084175D01*
X161952812Y-93095242D01*
X161951829Y-93106322D01*
X161951023Y-93117409D01*
X161950394Y-93128493D01*
X161949943Y-93139567D01*
X161949671Y-93150623D01*
X161949581Y-93161653D01*
X161949972Y-93186445D01*
X161951132Y-93210404D01*
X161953041Y-93233531D01*
X161955679Y-93255830D01*
X161959028Y-93277305D01*
X161963066Y-93297957D01*
X161967775Y-93317791D01*
X161973135Y-93336810D01*
X161979126Y-93355015D01*
X161985728Y-93372412D01*
X161992922Y-93389002D01*
X162000689Y-93404789D01*
X162009007Y-93419775D01*
X162017859Y-93433965D01*
X162027223Y-93447361D01*
X162037081Y-93459965D01*
X162047412Y-93471782D01*
X162058198Y-93482814D01*
X162069418Y-93493065D01*
X162081052Y-93502536D01*
X162093082Y-93511233D01*
X162105486Y-93519157D01*
X162118247Y-93526311D01*
X162131343Y-93532700D01*
X162144756Y-93538325D01*
X162158465Y-93543191D01*
X162172451Y-93547299D01*
X162186695Y-93550653D01*
X162201176Y-93553257D01*
X162215875Y-93555113D01*
X162230772Y-93556224D01*
X162245847Y-93556594D01*
X162278851Y-93554923D01*
X162309043Y-93550052D01*
X162336581Y-93542194D01*
X162361622Y-93531564D01*
X162384324Y-93518373D01*
X162404842Y-93502836D01*
X162423335Y-93485165D01*
X162439959Y-93465575D01*
X162454872Y-93444278D01*
X162468230Y-93421488D01*
X162480191Y-93397418D01*
X162490911Y-93372281D01*
X162500548Y-93346291D01*
X162509258Y-93319661D01*
X162517199Y-93292604D01*
X162524528Y-93265334D01*
X162531403Y-93238064D01*
X162537979Y-93211007D01*
X162544414Y-93184377D01*
X162550865Y-93158387D01*
X162557489Y-93133250D01*
X162564444Y-93109180D01*
X162571885Y-93086390D01*
X162579972Y-93065093D01*
X162588859Y-93045503D01*
X162598705Y-93027832D01*
X162609667Y-93012295D01*
X162621901Y-92999105D01*
X162635565Y-92988474D01*
X162650816Y-92980617D01*
X162667810Y-92975746D01*
X162686706Y-92974075D01*
X162700175Y-92974836D01*
X162713162Y-92977143D01*
X162725612Y-92981031D01*
X162737474Y-92986535D01*
X162748693Y-92993688D01*
X162759216Y-93002526D01*
X162768990Y-93013084D01*
X162777961Y-93025396D01*
X162786076Y-93039497D01*
X162793283Y-93055421D01*
X162799527Y-93073204D01*
X162802271Y-93082803D01*
X162804755Y-93092880D01*
X162806972Y-93103438D01*
X162808914Y-93114483D01*
X162810576Y-93126018D01*
X162811951Y-93138049D01*
X162813032Y-93150578D01*
X162813812Y-93163612D01*
X162814286Y-93177153D01*
X162814445Y-93191206D01*
X162814314Y-93202506D01*
X162813925Y-93213820D01*
X162813282Y-93225140D01*
X162812390Y-93236457D01*
X162811255Y-93247762D01*
X162809880Y-93259044D01*
X162808272Y-93270296D01*
X162806434Y-93281508D01*
X162804372Y-93292670D01*
X162802091Y-93303773D01*
X162799595Y-93314809D01*
X162796889Y-93325768D01*
X162793979Y-93336641D01*
X162790868Y-93347418D01*
X162787563Y-93358090D01*
X162784067Y-93368649D01*
X162780386Y-93379084D01*
X162776524Y-93389388D01*
X162772487Y-93399549D01*
X162768279Y-93409561D01*
X162763906Y-93419412D01*
X162759371Y-93429094D01*
X162754681Y-93438597D01*
X162749839Y-93447913D01*
X162744850Y-93457033D01*
X162739721Y-93465946D01*
X162734455Y-93474644D01*
X162729057Y-93483118D01*
X162723532Y-93491358D01*
X162717885Y-93499355D01*
X162706245Y-93514584D01*
X162848150Y-93577599D01*
X162854655Y-93569768D01*
X162861021Y-93561533D01*
X162867246Y-93552908D01*
X162873324Y-93543906D01*
X162879251Y-93534538D01*
X162885022Y-93524820D01*
X162890633Y-93514762D01*
X162896079Y-93504379D01*
X162901356Y-93493683D01*
X162906459Y-93482688D01*
X162911384Y-93471406D01*
X162916127Y-93459850D01*
X162920681Y-93448033D01*
X162925045Y-93435968D01*
X162929211Y-93423669D01*
X162933177Y-93411147D01*
X162936938Y-93398417D01*
X162940489Y-93385490D01*
X162943825Y-93372381D01*
X162946942Y-93359101D01*
X162949836Y-93345665D01*
X162952502Y-93332084D01*
X162954936Y-93318373D01*
X162957132Y-93304543D01*
X162959087Y-93290608D01*
X162960796Y-93276580D01*
X162962255Y-93262474D01*
X162963458Y-93248301D01*
X162964402Y-93234075D01*
X162965082Y-93219808D01*
X162965493Y-93205515D01*
X162965631Y-93191206D01*
G37*
G36*
X162950000Y-92247452D02*
G01*
X162119330Y-92247452D01*
X162119330Y-91922853D01*
X161965212Y-91922853D01*
X161965212Y-92754500D01*
X162119330Y-92754500D01*
X162119330Y-92429657D01*
X162950000Y-92429657D01*
X162950000Y-92247452D01*
G37*
G36*
X161965212Y-90715072D02*
G01*
X161965212Y-90865038D01*
X162618073Y-91247278D01*
X161965212Y-91636356D01*
X161965212Y-91786322D01*
X162950000Y-91786322D01*
X162950000Y-91612665D01*
X162305931Y-91612665D01*
X162837648Y-91290509D01*
X162837648Y-91209420D01*
X162297383Y-90887264D01*
X162950000Y-90886042D01*
X162950000Y-90713851D01*
X161965212Y-90715072D01*
G37*
G36*
X162087090Y-89864375D02*
G01*
X161965212Y-89864375D01*
X161965212Y-90532379D01*
X162117864Y-90532379D01*
X162117864Y-90087124D01*
X162385066Y-90309629D01*
X162510851Y-90309629D01*
X162510851Y-90220236D01*
X162511020Y-90206560D01*
X162511523Y-90193373D01*
X162512355Y-90180670D01*
X162513512Y-90168449D01*
X162514988Y-90156706D01*
X162516779Y-90145438D01*
X162518879Y-90134640D01*
X162521285Y-90124310D01*
X162523990Y-90114443D01*
X162526990Y-90105037D01*
X162533855Y-90087590D01*
X162541840Y-90071940D01*
X162550907Y-90058059D01*
X162561015Y-90045919D01*
X162572126Y-90035490D01*
X162584200Y-90026744D01*
X162597198Y-90019652D01*
X162611081Y-90014186D01*
X162625808Y-90010317D01*
X162641341Y-90008017D01*
X162657641Y-90007257D01*
X162674499Y-90008153D01*
X162690522Y-90010817D01*
X162705673Y-90015217D01*
X162719919Y-90021316D01*
X162733225Y-90029081D01*
X162745555Y-90038478D01*
X162756876Y-90049472D01*
X162767153Y-90062028D01*
X162776351Y-90076113D01*
X162784435Y-90091692D01*
X162791370Y-90108731D01*
X162797123Y-90127195D01*
X162799544Y-90136951D01*
X162801657Y-90147050D01*
X162803457Y-90157489D01*
X162804939Y-90168262D01*
X162806099Y-90179366D01*
X162806933Y-90190797D01*
X162807437Y-90202549D01*
X162807606Y-90214619D01*
X162807495Y-90224956D01*
X162807163Y-90235265D01*
X162806615Y-90245538D01*
X162805852Y-90255771D01*
X162804879Y-90265958D01*
X162803697Y-90276091D01*
X162802310Y-90286166D01*
X162800721Y-90296177D01*
X162798934Y-90306117D01*
X162796950Y-90315981D01*
X162794774Y-90325762D01*
X162792408Y-90335455D01*
X162789855Y-90345053D01*
X162787118Y-90354552D01*
X162784201Y-90363944D01*
X162781106Y-90373224D01*
X162774395Y-90391424D01*
X162767010Y-90409104D01*
X162758976Y-90426217D01*
X162750316Y-90442715D01*
X162741055Y-90458550D01*
X162731217Y-90473675D01*
X162720827Y-90488042D01*
X162709909Y-90501604D01*
X162852302Y-90580006D01*
X162858924Y-90571328D01*
X162865368Y-90562381D01*
X162871634Y-90553173D01*
X162877718Y-90543714D01*
X162883619Y-90534011D01*
X162889335Y-90524074D01*
X162894863Y-90513911D01*
X162900201Y-90503531D01*
X162905346Y-90492943D01*
X162910298Y-90482154D01*
X162915053Y-90471174D01*
X162919609Y-90460012D01*
X162923964Y-90448675D01*
X162928116Y-90437173D01*
X162932063Y-90425514D01*
X162935803Y-90413707D01*
X162939333Y-90401761D01*
X162942651Y-90389683D01*
X162945755Y-90377484D01*
X162948642Y-90365170D01*
X162951312Y-90352752D01*
X162953760Y-90340237D01*
X162955986Y-90327635D01*
X162957987Y-90314953D01*
X162959761Y-90302201D01*
X162961305Y-90289387D01*
X162962618Y-90276520D01*
X162963697Y-90263608D01*
X162964540Y-90250660D01*
X162965145Y-90237685D01*
X162965509Y-90224692D01*
X162965631Y-90211688D01*
X162965217Y-90187410D01*
X162963988Y-90163943D01*
X162961968Y-90141283D01*
X162959177Y-90119428D01*
X162955637Y-90098376D01*
X162951370Y-90078123D01*
X162946397Y-90058668D01*
X162940741Y-90040008D01*
X162934423Y-90022140D01*
X162927465Y-90005061D01*
X162919889Y-89988770D01*
X162911715Y-89973262D01*
X162902967Y-89958536D01*
X162893666Y-89944590D01*
X162883833Y-89931420D01*
X162873490Y-89919024D01*
X162862660Y-89907399D01*
X162851363Y-89896543D01*
X162839622Y-89886454D01*
X162827457Y-89877128D01*
X162814892Y-89868563D01*
X162801947Y-89860756D01*
X162788645Y-89853705D01*
X162775007Y-89847407D01*
X162761055Y-89841860D01*
X162746810Y-89837061D01*
X162732295Y-89833008D01*
X162717531Y-89829697D01*
X162702540Y-89827126D01*
X162687343Y-89825294D01*
X162671962Y-89824196D01*
X162656420Y-89823830D01*
X162642607Y-89824105D01*
X162629021Y-89824929D01*
X162615668Y-89826301D01*
X162602560Y-89828221D01*
X162589705Y-89830689D01*
X162577113Y-89833704D01*
X162564793Y-89837266D01*
X162552754Y-89841374D01*
X162541005Y-89846027D01*
X162529556Y-89851226D01*
X162518417Y-89856969D01*
X162507596Y-89863256D01*
X162497102Y-89870087D01*
X162486946Y-89877461D01*
X162477135Y-89885378D01*
X162467681Y-89893836D01*
X162458591Y-89902837D01*
X162449876Y-89912379D01*
X162441544Y-89922461D01*
X162433605Y-89933084D01*
X162426068Y-89944246D01*
X162418943Y-89955948D01*
X162412238Y-89968188D01*
X162405964Y-89980966D01*
X162400129Y-89994282D01*
X162394742Y-90008136D01*
X162389813Y-90022526D01*
X162385352Y-90037453D01*
X162381367Y-90052915D01*
X162377868Y-90068912D01*
X162374864Y-90085445D01*
X162372365Y-90102511D01*
X162087090Y-89864375D01*
G37*
G36*
X162544556Y-89203209D02*
G01*
X162532609Y-89190795D01*
X162520894Y-89179006D01*
X162509402Y-89167826D01*
X162498125Y-89157241D01*
X162487053Y-89147235D01*
X162476177Y-89137793D01*
X162465488Y-89128900D01*
X162454976Y-89120541D01*
X162444634Y-89112700D01*
X162434450Y-89105364D01*
X162424417Y-89098515D01*
X162414524Y-89092141D01*
X162404764Y-89086224D01*
X162395126Y-89080751D01*
X162385601Y-89075706D01*
X162376181Y-89071074D01*
X162366857Y-89066840D01*
X162357618Y-89062988D01*
X162348456Y-89059504D01*
X162330326Y-89053578D01*
X162312393Y-89048942D01*
X162294584Y-89045474D01*
X162276825Y-89043053D01*
X162259044Y-89041558D01*
X162241167Y-89040868D01*
X162232170Y-89040788D01*
X162215994Y-89041187D01*
X162200217Y-89042379D01*
X162184846Y-89044350D01*
X162169888Y-89047091D01*
X162155351Y-89050590D01*
X162141243Y-89054837D01*
X162127570Y-89059818D01*
X162114342Y-89065525D01*
X162101564Y-89071945D01*
X162089245Y-89079067D01*
X162077392Y-89086880D01*
X162066014Y-89095373D01*
X162055116Y-89104535D01*
X162044708Y-89114354D01*
X162034796Y-89124820D01*
X162025388Y-89135920D01*
X162016491Y-89147645D01*
X162008114Y-89159982D01*
X162000264Y-89172921D01*
X161992948Y-89186451D01*
X161986173Y-89200560D01*
X161979949Y-89215236D01*
X161974281Y-89230470D01*
X161969177Y-89246249D01*
X161964646Y-89262563D01*
X161960695Y-89279400D01*
X161957330Y-89296750D01*
X161954561Y-89314600D01*
X161952393Y-89332940D01*
X161950836Y-89351759D01*
X161949896Y-89371045D01*
X161949581Y-89390788D01*
X161949757Y-89405803D01*
X161950283Y-89420664D01*
X161951156Y-89435365D01*
X161952372Y-89449899D01*
X161953929Y-89464260D01*
X161955821Y-89478442D01*
X161958047Y-89492438D01*
X161960602Y-89506242D01*
X161963484Y-89519847D01*
X161966689Y-89533248D01*
X161970213Y-89546437D01*
X161974053Y-89559408D01*
X161978206Y-89572156D01*
X161982668Y-89584672D01*
X161987436Y-89596952D01*
X161992506Y-89608988D01*
X161997876Y-89620775D01*
X162003542Y-89632305D01*
X162009499Y-89643573D01*
X162015746Y-89654572D01*
X162022278Y-89665296D01*
X162029092Y-89675738D01*
X162036185Y-89685892D01*
X162043553Y-89695752D01*
X162051193Y-89705310D01*
X162059102Y-89714562D01*
X162067276Y-89723499D01*
X162075711Y-89732117D01*
X162084405Y-89740408D01*
X162093354Y-89748366D01*
X162102554Y-89755985D01*
X162112002Y-89763258D01*
X162210921Y-89635763D01*
X162198131Y-89625215D01*
X162186226Y-89614097D01*
X162175197Y-89602422D01*
X162165037Y-89590204D01*
X162155737Y-89577457D01*
X162147289Y-89564193D01*
X162139685Y-89550428D01*
X162132916Y-89536173D01*
X162126974Y-89521444D01*
X162121851Y-89506253D01*
X162117538Y-89490614D01*
X162114029Y-89474540D01*
X162111313Y-89458046D01*
X162109384Y-89441145D01*
X162108232Y-89423850D01*
X162107850Y-89406175D01*
X162108003Y-89395059D01*
X162108459Y-89384288D01*
X162109217Y-89373863D01*
X162110273Y-89363785D01*
X162111624Y-89354054D01*
X162115205Y-89335633D01*
X162119938Y-89318606D01*
X162125803Y-89302976D01*
X162132779Y-89288747D01*
X162140845Y-89275924D01*
X162149980Y-89264509D01*
X162160164Y-89254508D01*
X162171376Y-89245924D01*
X162183595Y-89238760D01*
X162196801Y-89233022D01*
X162210972Y-89228712D01*
X162226088Y-89225835D01*
X162242128Y-89224394D01*
X162250488Y-89224214D01*
X162260877Y-89224424D01*
X162271375Y-89225114D01*
X162282027Y-89226375D01*
X162292879Y-89228298D01*
X162303978Y-89230973D01*
X162315369Y-89234492D01*
X162327097Y-89238946D01*
X162339209Y-89244425D01*
X162351750Y-89251021D01*
X162364767Y-89258823D01*
X162378304Y-89267924D01*
X162392408Y-89278413D01*
X162407125Y-89290382D01*
X162414727Y-89296950D01*
X162422500Y-89303922D01*
X162430448Y-89311310D01*
X162438579Y-89319124D01*
X162446897Y-89327376D01*
X162455408Y-89336077D01*
X162828367Y-89725400D01*
X162950000Y-89725400D01*
X162950000Y-89002930D01*
X162796127Y-89002930D01*
X162796127Y-89465038D01*
X162544556Y-89203209D01*
G37*
G36*
X164283706Y-93904864D02*
G01*
X164304754Y-93906256D01*
X164325301Y-93908554D01*
X164345335Y-93911738D01*
X164364842Y-93915790D01*
X164383810Y-93920690D01*
X164402226Y-93926420D01*
X164420077Y-93932960D01*
X164437350Y-93940292D01*
X164454032Y-93948397D01*
X164470111Y-93957256D01*
X164485573Y-93966850D01*
X164500407Y-93977160D01*
X164514598Y-93988167D01*
X164528135Y-93999853D01*
X164541004Y-94012198D01*
X164553192Y-94025183D01*
X164564687Y-94038790D01*
X164575476Y-94052999D01*
X164585546Y-94067792D01*
X164594884Y-94083150D01*
X164603477Y-94099053D01*
X164611313Y-94115484D01*
X164618379Y-94132423D01*
X164624661Y-94149850D01*
X164630148Y-94167748D01*
X164634825Y-94186097D01*
X164638681Y-94204878D01*
X164641702Y-94224073D01*
X164643876Y-94243662D01*
X164645190Y-94263627D01*
X164645631Y-94283948D01*
X164645221Y-94302910D01*
X164643991Y-94321498D01*
X164641938Y-94339692D01*
X164639059Y-94357473D01*
X164635354Y-94374822D01*
X164630819Y-94391720D01*
X164625453Y-94408146D01*
X164619253Y-94424083D01*
X164612217Y-94439510D01*
X164604344Y-94454408D01*
X164595630Y-94468758D01*
X164586074Y-94482541D01*
X164575674Y-94495737D01*
X164564427Y-94508327D01*
X164552332Y-94520291D01*
X164539385Y-94531611D01*
X164630000Y-94531611D01*
X164630000Y-94698184D01*
X163598318Y-94698184D01*
X163598318Y-94523306D01*
X163979337Y-94523306D01*
X163967108Y-94511720D01*
X163955700Y-94499598D01*
X163945108Y-94486957D01*
X163935327Y-94473817D01*
X163926353Y-94460196D01*
X163918182Y-94446112D01*
X163910810Y-94431585D01*
X163904232Y-94416633D01*
X163898444Y-94401275D01*
X163893441Y-94385529D01*
X163889220Y-94369413D01*
X163885776Y-94352947D01*
X163883105Y-94336149D01*
X163881202Y-94319037D01*
X163880185Y-94303488D01*
X164028185Y-94303488D01*
X164028451Y-94315215D01*
X164029243Y-94326756D01*
X164030555Y-94338099D01*
X164032379Y-94349233D01*
X164034708Y-94360144D01*
X164037534Y-94370821D01*
X164040852Y-94381252D01*
X164044652Y-94391423D01*
X164048929Y-94401323D01*
X164053675Y-94410940D01*
X164058883Y-94420261D01*
X164064545Y-94429274D01*
X164070655Y-94437967D01*
X164077205Y-94446327D01*
X164084188Y-94454343D01*
X164091597Y-94462002D01*
X164099424Y-94469291D01*
X164107663Y-94476199D01*
X164116306Y-94482713D01*
X164125346Y-94488821D01*
X164134775Y-94494512D01*
X164144588Y-94499771D01*
X164154775Y-94504588D01*
X164165331Y-94508950D01*
X164176248Y-94512844D01*
X164187519Y-94516259D01*
X164199136Y-94519182D01*
X164211093Y-94521602D01*
X164223382Y-94523504D01*
X164235996Y-94524879D01*
X164248927Y-94525713D01*
X164262170Y-94525993D01*
X164275390Y-94525713D01*
X164288301Y-94524879D01*
X164300895Y-94523504D01*
X164313166Y-94521602D01*
X164325106Y-94519182D01*
X164336707Y-94516259D01*
X164347964Y-94512844D01*
X164358867Y-94508950D01*
X164369411Y-94504588D01*
X164379587Y-94499771D01*
X164389389Y-94494512D01*
X164398809Y-94488821D01*
X164407841Y-94482713D01*
X164416476Y-94476199D01*
X164424708Y-94469291D01*
X164432529Y-94462002D01*
X164439933Y-94454343D01*
X164446911Y-94446327D01*
X164453457Y-94437967D01*
X164459563Y-94429274D01*
X164465222Y-94420261D01*
X164470427Y-94410940D01*
X164475171Y-94401323D01*
X164479447Y-94391423D01*
X164483246Y-94381252D01*
X164486563Y-94370821D01*
X164489389Y-94360144D01*
X164491717Y-94349233D01*
X164493541Y-94338099D01*
X164494852Y-94326756D01*
X164495644Y-94315215D01*
X164495910Y-94303488D01*
X164495644Y-94291765D01*
X164494852Y-94280234D01*
X164493541Y-94268907D01*
X164491717Y-94257795D01*
X164489389Y-94246912D01*
X164486563Y-94236267D01*
X164483246Y-94225874D01*
X164479447Y-94215744D01*
X164475171Y-94205888D01*
X164470427Y-94196319D01*
X164465222Y-94187049D01*
X164459563Y-94178088D01*
X164453457Y-94169450D01*
X164446911Y-94161145D01*
X164439933Y-94153186D01*
X164432529Y-94145585D01*
X164424708Y-94138353D01*
X164416476Y-94131501D01*
X164407841Y-94125043D01*
X164398809Y-94118989D01*
X164389389Y-94113352D01*
X164379587Y-94108143D01*
X164369411Y-94103374D01*
X164358867Y-94099057D01*
X164347964Y-94095203D01*
X164336707Y-94091825D01*
X164325106Y-94088935D01*
X164313166Y-94086543D01*
X164300895Y-94084662D01*
X164288301Y-94083304D01*
X164275390Y-94082481D01*
X164262170Y-94082204D01*
X164248927Y-94082481D01*
X164235996Y-94083304D01*
X164223382Y-94084662D01*
X164211093Y-94086543D01*
X164199136Y-94088935D01*
X164187519Y-94091825D01*
X164176248Y-94095203D01*
X164165331Y-94099057D01*
X164154775Y-94103374D01*
X164144588Y-94108143D01*
X164134775Y-94113352D01*
X164125346Y-94118989D01*
X164116306Y-94125043D01*
X164107663Y-94131501D01*
X164099424Y-94138353D01*
X164091597Y-94145585D01*
X164084188Y-94153186D01*
X164077205Y-94161145D01*
X164070655Y-94169450D01*
X164064545Y-94178088D01*
X164058883Y-94187049D01*
X164053675Y-94196319D01*
X164048929Y-94205888D01*
X164044652Y-94215744D01*
X164040852Y-94225874D01*
X164037534Y-94236267D01*
X164034708Y-94246912D01*
X164032379Y-94257795D01*
X164030555Y-94268907D01*
X164029243Y-94280234D01*
X164028451Y-94291765D01*
X164028185Y-94303488D01*
X163880185Y-94303488D01*
X163880064Y-94301631D01*
X163879685Y-94283948D01*
X163880123Y-94263627D01*
X163881426Y-94243662D01*
X163883584Y-94224073D01*
X163886583Y-94204878D01*
X163890412Y-94186097D01*
X163895058Y-94167748D01*
X163900508Y-94149850D01*
X163906751Y-94132423D01*
X163913773Y-94115484D01*
X163921563Y-94099053D01*
X163930109Y-94083150D01*
X163939397Y-94067792D01*
X163949416Y-94052999D01*
X163960153Y-94038790D01*
X163971596Y-94025183D01*
X163983733Y-94012198D01*
X163996551Y-93999853D01*
X164010037Y-93988167D01*
X164024181Y-93977160D01*
X164038968Y-93966850D01*
X164054387Y-93957256D01*
X164070426Y-93948397D01*
X164087072Y-93940292D01*
X164104313Y-93932960D01*
X164122136Y-93926420D01*
X164140529Y-93920690D01*
X164159480Y-93915790D01*
X164178976Y-93911738D01*
X164199006Y-93908554D01*
X164219556Y-93906256D01*
X164240615Y-93904864D01*
X164262170Y-93904395D01*
X164283706Y-93904864D01*
G37*
G36*
X164434605Y-93464025D02*
G01*
X163879685Y-93699231D01*
X163879685Y-93881192D01*
X164632442Y-93555128D01*
X164661995Y-93567584D01*
X164675437Y-93573941D01*
X164687844Y-93580394D01*
X164699237Y-93586975D01*
X164709642Y-93593718D01*
X164719080Y-93600656D01*
X164727576Y-93607821D01*
X164735152Y-93615247D01*
X164741832Y-93622966D01*
X164747639Y-93631012D01*
X164754764Y-93643764D01*
X164760055Y-93657435D01*
X164762603Y-93667115D01*
X164764394Y-93677286D01*
X164765451Y-93687980D01*
X164765799Y-93699231D01*
X164765289Y-93712615D01*
X164763783Y-93725928D01*
X164761314Y-93739102D01*
X164757916Y-93752065D01*
X164753623Y-93764748D01*
X164748468Y-93777081D01*
X164742487Y-93788994D01*
X164735711Y-93800416D01*
X164728175Y-93811279D01*
X164719914Y-93821511D01*
X164714019Y-93827947D01*
X164842979Y-93898045D01*
X164850872Y-93888763D01*
X164858330Y-93878810D01*
X164865344Y-93868239D01*
X164871903Y-93857100D01*
X164877997Y-93845444D01*
X164883616Y-93833323D01*
X164888748Y-93820787D01*
X164893385Y-93807889D01*
X164897515Y-93794678D01*
X164901128Y-93781207D01*
X164904213Y-93767525D01*
X164906761Y-93753686D01*
X164908761Y-93739739D01*
X164910202Y-93725736D01*
X164911074Y-93711728D01*
X164911367Y-93697766D01*
X164911214Y-93686174D01*
X164910744Y-93674753D01*
X164909948Y-93663503D01*
X164908811Y-93652423D01*
X164907323Y-93641513D01*
X164905471Y-93630772D01*
X164903244Y-93620200D01*
X164900628Y-93609796D01*
X164897613Y-93599560D01*
X164894185Y-93589492D01*
X164890333Y-93579590D01*
X164886045Y-93569854D01*
X164881309Y-93560285D01*
X164876112Y-93550880D01*
X164870443Y-93541641D01*
X164864289Y-93532566D01*
X164857639Y-93523655D01*
X164850480Y-93514907D01*
X164842801Y-93506322D01*
X164834588Y-93497899D01*
X164825831Y-93489638D01*
X164816516Y-93481539D01*
X164806633Y-93473601D01*
X164796169Y-93465823D01*
X164785111Y-93458205D01*
X164773448Y-93450746D01*
X164761168Y-93443446D01*
X164748258Y-93436305D01*
X164734707Y-93429322D01*
X164720502Y-93422496D01*
X164705631Y-93415827D01*
X164690083Y-93409315D01*
X163879685Y-93059315D01*
X163879685Y-93227354D01*
X164434605Y-93464025D01*
G37*
G36*
X164165307Y-91585208D02*
G01*
X164192160Y-91587090D01*
X164218393Y-91590200D01*
X164243988Y-91594517D01*
X164268927Y-91600020D01*
X164293193Y-91606688D01*
X164316767Y-91614500D01*
X164339633Y-91623434D01*
X164361772Y-91633469D01*
X164383168Y-91644585D01*
X164403802Y-91656759D01*
X164423657Y-91669971D01*
X164442715Y-91684199D01*
X164460959Y-91699423D01*
X164478371Y-91715620D01*
X164494933Y-91732771D01*
X164510628Y-91750853D01*
X164525438Y-91769846D01*
X164539346Y-91789727D01*
X164552333Y-91810477D01*
X164564383Y-91832074D01*
X164575477Y-91854496D01*
X164585599Y-91877723D01*
X164594729Y-91901734D01*
X164602852Y-91926506D01*
X164609949Y-91952019D01*
X164616002Y-91978252D01*
X164620994Y-92005183D01*
X164624907Y-92032791D01*
X164627725Y-92061056D01*
X164629428Y-92089955D01*
X164630000Y-92119468D01*
X164630000Y-92547870D01*
X163645212Y-92547870D01*
X163645212Y-92365665D01*
X163799330Y-92365665D01*
X164476127Y-92365665D01*
X164476127Y-92127773D01*
X164475736Y-92107529D01*
X164474573Y-92087749D01*
X164472650Y-92068443D01*
X164469976Y-92049623D01*
X164466565Y-92031301D01*
X164462427Y-92013488D01*
X164457575Y-91996198D01*
X164452019Y-91979441D01*
X164445772Y-91963229D01*
X164438845Y-91947574D01*
X164431249Y-91932488D01*
X164422997Y-91917983D01*
X164414099Y-91904071D01*
X164404567Y-91890762D01*
X164394414Y-91878070D01*
X164383650Y-91866005D01*
X164372287Y-91854581D01*
X164360337Y-91843807D01*
X164347811Y-91833698D01*
X164334721Y-91824263D01*
X164321078Y-91815515D01*
X164306894Y-91807466D01*
X164292181Y-91800127D01*
X164276950Y-91793511D01*
X164261213Y-91787629D01*
X164244981Y-91782493D01*
X164228266Y-91778115D01*
X164211080Y-91774506D01*
X164193433Y-91771679D01*
X164175338Y-91769644D01*
X164156807Y-91768415D01*
X164137850Y-91768003D01*
X164118893Y-91768415D01*
X164100359Y-91769644D01*
X164082261Y-91771679D01*
X164064610Y-91774506D01*
X164047418Y-91778115D01*
X164030697Y-91782493D01*
X164014457Y-91787629D01*
X163998712Y-91793511D01*
X163983472Y-91800127D01*
X163968749Y-91807466D01*
X163954555Y-91815515D01*
X163940902Y-91824263D01*
X163927801Y-91833698D01*
X163915264Y-91843807D01*
X163903302Y-91854581D01*
X163891928Y-91866005D01*
X163881153Y-91878070D01*
X163870988Y-91890762D01*
X163861445Y-91904071D01*
X163852537Y-91917983D01*
X163844274Y-91932488D01*
X163836668Y-91947574D01*
X163829731Y-91963229D01*
X163823475Y-91979441D01*
X163817911Y-91996198D01*
X163813052Y-92013488D01*
X163808907Y-92031301D01*
X163805491Y-92049623D01*
X163802813Y-92068443D01*
X163800885Y-92087749D01*
X163799720Y-92107529D01*
X163799330Y-92127773D01*
X163799330Y-92365665D01*
X163645212Y-92365665D01*
X163645212Y-92119468D01*
X163645785Y-92089955D01*
X163647490Y-92061056D01*
X163650311Y-92032791D01*
X163654229Y-92005183D01*
X163659227Y-91978252D01*
X163665287Y-91952019D01*
X163672392Y-91926506D01*
X163680525Y-91901734D01*
X163689666Y-91877723D01*
X163699799Y-91854496D01*
X163710906Y-91832074D01*
X163722969Y-91810477D01*
X163735971Y-91789727D01*
X163749893Y-91769846D01*
X163764720Y-91750853D01*
X163780431Y-91732771D01*
X163797011Y-91715620D01*
X163814441Y-91699423D01*
X163832704Y-91684199D01*
X163851781Y-91669971D01*
X163871656Y-91656759D01*
X163892311Y-91644585D01*
X163913727Y-91633469D01*
X163935888Y-91623434D01*
X163958776Y-91614500D01*
X163982372Y-91606688D01*
X164006660Y-91600020D01*
X164031621Y-91594517D01*
X164057239Y-91590200D01*
X164083494Y-91587090D01*
X164110371Y-91585208D01*
X164137850Y-91584577D01*
X164165307Y-91585208D01*
G37*
G36*
X163645212Y-90320864D02*
G01*
X163645212Y-90470829D01*
X164298073Y-90853069D01*
X163645212Y-91242148D01*
X163645212Y-91392113D01*
X164630000Y-91392113D01*
X164630000Y-91218457D01*
X163985931Y-91218457D01*
X164517648Y-90896300D01*
X164517648Y-90815212D01*
X163977383Y-90493055D01*
X164630000Y-90491834D01*
X164630000Y-90319643D01*
X163645212Y-90320864D01*
G37*
D10*
X165836779Y-117969819D02*
X165836779Y-116969819D01*
X165836779Y-116969819D02*
X166170112Y-117684104D01*
X166170112Y-117684104D02*
X166503445Y-116969819D01*
X166503445Y-116969819D02*
X166503445Y-117969819D01*
X166932017Y-117065057D02*
X166979636Y-117017438D01*
X166979636Y-117017438D02*
X167074874Y-116969819D01*
X167074874Y-116969819D02*
X167312969Y-116969819D01*
X167312969Y-116969819D02*
X167408207Y-117017438D01*
X167408207Y-117017438D02*
X167455826Y-117065057D01*
X167455826Y-117065057D02*
X167503445Y-117160295D01*
X167503445Y-117160295D02*
X167503445Y-117255533D01*
X167503445Y-117255533D02*
X167455826Y-117398390D01*
X167455826Y-117398390D02*
X166884398Y-117969819D01*
X166884398Y-117969819D02*
X167503445Y-117969819D01*
X139736779Y-88169819D02*
X139736779Y-87169819D01*
X139736779Y-87169819D02*
X140070112Y-87884104D01*
X140070112Y-87884104D02*
X140403445Y-87169819D01*
X140403445Y-87169819D02*
X140403445Y-88169819D01*
X141308207Y-87503152D02*
X141308207Y-88169819D01*
X141070112Y-87122200D02*
X140832017Y-87836485D01*
X140832017Y-87836485D02*
X141451064Y-87836485D01*
X149436779Y-120188866D02*
X150198684Y-120188866D01*
X149817731Y-120569819D02*
X149817731Y-119807914D01*
X164928152Y-86876190D02*
X165594819Y-86876190D01*
X165023390Y-86876190D02*
X164975771Y-86828571D01*
X164975771Y-86828571D02*
X164928152Y-86733333D01*
X164928152Y-86733333D02*
X164928152Y-86590476D01*
X164928152Y-86590476D02*
X164975771Y-86495238D01*
X164975771Y-86495238D02*
X165071009Y-86447619D01*
X165071009Y-86447619D02*
X165594819Y-86447619D01*
X165594819Y-85971428D02*
X164928152Y-85971428D01*
X165118628Y-85971428D02*
X165023390Y-85923809D01*
X165023390Y-85923809D02*
X164975771Y-85876190D01*
X164975771Y-85876190D02*
X164928152Y-85780952D01*
X164928152Y-85780952D02*
X164928152Y-85685714D01*
X164928152Y-85495237D02*
X164928152Y-85114285D01*
X165594819Y-85352380D02*
X164737676Y-85352380D01*
X164737676Y-85352380D02*
X164642438Y-85304761D01*
X164642438Y-85304761D02*
X164594819Y-85209523D01*
X164594819Y-85209523D02*
X164594819Y-85114285D01*
X164690057Y-84828570D02*
X164642438Y-84780951D01*
X164642438Y-84780951D02*
X164594819Y-84685713D01*
X164594819Y-84685713D02*
X164594819Y-84447618D01*
X164594819Y-84447618D02*
X164642438Y-84352380D01*
X164642438Y-84352380D02*
X164690057Y-84304761D01*
X164690057Y-84304761D02*
X164785295Y-84257142D01*
X164785295Y-84257142D02*
X164880533Y-84257142D01*
X164880533Y-84257142D02*
X165023390Y-84304761D01*
X165023390Y-84304761D02*
X165594819Y-84876189D01*
X165594819Y-84876189D02*
X165594819Y-84257142D01*
X164928152Y-83399999D02*
X165594819Y-83399999D01*
X164547200Y-83638094D02*
X165261485Y-83876189D01*
X165261485Y-83876189D02*
X165261485Y-83257142D01*
X165594819Y-82733332D02*
X165547200Y-82828570D01*
X165547200Y-82828570D02*
X165451961Y-82876189D01*
X165451961Y-82876189D02*
X164594819Y-82876189D01*
X164594819Y-82161903D02*
X164594819Y-82066665D01*
X164594819Y-82066665D02*
X164642438Y-81971427D01*
X164642438Y-81971427D02*
X164690057Y-81923808D01*
X164690057Y-81923808D02*
X164785295Y-81876189D01*
X164785295Y-81876189D02*
X164975771Y-81828570D01*
X164975771Y-81828570D02*
X165213866Y-81828570D01*
X165213866Y-81828570D02*
X165404342Y-81876189D01*
X165404342Y-81876189D02*
X165499580Y-81923808D01*
X165499580Y-81923808D02*
X165547200Y-81971427D01*
X165547200Y-81971427D02*
X165594819Y-82066665D01*
X165594819Y-82066665D02*
X165594819Y-82161903D01*
X165594819Y-82161903D02*
X165547200Y-82257141D01*
X165547200Y-82257141D02*
X165499580Y-82304760D01*
X165499580Y-82304760D02*
X165404342Y-82352379D01*
X165404342Y-82352379D02*
X165213866Y-82399998D01*
X165213866Y-82399998D02*
X164975771Y-82399998D01*
X164975771Y-82399998D02*
X164785295Y-82352379D01*
X164785295Y-82352379D02*
X164690057Y-82304760D01*
X164690057Y-82304760D02*
X164642438Y-82257141D01*
X164642438Y-82257141D02*
X164594819Y-82161903D01*
X165594819Y-80876189D02*
X165594819Y-81447617D01*
X165594819Y-81161903D02*
X164594819Y-81161903D01*
X164594819Y-81161903D02*
X164737676Y-81257141D01*
X164737676Y-81257141D02*
X164832914Y-81352379D01*
X164832914Y-81352379D02*
X164880533Y-81447617D01*
X153159580Y-90866666D02*
X153207200Y-90914285D01*
X153207200Y-90914285D02*
X153254819Y-91057142D01*
X153254819Y-91057142D02*
X153254819Y-91152380D01*
X153254819Y-91152380D02*
X153207200Y-91295237D01*
X153207200Y-91295237D02*
X153111961Y-91390475D01*
X153111961Y-91390475D02*
X153016723Y-91438094D01*
X153016723Y-91438094D02*
X152826247Y-91485713D01*
X152826247Y-91485713D02*
X152683390Y-91485713D01*
X152683390Y-91485713D02*
X152492914Y-91438094D01*
X152492914Y-91438094D02*
X152397676Y-91390475D01*
X152397676Y-91390475D02*
X152302438Y-91295237D01*
X152302438Y-91295237D02*
X152254819Y-91152380D01*
X152254819Y-91152380D02*
X152254819Y-91057142D01*
X152254819Y-91057142D02*
X152302438Y-90914285D01*
X152302438Y-90914285D02*
X152350057Y-90866666D01*
X153207200Y-90485713D02*
X153254819Y-90342856D01*
X153254819Y-90342856D02*
X153254819Y-90104761D01*
X153254819Y-90104761D02*
X153207200Y-90009523D01*
X153207200Y-90009523D02*
X153159580Y-89961904D01*
X153159580Y-89961904D02*
X153064342Y-89914285D01*
X153064342Y-89914285D02*
X152969104Y-89914285D01*
X152969104Y-89914285D02*
X152873866Y-89961904D01*
X152873866Y-89961904D02*
X152826247Y-90009523D01*
X152826247Y-90009523D02*
X152778628Y-90104761D01*
X152778628Y-90104761D02*
X152731009Y-90295237D01*
X152731009Y-90295237D02*
X152683390Y-90390475D01*
X152683390Y-90390475D02*
X152635771Y-90438094D01*
X152635771Y-90438094D02*
X152540533Y-90485713D01*
X152540533Y-90485713D02*
X152445295Y-90485713D01*
X152445295Y-90485713D02*
X152350057Y-90438094D01*
X152350057Y-90438094D02*
X152302438Y-90390475D01*
X152302438Y-90390475D02*
X152254819Y-90295237D01*
X152254819Y-90295237D02*
X152254819Y-90057142D01*
X152254819Y-90057142D02*
X152302438Y-89914285D01*
X161254819Y-120633332D02*
X162254819Y-120299999D01*
X162254819Y-120299999D02*
X161254819Y-119966666D01*
X162254819Y-119633332D02*
X161254819Y-119633332D01*
X161254819Y-119633332D02*
X161254819Y-119395237D01*
X161254819Y-119395237D02*
X161302438Y-119252380D01*
X161302438Y-119252380D02*
X161397676Y-119157142D01*
X161397676Y-119157142D02*
X161492914Y-119109523D01*
X161492914Y-119109523D02*
X161683390Y-119061904D01*
X161683390Y-119061904D02*
X161826247Y-119061904D01*
X161826247Y-119061904D02*
X162016723Y-119109523D01*
X162016723Y-119109523D02*
X162111961Y-119157142D01*
X162111961Y-119157142D02*
X162207200Y-119252380D01*
X162207200Y-119252380D02*
X162254819Y-119395237D01*
X162254819Y-119395237D02*
X162254819Y-119633332D01*
X162254819Y-118633332D02*
X161254819Y-118633332D01*
X161254819Y-118633332D02*
X161254819Y-118395237D01*
X161254819Y-118395237D02*
X161302438Y-118252380D01*
X161302438Y-118252380D02*
X161397676Y-118157142D01*
X161397676Y-118157142D02*
X161492914Y-118109523D01*
X161492914Y-118109523D02*
X161683390Y-118061904D01*
X161683390Y-118061904D02*
X161826247Y-118061904D01*
X161826247Y-118061904D02*
X162016723Y-118109523D01*
X162016723Y-118109523D02*
X162111961Y-118157142D01*
X162111961Y-118157142D02*
X162207200Y-118252380D01*
X162207200Y-118252380D02*
X162254819Y-118395237D01*
X162254819Y-118395237D02*
X162254819Y-118633332D01*
X155407200Y-92185713D02*
X155454819Y-92042856D01*
X155454819Y-92042856D02*
X155454819Y-91804761D01*
X155454819Y-91804761D02*
X155407200Y-91709523D01*
X155407200Y-91709523D02*
X155359580Y-91661904D01*
X155359580Y-91661904D02*
X155264342Y-91614285D01*
X155264342Y-91614285D02*
X155169104Y-91614285D01*
X155169104Y-91614285D02*
X155073866Y-91661904D01*
X155073866Y-91661904D02*
X155026247Y-91709523D01*
X155026247Y-91709523D02*
X154978628Y-91804761D01*
X154978628Y-91804761D02*
X154931009Y-91995237D01*
X154931009Y-91995237D02*
X154883390Y-92090475D01*
X154883390Y-92090475D02*
X154835771Y-92138094D01*
X154835771Y-92138094D02*
X154740533Y-92185713D01*
X154740533Y-92185713D02*
X154645295Y-92185713D01*
X154645295Y-92185713D02*
X154550057Y-92138094D01*
X154550057Y-92138094D02*
X154502438Y-92090475D01*
X154502438Y-92090475D02*
X154454819Y-91995237D01*
X154454819Y-91995237D02*
X154454819Y-91757142D01*
X154454819Y-91757142D02*
X154502438Y-91614285D01*
X155359580Y-90614285D02*
X155407200Y-90661904D01*
X155407200Y-90661904D02*
X155454819Y-90804761D01*
X155454819Y-90804761D02*
X155454819Y-90899999D01*
X155454819Y-90899999D02*
X155407200Y-91042856D01*
X155407200Y-91042856D02*
X155311961Y-91138094D01*
X155311961Y-91138094D02*
X155216723Y-91185713D01*
X155216723Y-91185713D02*
X155026247Y-91233332D01*
X155026247Y-91233332D02*
X154883390Y-91233332D01*
X154883390Y-91233332D02*
X154692914Y-91185713D01*
X154692914Y-91185713D02*
X154597676Y-91138094D01*
X154597676Y-91138094D02*
X154502438Y-91042856D01*
X154502438Y-91042856D02*
X154454819Y-90899999D01*
X154454819Y-90899999D02*
X154454819Y-90804761D01*
X154454819Y-90804761D02*
X154502438Y-90661904D01*
X154502438Y-90661904D02*
X154550057Y-90614285D01*
X155454819Y-90185713D02*
X154454819Y-90185713D01*
X155454819Y-89614285D02*
X154883390Y-90042856D01*
X154454819Y-89614285D02*
X155026247Y-90185713D01*
X157554819Y-92771427D02*
X156554819Y-92771427D01*
X156554819Y-92771427D02*
X157269104Y-92438094D01*
X157269104Y-92438094D02*
X156554819Y-92104761D01*
X156554819Y-92104761D02*
X157554819Y-92104761D01*
X156554819Y-91438094D02*
X156554819Y-91247618D01*
X156554819Y-91247618D02*
X156602438Y-91152380D01*
X156602438Y-91152380D02*
X156697676Y-91057142D01*
X156697676Y-91057142D02*
X156888152Y-91009523D01*
X156888152Y-91009523D02*
X157221485Y-91009523D01*
X157221485Y-91009523D02*
X157411961Y-91057142D01*
X157411961Y-91057142D02*
X157507200Y-91152380D01*
X157507200Y-91152380D02*
X157554819Y-91247618D01*
X157554819Y-91247618D02*
X157554819Y-91438094D01*
X157554819Y-91438094D02*
X157507200Y-91533332D01*
X157507200Y-91533332D02*
X157411961Y-91628570D01*
X157411961Y-91628570D02*
X157221485Y-91676189D01*
X157221485Y-91676189D02*
X156888152Y-91676189D01*
X156888152Y-91676189D02*
X156697676Y-91628570D01*
X156697676Y-91628570D02*
X156602438Y-91533332D01*
X156602438Y-91533332D02*
X156554819Y-91438094D01*
X157507200Y-90628570D02*
X157554819Y-90485713D01*
X157554819Y-90485713D02*
X157554819Y-90247618D01*
X157554819Y-90247618D02*
X157507200Y-90152380D01*
X157507200Y-90152380D02*
X157459580Y-90104761D01*
X157459580Y-90104761D02*
X157364342Y-90057142D01*
X157364342Y-90057142D02*
X157269104Y-90057142D01*
X157269104Y-90057142D02*
X157173866Y-90104761D01*
X157173866Y-90104761D02*
X157126247Y-90152380D01*
X157126247Y-90152380D02*
X157078628Y-90247618D01*
X157078628Y-90247618D02*
X157031009Y-90438094D01*
X157031009Y-90438094D02*
X156983390Y-90533332D01*
X156983390Y-90533332D02*
X156935771Y-90580951D01*
X156935771Y-90580951D02*
X156840533Y-90628570D01*
X156840533Y-90628570D02*
X156745295Y-90628570D01*
X156745295Y-90628570D02*
X156650057Y-90580951D01*
X156650057Y-90580951D02*
X156602438Y-90533332D01*
X156602438Y-90533332D02*
X156554819Y-90438094D01*
X156554819Y-90438094D02*
X156554819Y-90199999D01*
X156554819Y-90199999D02*
X156602438Y-90057142D01*
X157554819Y-89628570D02*
X156554819Y-89628570D01*
X141554819Y-86776190D02*
X140554819Y-86776190D01*
X140935771Y-86776190D02*
X140888152Y-86680952D01*
X140888152Y-86680952D02*
X140888152Y-86490476D01*
X140888152Y-86490476D02*
X140935771Y-86395238D01*
X140935771Y-86395238D02*
X140983390Y-86347619D01*
X140983390Y-86347619D02*
X141078628Y-86300000D01*
X141078628Y-86300000D02*
X141364342Y-86300000D01*
X141364342Y-86300000D02*
X141459580Y-86347619D01*
X141459580Y-86347619D02*
X141507200Y-86395238D01*
X141507200Y-86395238D02*
X141554819Y-86490476D01*
X141554819Y-86490476D02*
X141554819Y-86680952D01*
X141554819Y-86680952D02*
X141507200Y-86776190D01*
X140888152Y-85442857D02*
X141554819Y-85442857D01*
X140888152Y-85871428D02*
X141411961Y-85871428D01*
X141411961Y-85871428D02*
X141507200Y-85823809D01*
X141507200Y-85823809D02*
X141554819Y-85728571D01*
X141554819Y-85728571D02*
X141554819Y-85585714D01*
X141554819Y-85585714D02*
X141507200Y-85490476D01*
X141507200Y-85490476D02*
X141459580Y-85442857D01*
X140888152Y-85061904D02*
X140888152Y-84538095D01*
X140888152Y-84538095D02*
X141554819Y-85061904D01*
X141554819Y-85061904D02*
X141554819Y-84538095D01*
X140888152Y-84252380D02*
X140888152Y-83728571D01*
X140888152Y-83728571D02*
X141554819Y-84252380D01*
X141554819Y-84252380D02*
X141554819Y-83728571D01*
X168907200Y-109890475D02*
X168954819Y-109747618D01*
X168954819Y-109747618D02*
X168954819Y-109509523D01*
X168954819Y-109509523D02*
X168907200Y-109414285D01*
X168907200Y-109414285D02*
X168859580Y-109366666D01*
X168859580Y-109366666D02*
X168764342Y-109319047D01*
X168764342Y-109319047D02*
X168669104Y-109319047D01*
X168669104Y-109319047D02*
X168573866Y-109366666D01*
X168573866Y-109366666D02*
X168526247Y-109414285D01*
X168526247Y-109414285D02*
X168478628Y-109509523D01*
X168478628Y-109509523D02*
X168431009Y-109699999D01*
X168431009Y-109699999D02*
X168383390Y-109795237D01*
X168383390Y-109795237D02*
X168335771Y-109842856D01*
X168335771Y-109842856D02*
X168240533Y-109890475D01*
X168240533Y-109890475D02*
X168145295Y-109890475D01*
X168145295Y-109890475D02*
X168050057Y-109842856D01*
X168050057Y-109842856D02*
X168002438Y-109795237D01*
X168002438Y-109795237D02*
X167954819Y-109699999D01*
X167954819Y-109699999D02*
X167954819Y-109461904D01*
X167954819Y-109461904D02*
X168002438Y-109319047D01*
X168859580Y-108319047D02*
X168907200Y-108366666D01*
X168907200Y-108366666D02*
X168954819Y-108509523D01*
X168954819Y-108509523D02*
X168954819Y-108604761D01*
X168954819Y-108604761D02*
X168907200Y-108747618D01*
X168907200Y-108747618D02*
X168811961Y-108842856D01*
X168811961Y-108842856D02*
X168716723Y-108890475D01*
X168716723Y-108890475D02*
X168526247Y-108938094D01*
X168526247Y-108938094D02*
X168383390Y-108938094D01*
X168383390Y-108938094D02*
X168192914Y-108890475D01*
X168192914Y-108890475D02*
X168097676Y-108842856D01*
X168097676Y-108842856D02*
X168002438Y-108747618D01*
X168002438Y-108747618D02*
X167954819Y-108604761D01*
X167954819Y-108604761D02*
X167954819Y-108509523D01*
X167954819Y-108509523D02*
X168002438Y-108366666D01*
X168002438Y-108366666D02*
X168050057Y-108319047D01*
X168954819Y-107414285D02*
X168954819Y-107890475D01*
X168954819Y-107890475D02*
X167954819Y-107890475D01*
X143707200Y-85457142D02*
X143754819Y-85314285D01*
X143754819Y-85314285D02*
X143754819Y-85076190D01*
X143754819Y-85076190D02*
X143707200Y-84980952D01*
X143707200Y-84980952D02*
X143659580Y-84933333D01*
X143659580Y-84933333D02*
X143564342Y-84885714D01*
X143564342Y-84885714D02*
X143469104Y-84885714D01*
X143469104Y-84885714D02*
X143373866Y-84933333D01*
X143373866Y-84933333D02*
X143326247Y-84980952D01*
X143326247Y-84980952D02*
X143278628Y-85076190D01*
X143278628Y-85076190D02*
X143231009Y-85266666D01*
X143231009Y-85266666D02*
X143183390Y-85361904D01*
X143183390Y-85361904D02*
X143135771Y-85409523D01*
X143135771Y-85409523D02*
X143040533Y-85457142D01*
X143040533Y-85457142D02*
X142945295Y-85457142D01*
X142945295Y-85457142D02*
X142850057Y-85409523D01*
X142850057Y-85409523D02*
X142802438Y-85361904D01*
X142802438Y-85361904D02*
X142754819Y-85266666D01*
X142754819Y-85266666D02*
X142754819Y-85028571D01*
X142754819Y-85028571D02*
X142802438Y-84885714D01*
X142754819Y-84552380D02*
X143754819Y-84314285D01*
X143754819Y-84314285D02*
X143040533Y-84123809D01*
X143040533Y-84123809D02*
X143754819Y-83933333D01*
X143754819Y-83933333D02*
X142754819Y-83695238D01*
X143754819Y-83314285D02*
X142754819Y-83314285D01*
X142754819Y-83314285D02*
X142754819Y-83076190D01*
X142754819Y-83076190D02*
X142802438Y-82933333D01*
X142802438Y-82933333D02*
X142897676Y-82838095D01*
X142897676Y-82838095D02*
X142992914Y-82790476D01*
X142992914Y-82790476D02*
X143183390Y-82742857D01*
X143183390Y-82742857D02*
X143326247Y-82742857D01*
X143326247Y-82742857D02*
X143516723Y-82790476D01*
X143516723Y-82790476D02*
X143611961Y-82838095D01*
X143611961Y-82838095D02*
X143707200Y-82933333D01*
X143707200Y-82933333D02*
X143754819Y-83076190D01*
X143754819Y-83076190D02*
X143754819Y-83314285D01*
X151038095Y-103254819D02*
X151609523Y-103254819D01*
X151323809Y-104254819D02*
X151323809Y-103254819D01*
X151847619Y-103254819D02*
X152514285Y-104254819D01*
X152514285Y-103254819D02*
X151847619Y-104254819D01*
X168807200Y-107014285D02*
X168854819Y-106871428D01*
X168854819Y-106871428D02*
X168854819Y-106633333D01*
X168854819Y-106633333D02*
X168807200Y-106538095D01*
X168807200Y-106538095D02*
X168759580Y-106490476D01*
X168759580Y-106490476D02*
X168664342Y-106442857D01*
X168664342Y-106442857D02*
X168569104Y-106442857D01*
X168569104Y-106442857D02*
X168473866Y-106490476D01*
X168473866Y-106490476D02*
X168426247Y-106538095D01*
X168426247Y-106538095D02*
X168378628Y-106633333D01*
X168378628Y-106633333D02*
X168331009Y-106823809D01*
X168331009Y-106823809D02*
X168283390Y-106919047D01*
X168283390Y-106919047D02*
X168235771Y-106966666D01*
X168235771Y-106966666D02*
X168140533Y-107014285D01*
X168140533Y-107014285D02*
X168045295Y-107014285D01*
X168045295Y-107014285D02*
X167950057Y-106966666D01*
X167950057Y-106966666D02*
X167902438Y-106919047D01*
X167902438Y-106919047D02*
X167854819Y-106823809D01*
X167854819Y-106823809D02*
X167854819Y-106585714D01*
X167854819Y-106585714D02*
X167902438Y-106442857D01*
X168854819Y-106014285D02*
X167854819Y-106014285D01*
X167854819Y-106014285D02*
X167854819Y-105776190D01*
X167854819Y-105776190D02*
X167902438Y-105633333D01*
X167902438Y-105633333D02*
X167997676Y-105538095D01*
X167997676Y-105538095D02*
X168092914Y-105490476D01*
X168092914Y-105490476D02*
X168283390Y-105442857D01*
X168283390Y-105442857D02*
X168426247Y-105442857D01*
X168426247Y-105442857D02*
X168616723Y-105490476D01*
X168616723Y-105490476D02*
X168711961Y-105538095D01*
X168711961Y-105538095D02*
X168807200Y-105633333D01*
X168807200Y-105633333D02*
X168854819Y-105776190D01*
X168854819Y-105776190D02*
X168854819Y-106014285D01*
X168569104Y-105061904D02*
X168569104Y-104585714D01*
X168854819Y-105157142D02*
X167854819Y-104823809D01*
X167854819Y-104823809D02*
X168854819Y-104490476D01*
X151633333Y-109554819D02*
X151300000Y-109078628D01*
X151061905Y-109554819D02*
X151061905Y-108554819D01*
X151061905Y-108554819D02*
X151442857Y-108554819D01*
X151442857Y-108554819D02*
X151538095Y-108602438D01*
X151538095Y-108602438D02*
X151585714Y-108650057D01*
X151585714Y-108650057D02*
X151633333Y-108745295D01*
X151633333Y-108745295D02*
X151633333Y-108888152D01*
X151633333Y-108888152D02*
X151585714Y-108983390D01*
X151585714Y-108983390D02*
X151538095Y-109031009D01*
X151538095Y-109031009D02*
X151442857Y-109078628D01*
X151442857Y-109078628D02*
X151061905Y-109078628D01*
X151966667Y-108554819D02*
X152633333Y-109554819D01*
X152633333Y-108554819D02*
X151966667Y-109554819D01*
X164202438Y-120161904D02*
X164154819Y-120257142D01*
X164154819Y-120257142D02*
X164154819Y-120399999D01*
X164154819Y-120399999D02*
X164202438Y-120542856D01*
X164202438Y-120542856D02*
X164297676Y-120638094D01*
X164297676Y-120638094D02*
X164392914Y-120685713D01*
X164392914Y-120685713D02*
X164583390Y-120733332D01*
X164583390Y-120733332D02*
X164726247Y-120733332D01*
X164726247Y-120733332D02*
X164916723Y-120685713D01*
X164916723Y-120685713D02*
X165011961Y-120638094D01*
X165011961Y-120638094D02*
X165107200Y-120542856D01*
X165107200Y-120542856D02*
X165154819Y-120399999D01*
X165154819Y-120399999D02*
X165154819Y-120304761D01*
X165154819Y-120304761D02*
X165107200Y-120161904D01*
X165107200Y-120161904D02*
X165059580Y-120114285D01*
X165059580Y-120114285D02*
X164726247Y-120114285D01*
X164726247Y-120114285D02*
X164726247Y-120304761D01*
X165154819Y-119685713D02*
X164154819Y-119685713D01*
X164154819Y-119685713D02*
X165154819Y-119114285D01*
X165154819Y-119114285D02*
X164154819Y-119114285D01*
X165154819Y-118638094D02*
X164154819Y-118638094D01*
X164154819Y-118638094D02*
X164154819Y-118399999D01*
X164154819Y-118399999D02*
X164202438Y-118257142D01*
X164202438Y-118257142D02*
X164297676Y-118161904D01*
X164297676Y-118161904D02*
X164392914Y-118114285D01*
X164392914Y-118114285D02*
X164583390Y-118066666D01*
X164583390Y-118066666D02*
X164726247Y-118066666D01*
X164726247Y-118066666D02*
X164916723Y-118114285D01*
X164916723Y-118114285D02*
X165011961Y-118161904D01*
X165011961Y-118161904D02*
X165107200Y-118257142D01*
X165107200Y-118257142D02*
X165154819Y-118399999D01*
X165154819Y-118399999D02*
X165154819Y-118638094D01*
X159554819Y-92871427D02*
X158554819Y-92871427D01*
X158554819Y-92871427D02*
X159269104Y-92538094D01*
X159269104Y-92538094D02*
X158554819Y-92204761D01*
X158554819Y-92204761D02*
X159554819Y-92204761D01*
X159554819Y-91728570D02*
X158554819Y-91728570D01*
X159507200Y-91299999D02*
X159554819Y-91157142D01*
X159554819Y-91157142D02*
X159554819Y-90919047D01*
X159554819Y-90919047D02*
X159507200Y-90823809D01*
X159507200Y-90823809D02*
X159459580Y-90776190D01*
X159459580Y-90776190D02*
X159364342Y-90728571D01*
X159364342Y-90728571D02*
X159269104Y-90728571D01*
X159269104Y-90728571D02*
X159173866Y-90776190D01*
X159173866Y-90776190D02*
X159126247Y-90823809D01*
X159126247Y-90823809D02*
X159078628Y-90919047D01*
X159078628Y-90919047D02*
X159031009Y-91109523D01*
X159031009Y-91109523D02*
X158983390Y-91204761D01*
X158983390Y-91204761D02*
X158935771Y-91252380D01*
X158935771Y-91252380D02*
X158840533Y-91299999D01*
X158840533Y-91299999D02*
X158745295Y-91299999D01*
X158745295Y-91299999D02*
X158650057Y-91252380D01*
X158650057Y-91252380D02*
X158602438Y-91204761D01*
X158602438Y-91204761D02*
X158554819Y-91109523D01*
X158554819Y-91109523D02*
X158554819Y-90871428D01*
X158554819Y-90871428D02*
X158602438Y-90728571D01*
X158554819Y-90109523D02*
X158554819Y-89919047D01*
X158554819Y-89919047D02*
X158602438Y-89823809D01*
X158602438Y-89823809D02*
X158697676Y-89728571D01*
X158697676Y-89728571D02*
X158888152Y-89680952D01*
X158888152Y-89680952D02*
X159221485Y-89680952D01*
X159221485Y-89680952D02*
X159411961Y-89728571D01*
X159411961Y-89728571D02*
X159507200Y-89823809D01*
X159507200Y-89823809D02*
X159554819Y-89919047D01*
X159554819Y-89919047D02*
X159554819Y-90109523D01*
X159554819Y-90109523D02*
X159507200Y-90204761D01*
X159507200Y-90204761D02*
X159411961Y-90299999D01*
X159411961Y-90299999D02*
X159221485Y-90347618D01*
X159221485Y-90347618D02*
X158888152Y-90347618D01*
X158888152Y-90347618D02*
X158697676Y-90299999D01*
X158697676Y-90299999D02*
X158602438Y-90204761D01*
X158602438Y-90204761D02*
X158554819Y-90109523D01*
D12*
%TO.C,J8*%
X163650000Y-81270000D02*
X163650000Y-82600000D01*
X162320000Y-81270000D02*
X163650000Y-81270000D01*
X161050000Y-81270000D02*
X153370000Y-81270000D01*
X161050000Y-81270000D02*
X161050000Y-83870000D01*
X153370000Y-81270000D02*
X153370000Y-86470000D01*
X163650000Y-83870000D02*
X163650000Y-86470000D01*
X161050000Y-83870000D02*
X163650000Y-83870000D01*
X163650000Y-86470000D02*
X153370000Y-86470000D01*
D13*
%TO.C,U6*%
X162675000Y-113390000D02*
X162675000Y-112750000D01*
X162675000Y-114950000D02*
X162675000Y-114310000D01*
X162675000Y-114950000D02*
X163155000Y-114950000D01*
X164895000Y-112750000D02*
X165375000Y-112750000D01*
X164895000Y-114950000D02*
X165375000Y-114950000D01*
X165375000Y-113390000D02*
X165375000Y-112750000D01*
X165375000Y-114950000D02*
X165375000Y-114310000D01*
D12*
%TO.C,C14*%
X158965000Y-110711252D02*
X158965000Y-110188748D01*
X160435000Y-110711252D02*
X160435000Y-110188748D01*
%TO.C,J19*%
X153500000Y-88400000D02*
G75*
G03*
X153500000Y-88400000I-700000J0D01*
G01*
%TO.C,D6*%
X148660000Y-93515000D02*
X146740000Y-93515000D01*
X146740000Y-93515000D02*
X146740000Y-96200000D01*
X148660000Y-96200000D02*
X148660000Y-93515000D01*
%TO.C,J16*%
X162800000Y-122200000D02*
G75*
G03*
X162800000Y-122200000I-700000J0D01*
G01*
%TO.C,C2*%
X151165000Y-111861252D02*
X151165000Y-111338748D01*
X152635000Y-111861252D02*
X152635000Y-111338748D01*
%TO.C,J5*%
X137470000Y-90085000D02*
X137470000Y-91415000D01*
X137470000Y-90085000D02*
X138040000Y-90085000D01*
X137470000Y-91415000D02*
X138492470Y-91415000D01*
X138800000Y-88690000D02*
X140130000Y-88690000D01*
X139107530Y-91415000D02*
X140130000Y-91415000D01*
X139560000Y-90085000D02*
X140130000Y-90085000D01*
X140130000Y-88690000D02*
X140130000Y-89450000D01*
X140130000Y-90085000D02*
X140130000Y-91415000D01*
%TO.C,L1*%
X137896000Y-110969000D02*
X137896000Y-106661000D01*
X142204000Y-106661000D02*
X142204000Y-110969000D01*
%TO.C,J15*%
X155600000Y-88400000D02*
G75*
G03*
X155600000Y-88400000I-700000J0D01*
G01*
%TO.C,C13*%
X143988748Y-106080000D02*
X144511252Y-106080000D01*
X143988748Y-107550000D02*
X144511252Y-107550000D01*
%TO.C,C1*%
X143988748Y-103880000D02*
X144511252Y-103880000D01*
X143988748Y-105350000D02*
X144511252Y-105350000D01*
%TO.C,C15*%
X156688748Y-113815000D02*
X157211252Y-113815000D01*
X156688748Y-115285000D02*
X157211252Y-115285000D01*
%TO.C,R18*%
X150635000Y-94972936D02*
X150635000Y-95427064D01*
X149165000Y-94972936D02*
X149165000Y-95427064D01*
%TO.C,J13*%
X157700000Y-88300000D02*
G75*
G03*
X157700000Y-88300000I-700000J0D01*
G01*
%TO.C,R7*%
X150335000Y-104772936D02*
X150335000Y-105227064D01*
X148865000Y-104772936D02*
X148865000Y-105227064D01*
%TO.C,D1*%
X148460000Y-103315000D02*
X146540000Y-103315000D01*
X146540000Y-103315000D02*
X146540000Y-106000000D01*
X148460000Y-106000000D02*
X148460000Y-103315000D01*
%TO.C,J9*%
X137570000Y-85235000D02*
X137570000Y-86565000D01*
X137570000Y-85235000D02*
X138140000Y-85235000D01*
X137570000Y-86565000D02*
X138592470Y-86565000D01*
X138900000Y-83840000D02*
X140230000Y-83840000D01*
X139207530Y-86565000D02*
X140230000Y-86565000D01*
X139660000Y-85235000D02*
X140230000Y-85235000D01*
X140230000Y-83840000D02*
X140230000Y-84600000D01*
X140230000Y-85235000D02*
X140230000Y-86565000D01*
%TO.C,U2*%
X161210000Y-103510000D02*
X161210000Y-103060000D01*
X161210000Y-103060000D02*
X162500000Y-103060000D01*
X161210000Y-96290000D02*
X161210000Y-96740000D01*
X160760000Y-103510000D02*
X161210000Y-103510000D01*
X160760000Y-96290000D02*
X161210000Y-96290000D01*
X154440000Y-103510000D02*
X153990000Y-103510000D01*
X154440000Y-96290000D02*
X153990000Y-96290000D01*
X153990000Y-103510000D02*
X153990000Y-103060000D01*
X153990000Y-96290000D02*
X153990000Y-96740000D01*
%TO.C,J11*%
X167100000Y-108800000D02*
G75*
G03*
X167100000Y-108800000I-700000J0D01*
G01*
%TO.C,JP1*%
X159100000Y-115550000D02*
X159100000Y-112750000D01*
X161100000Y-115550000D02*
X159100000Y-115550000D01*
X159100000Y-112750000D02*
X161100000Y-112750000D01*
X161100000Y-112750000D02*
X161100000Y-115550000D01*
%TO.C,Q6*%
X148637500Y-92060000D02*
X150312500Y-92060000D01*
X148637500Y-92060000D02*
X147987500Y-92060000D01*
X148637500Y-88940000D02*
X149287500Y-88940000D01*
X148637500Y-88940000D02*
X147987500Y-88940000D01*
%TO.C,JP4*%
X149900000Y-115500000D02*
X149900000Y-118300000D01*
X147900000Y-115500000D02*
X149900000Y-115500000D01*
X149900000Y-118300000D02*
X147900000Y-118300000D01*
X147900000Y-118300000D02*
X147900000Y-115500000D01*
D14*
%TO.C,Y1*%
X165100000Y-100820000D02*
X165100000Y-101880000D01*
X166520000Y-98850000D02*
X166880000Y-98850000D01*
X166520000Y-103850000D02*
X166880000Y-103850000D01*
X168300000Y-100820000D02*
X168300000Y-101880000D01*
D11*
X164350000Y-99500000D02*
G75*
G03*
X164350000Y-99500000I-100000J0D01*
G01*
D12*
%TO.C,J4*%
X144490000Y-86505000D02*
X144490000Y-85175000D01*
X145820000Y-86505000D02*
X144490000Y-86505000D01*
X147090000Y-86505000D02*
X152230000Y-86505000D01*
X147090000Y-86505000D02*
X147090000Y-83905000D01*
X152230000Y-86505000D02*
X152230000Y-81305000D01*
X144490000Y-83905000D02*
X144490000Y-81305000D01*
X147090000Y-83905000D02*
X144490000Y-83905000D01*
X144490000Y-81305000D02*
X152230000Y-81305000D01*
D14*
%TO.C,J2*%
X137375000Y-95050000D02*
X137605000Y-95050000D01*
X137375000Y-95050000D02*
X137375000Y-102650000D01*
X137375000Y-102650000D02*
X137605000Y-102650000D01*
D11*
X142975000Y-97550000D02*
G75*
G03*
X142975000Y-97550000I-100000J0D01*
G01*
D12*
%TO.C,J17*%
X152500000Y-105300000D02*
G75*
G03*
X152500000Y-105300000I-700000J0D01*
G01*
%TO.C,J10*%
X167100000Y-106500000D02*
G75*
G03*
X167100000Y-106500000I-700000J0D01*
G01*
%TO.C,J7*%
X140205000Y-119490000D02*
X140205000Y-118160000D01*
X140205000Y-119490000D02*
X139635000Y-119490000D01*
X140205000Y-118160000D02*
X139182530Y-118160000D01*
X138875000Y-120885000D02*
X137545000Y-120885000D01*
X138567470Y-118160000D02*
X137545000Y-118160000D01*
X138115000Y-119490000D02*
X137545000Y-119490000D01*
X137545000Y-120885000D02*
X137545000Y-120125000D01*
X137545000Y-119490000D02*
X137545000Y-118160000D01*
%TO.C,R3*%
X148165000Y-113227064D02*
X148165000Y-112772936D01*
X149635000Y-113227064D02*
X149635000Y-112772936D01*
%TO.C,C18*%
X164111252Y-112085000D02*
X163588748Y-112085000D01*
X164111252Y-110615000D02*
X163588748Y-110615000D01*
%TO.C,C12*%
X143988748Y-112480000D02*
X144511252Y-112480000D01*
X143988748Y-113950000D02*
X144511252Y-113950000D01*
D10*
%TO.C,U5*%
X153600000Y-108450000D02*
X154125000Y-108450000D01*
X153600000Y-112750000D02*
X153600000Y-112225000D01*
X153600000Y-112750000D02*
X154125000Y-112750000D01*
X157900000Y-108450000D02*
X157375000Y-108450000D01*
X157900000Y-108450000D02*
X157900000Y-108975000D01*
X157900000Y-112750000D02*
X157375000Y-112750000D01*
X157900000Y-112750000D02*
X157900000Y-112225000D01*
D12*
%TO.C,J18*%
X152500000Y-107500000D02*
G75*
G03*
X152500000Y-107500000I-700000J0D01*
G01*
%TO.C,R1*%
X163239564Y-109835000D02*
X162785436Y-109835000D01*
X163239564Y-108365000D02*
X162785436Y-108365000D01*
%TO.C,JP3*%
X166900000Y-112950000D02*
X166900000Y-110150000D01*
X168900000Y-112950000D02*
X166900000Y-112950000D01*
X166900000Y-110150000D02*
X168900000Y-110150000D01*
X168900000Y-110150000D02*
X168900000Y-112950000D01*
%TO.C,R6*%
X148865000Y-109139564D02*
X148865000Y-108685436D01*
X150335000Y-109139564D02*
X150335000Y-108685436D01*
%TO.C,J12*%
X165000000Y-122200000D02*
G75*
G03*
X165000000Y-122200000I-700000J0D01*
G01*
%TO.C,R9*%
X167285436Y-113565000D02*
X167739564Y-113565000D01*
X167285436Y-115035000D02*
X167739564Y-115035000D01*
%TO.C,C17*%
X163588748Y-115865000D02*
X164111252Y-115865000D01*
X163588748Y-117335000D02*
X164111252Y-117335000D01*
%TO.C,J20*%
X157210000Y-120870000D02*
X152070000Y-120870000D01*
X157210000Y-120870000D02*
X157210000Y-123530000D01*
X152070000Y-120870000D02*
X152070000Y-123530000D01*
X159810000Y-122200000D02*
X159810000Y-123530000D01*
X159810000Y-123530000D02*
X158480000Y-123530000D01*
X157210000Y-123530000D02*
X152070000Y-123530000D01*
%TO.C,J14*%
X159800000Y-88300000D02*
G75*
G03*
X159800000Y-88300000I-700000J0D01*
G01*
%TO.C,R2*%
X148414564Y-102835000D02*
X147960436Y-102835000D01*
X148414564Y-101365000D02*
X147960436Y-101365000D01*
%TO.C,J6*%
X166395000Y-89985000D02*
X166395000Y-91315000D01*
X166395000Y-89985000D02*
X166965000Y-89985000D01*
X166395000Y-91315000D02*
X167417470Y-91315000D01*
X167725000Y-88590000D02*
X169055000Y-88590000D01*
X168032530Y-91315000D02*
X169055000Y-91315000D01*
X168485000Y-89985000D02*
X169055000Y-89985000D01*
X169055000Y-88590000D02*
X169055000Y-89350000D01*
X169055000Y-89985000D02*
X169055000Y-91315000D01*
%TO.C,R5*%
X146765000Y-109139564D02*
X146765000Y-108685436D01*
X148235000Y-109139564D02*
X148235000Y-108685436D01*
%TO.C,J3*%
X148470000Y-123530000D02*
X151070000Y-123530000D01*
X148470000Y-123530000D02*
X148470000Y-120870000D01*
X151070000Y-123530000D02*
X151070000Y-120870000D01*
X145870000Y-122200000D02*
X145870000Y-120870000D01*
X145870000Y-120870000D02*
X147200000Y-120870000D01*
X148470000Y-120870000D02*
X151070000Y-120870000D01*
%TO.C,R4*%
X163239564Y-107835000D02*
X162785436Y-107835000D01*
X163239564Y-106365000D02*
X162785436Y-106365000D01*
%TO.C,R8*%
X153027064Y-115285000D02*
X152572936Y-115285000D01*
X153027064Y-113815000D02*
X152572936Y-113815000D01*
%TO.C,Q5*%
X152662500Y-120210000D02*
X154337500Y-120210000D01*
X152662500Y-120210000D02*
X152012500Y-120210000D01*
X152662500Y-117090000D02*
X153312500Y-117090000D01*
X152662500Y-117090000D02*
X152012500Y-117090000D01*
%TO.C,U3*%
X145400000Y-100760000D02*
X147200000Y-100760000D01*
X145400000Y-100760000D02*
X144600000Y-100760000D01*
X145400000Y-97640000D02*
X146200000Y-97640000D01*
X145400000Y-97640000D02*
X144600000Y-97640000D01*
%TO.C,J1*%
X169130000Y-119765000D02*
X169130000Y-118435000D01*
X169130000Y-119765000D02*
X168560000Y-119765000D01*
X169130000Y-118435000D02*
X168107530Y-118435000D01*
X167800000Y-121160000D02*
X166470000Y-121160000D01*
X167492470Y-118435000D02*
X166470000Y-118435000D01*
X167040000Y-119765000D02*
X166470000Y-119765000D01*
X166470000Y-121160000D02*
X166470000Y-120400000D01*
X166470000Y-119765000D02*
X166470000Y-118435000D01*
%TO.C,U1*%
X145810000Y-110015000D02*
X145810000Y-108215000D01*
X145810000Y-110015000D02*
X145810000Y-110815000D01*
X142690000Y-110015000D02*
X142690000Y-109215000D01*
X142690000Y-110015000D02*
X142690000Y-110815000D01*
%TD*%
M02*
