%TF.GenerationSoftware,KiCad,Pcbnew,7.0.6-1.fc38*%
%TF.CreationDate,2023-08-03T18:28:49+02:00*%
%TF.ProjectId,quadcopter-flight-controler,71756164-636f-4707-9465-722d666c6967,rev?*%
%TF.SameCoordinates,Original*%
%TF.FileFunction,Paste,Bot*%
%TF.FilePolarity,Positive*%
%FSLAX46Y46*%
G04 Gerber Fmt 4.6, Leading zero omitted, Abs format (unit mm)*
G04 Created by KiCad (PCBNEW 7.0.6-1.fc38) date 2023-08-03 18:28:49*
%MOMM*%
%LPD*%
G01*
G04 APERTURE LIST*
G04 Aperture macros list*
%AMRoundRect*
0 Rectangle with rounded corners*
0 $1 Rounding radius*
0 $2 $3 $4 $5 $6 $7 $8 $9 X,Y pos of 4 corners*
0 Add a 4 corners polygon primitive as box body*
4,1,4,$2,$3,$4,$5,$6,$7,$8,$9,$2,$3,0*
0 Add four circle primitives for the rounded corners*
1,1,$1+$1,$2,$3*
1,1,$1+$1,$4,$5*
1,1,$1+$1,$6,$7*
1,1,$1+$1,$8,$9*
0 Add four rect primitives between the rounded corners*
20,1,$1+$1,$2,$3,$4,$5,0*
20,1,$1+$1,$4,$5,$6,$7,0*
20,1,$1+$1,$6,$7,$8,$9,0*
20,1,$1+$1,$8,$9,$2,$3,0*%
G04 Aperture macros list end*
%ADD10RoundRect,0.250000X0.450000X-0.262500X0.450000X0.262500X-0.450000X0.262500X-0.450000X-0.262500X0*%
%ADD11RoundRect,0.250000X-0.262500X-0.450000X0.262500X-0.450000X0.262500X0.450000X-0.262500X0.450000X0*%
%ADD12RoundRect,0.250000X0.300000X0.300000X-0.300000X0.300000X-0.300000X-0.300000X0.300000X-0.300000X0*%
%ADD13RoundRect,0.250000X-0.250000X-0.475000X0.250000X-0.475000X0.250000X0.475000X-0.250000X0.475000X0*%
%ADD14RoundRect,0.250000X-0.325000X-0.650000X0.325000X-0.650000X0.325000X0.650000X-0.325000X0.650000X0*%
%ADD15RoundRect,0.250000X0.262500X0.450000X-0.262500X0.450000X-0.262500X-0.450000X0.262500X-0.450000X0*%
%ADD16RoundRect,0.150000X0.587500X0.150000X-0.587500X0.150000X-0.587500X-0.150000X0.587500X-0.150000X0*%
%ADD17RoundRect,0.250000X-0.300000X-0.300000X0.300000X-0.300000X0.300000X0.300000X-0.300000X0.300000X0*%
%ADD18RoundRect,0.250000X-0.475000X0.250000X-0.475000X-0.250000X0.475000X-0.250000X0.475000X0.250000X0*%
%ADD19RoundRect,0.250000X-0.450000X0.262500X-0.450000X-0.262500X0.450000X-0.262500X0.450000X0.262500X0*%
%ADD20RoundRect,0.250000X0.475000X-0.250000X0.475000X0.250000X-0.475000X0.250000X-0.475000X-0.250000X0*%
%ADD21RoundRect,0.150000X-0.587500X-0.150000X0.587500X-0.150000X0.587500X0.150000X-0.587500X0.150000X0*%
G04 APERTURE END LIST*
D10*
%TO.C,R17*%
X145200000Y-120312500D03*
X145200000Y-118487500D03*
%TD*%
D11*
%TO.C,R10*%
X161797500Y-116500000D03*
X163622500Y-116500000D03*
%TD*%
D12*
%TO.C,D4*%
X168137500Y-92950000D03*
X165337500Y-92950000D03*
%TD*%
%TO.C,D2*%
X168210000Y-116300000D03*
X165410000Y-116300000D03*
%TD*%
D10*
%TO.C,R13*%
X145200000Y-90862500D03*
X145200000Y-89037500D03*
%TD*%
D13*
%TO.C,C4*%
X155000000Y-93700000D03*
X156900000Y-93700000D03*
%TD*%
D14*
%TO.C,C8*%
X163225000Y-95400000D03*
X166175000Y-95400000D03*
%TD*%
D15*
%TO.C,R16*%
X145012500Y-122200000D03*
X143187500Y-122200000D03*
%TD*%
D16*
%TO.C,Q2*%
X143075000Y-89000000D03*
X143075000Y-90900000D03*
X141200000Y-89950000D03*
%TD*%
D17*
%TO.C,D3*%
X138500000Y-93000000D03*
X141300000Y-93000000D03*
%TD*%
D18*
%TO.C,C7*%
X163800000Y-97500000D03*
X163800000Y-99400000D03*
%TD*%
D19*
%TO.C,R15*%
X161300000Y-88900000D03*
X161300000Y-90725000D03*
%TD*%
D18*
%TO.C,C5*%
X161800000Y-103800000D03*
X161800000Y-105700000D03*
%TD*%
D17*
%TO.C,D5*%
X138400000Y-116300000D03*
X141200000Y-116300000D03*
%TD*%
D18*
%TO.C,C3*%
X163900000Y-102600000D03*
X163900000Y-104500000D03*
%TD*%
D10*
%TO.C,R19*%
X151800000Y-94325000D03*
X151800000Y-92500000D03*
%TD*%
D18*
%TO.C,C6*%
X165800000Y-97500000D03*
X165800000Y-99400000D03*
%TD*%
D15*
%TO.C,R12*%
X145312500Y-92700000D03*
X143487500Y-92700000D03*
%TD*%
D19*
%TO.C,R11*%
X161347500Y-118537500D03*
X161347500Y-120362500D03*
%TD*%
D16*
%TO.C,Q4*%
X143137500Y-118450000D03*
X143137500Y-120350000D03*
X141262500Y-119400000D03*
%TD*%
D20*
%TO.C,C19*%
X151200000Y-102300000D03*
X151200000Y-100400000D03*
%TD*%
D11*
%TO.C,R14*%
X161587500Y-87000000D03*
X163412500Y-87000000D03*
%TD*%
D21*
%TO.C,Q1*%
X163510000Y-120350000D03*
X163510000Y-118450000D03*
X165385000Y-119400000D03*
%TD*%
%TO.C,Q3*%
X163400000Y-90800000D03*
X163400000Y-88900000D03*
X165275000Y-89850000D03*
%TD*%
M02*
