%TF.GenerationSoftware,KiCad,Pcbnew,7.0.6-1.fc38*%
%TF.CreationDate,2023-08-03T18:28:49+02:00*%
%TF.ProjectId,quadcopter-flight-controler,71756164-636f-4707-9465-722d666c6967,rev?*%
%TF.SameCoordinates,Original*%
%TF.FileFunction,Copper,L3,Inr*%
%TF.FilePolarity,Positive*%
%FSLAX46Y46*%
G04 Gerber Fmt 4.6, Leading zero omitted, Abs format (unit mm)*
G04 Created by KiCad (PCBNEW 7.0.6-1.fc38) date 2023-08-03 18:28:49*
%MOMM*%
%LPD*%
G01*
G04 APERTURE LIST*
%TA.AperFunction,ComponentPad*%
%ADD10R,1.700000X1.700000*%
%TD*%
%TA.AperFunction,ComponentPad*%
%ADD11O,1.700000X1.700000*%
%TD*%
%TA.AperFunction,ComponentPad*%
%ADD12R,1.000000X1.000000*%
%TD*%
%TA.AperFunction,ComponentPad*%
%ADD13O,1.000000X1.000000*%
%TD*%
%TA.AperFunction,ComponentPad*%
%ADD14O,1.800000X0.900000*%
%TD*%
%TA.AperFunction,ViaPad*%
%ADD15C,0.800000*%
%TD*%
G04 APERTURE END LIST*
D10*
%TO.N,GND*%
%TO.C,J8*%
X162320000Y-82600000D03*
D11*
%TO.N,/OUT_PB1*%
X162320000Y-85140000D03*
%TO.N,/SPI_SCK*%
X159780000Y-82600000D03*
%TO.N,/SPI_MISO*%
X159780000Y-85140000D03*
%TO.N,/GPIO_EXTI4*%
X157240000Y-82600000D03*
%TO.N,/SPI_MOSI*%
X157240000Y-85140000D03*
%TO.N,/OUT_PB2*%
X154700000Y-82600000D03*
%TO.N,VDD*%
X154700000Y-85140000D03*
%TD*%
D12*
%TO.N,Net-(D3-A)*%
%TO.C,J5*%
X138800000Y-89450000D03*
D13*
%TO.N,VDC*%
X138800000Y-90720000D03*
%TD*%
D12*
%TO.N,VDD*%
%TO.C,J9*%
X138900000Y-84600000D03*
D13*
%TO.N,Net-(J9-Pin_2)*%
X138900000Y-85870000D03*
%TD*%
D11*
%TO.N,VDD*%
%TO.C,J4*%
X150900000Y-85175000D03*
%TO.N,/SWDIO*%
X150900000Y-82635000D03*
%TO.N,/RST*%
X148360000Y-85175000D03*
%TO.N,/SWCLK*%
X148360000Y-82635000D03*
D10*
%TO.N,GND*%
X145820000Y-85175000D03*
D11*
%TO.N,unconnected-(J4-SWO-Pad6)*%
X145820000Y-82635000D03*
%TD*%
D14*
%TO.N,unconnected-(J2-SHIELD-PadS1)*%
%TO.C,J2*%
X138825000Y-95550000D03*
X138825000Y-102150000D03*
%TD*%
D12*
%TO.N,Net-(D5-A)*%
%TO.C,J7*%
X138875000Y-120125000D03*
D13*
%TO.N,VDC*%
X138875000Y-118855000D03*
%TD*%
D10*
%TO.N,+5V*%
%TO.C,J20*%
X158480000Y-122200000D03*
D11*
%TO.N,VDC*%
X155940000Y-122200000D03*
%TO.N,+BATT*%
X153400000Y-122200000D03*
%TD*%
D12*
%TO.N,Net-(D4-A)*%
%TO.C,J6*%
X167725000Y-89350000D03*
D13*
%TO.N,VDC*%
X167725000Y-90620000D03*
%TD*%
D10*
%TO.N,-BATT*%
%TO.C,J3*%
X147200000Y-122200000D03*
D11*
%TO.N,+BATT*%
X149740000Y-122200000D03*
%TD*%
D12*
%TO.N,Net-(D2-A)*%
%TO.C,J1*%
X167800000Y-120400000D03*
D13*
%TO.N,VDC*%
X167800000Y-119130000D03*
%TD*%
D15*
%TO.N,VDD*%
X155000000Y-93700000D03*
X161100000Y-123500000D03*
X168000000Y-110900000D03*
X163925000Y-107100000D03*
X164900000Y-109100000D03*
X149100000Y-101000000D03*
X159700000Y-111400000D03*
X160100000Y-113500000D03*
X161800000Y-103800000D03*
X151200000Y-102300000D03*
X147500000Y-106000000D03*
X150600000Y-112500000D03*
X149600000Y-108000000D03*
X143300000Y-104615000D03*
X163800000Y-97500000D03*
X148900000Y-117600000D03*
X161900000Y-114700000D03*
X163900000Y-102600000D03*
X164800000Y-111350000D03*
%TO.N,GND*%
X165500000Y-123500000D03*
X149587500Y-105912500D03*
X156900000Y-93700000D03*
X161800000Y-111300000D03*
X150600000Y-111000000D03*
X167400000Y-99500000D03*
X166200000Y-95400000D03*
X145200000Y-113200000D03*
X163800000Y-99400000D03*
X155100000Y-118400000D03*
X165600000Y-103200000D03*
X150200000Y-100800000D03*
X156100000Y-118400000D03*
X142700000Y-100200000D03*
X145200000Y-106815000D03*
X148000000Y-89500000D03*
X148900000Y-112100000D03*
X157900000Y-114550000D03*
X149900000Y-96100000D03*
X149000000Y-99200000D03*
X147500000Y-108000000D03*
X161800000Y-105700000D03*
X150800000Y-114500000D03*
X168425000Y-114300000D03*
X163900000Y-104500000D03*
X159700000Y-109500000D03*
%TO.N,/RST*%
X154800000Y-98900000D03*
%TO.N,VDC*%
X147650000Y-114900000D03*
X138400000Y-116300000D03*
X168200000Y-117700000D03*
%TO.N,/SWDIO*%
X156100000Y-99900000D03*
%TO.N,/SWCLK*%
X157200000Y-99800000D03*
%TO.N,+5V*%
X144300000Y-96200000D03*
X142950000Y-117250000D03*
X141500000Y-123100000D03*
%TO.N,/BOOT0*%
X158500000Y-99700000D03*
X152700000Y-104000000D03*
X148500000Y-110800000D03*
X150800000Y-109000000D03*
%TO.N,/SPI_MOSI*%
X158400000Y-90300000D03*
X158370023Y-91929977D03*
%TO.N,/I2C_SDA*%
X153600000Y-108300000D03*
X160000000Y-101200000D03*
%TO.N,/PB5_EXTI5*%
X158000000Y-113000000D03*
X157800000Y-102500000D03*
%TO.N,-BATT*%
X143187500Y-122200000D03*
X163412500Y-87000000D03*
X163500000Y-119300000D03*
X163400000Y-92000000D03*
%TO.N,/TM2_CH1*%
X152800000Y-115600000D03*
X155700000Y-102100000D03*
X145200000Y-120312500D03*
%TO.N,/TM2_CH2*%
X156800000Y-102100000D03*
%TO.N,/TM2_CH3*%
X160100000Y-97600000D03*
%TO.N,/TM2_CH4*%
X145312500Y-92700000D03*
%TO.N,/OUT_PB1*%
X158300000Y-97600000D03*
%TO.N,Net-(Q6-B)*%
X151800000Y-92500000D03*
%TO.N,/GPIO_PB13*%
X151700000Y-98400000D03*
%TD*%
%TA.AperFunction,Conductor*%
%TO.N,VDD*%
G36*
X168302424Y-80210741D02*
G01*
X168325313Y-80212543D01*
X168468635Y-80226659D01*
X168477026Y-80228072D01*
X168501461Y-80233939D01*
X168536664Y-80242391D01*
X168540179Y-80243344D01*
X168641260Y-80274007D01*
X168646984Y-80276054D01*
X168661615Y-80282115D01*
X168707967Y-80301315D01*
X168713470Y-80303918D01*
X168730620Y-80313085D01*
X168806648Y-80353722D01*
X168809771Y-80355512D01*
X168862073Y-80387563D01*
X168869006Y-80392496D01*
X168978371Y-80482250D01*
X168980354Y-80483877D01*
X168992226Y-80494017D01*
X169005982Y-80507773D01*
X169016122Y-80519645D01*
X169107496Y-80630984D01*
X169112434Y-80637921D01*
X169136965Y-80677953D01*
X169144478Y-80690213D01*
X169146294Y-80693382D01*
X169196080Y-80786528D01*
X169198683Y-80792031D01*
X169223939Y-80853004D01*
X169225990Y-80858736D01*
X169256656Y-80959829D01*
X169257613Y-80963353D01*
X169271922Y-81022956D01*
X169273338Y-81031362D01*
X169287460Y-81174736D01*
X169289258Y-81197577D01*
X169289449Y-81202443D01*
X169289449Y-113591260D01*
X169269764Y-113658299D01*
X169216960Y-113704054D01*
X169147802Y-113713998D01*
X169084246Y-113684973D01*
X169073300Y-113674233D01*
X169030871Y-113627112D01*
X169030870Y-113627111D01*
X168877734Y-113515851D01*
X168877729Y-113515848D01*
X168704807Y-113438857D01*
X168704802Y-113438855D01*
X168559001Y-113407865D01*
X168519646Y-113399500D01*
X168330354Y-113399500D01*
X168297897Y-113406398D01*
X168145197Y-113438855D01*
X168145192Y-113438857D01*
X167972270Y-113515848D01*
X167972265Y-113515851D01*
X167819129Y-113627111D01*
X167692466Y-113767785D01*
X167597821Y-113931715D01*
X167597818Y-113931722D01*
X167555767Y-114061144D01*
X167539326Y-114111744D01*
X167519540Y-114300000D01*
X167539326Y-114488256D01*
X167539327Y-114488259D01*
X167597818Y-114668277D01*
X167597821Y-114668284D01*
X167692467Y-114832216D01*
X167776701Y-114925767D01*
X167819129Y-114972888D01*
X167972265Y-115084148D01*
X167972270Y-115084151D01*
X168145192Y-115161142D01*
X168145197Y-115161144D01*
X168330354Y-115200500D01*
X168330355Y-115200500D01*
X168519644Y-115200500D01*
X168519646Y-115200500D01*
X168704803Y-115161144D01*
X168877730Y-115084151D01*
X169030871Y-114972888D01*
X169073299Y-114925766D01*
X169132786Y-114889118D01*
X169202643Y-114890449D01*
X169260691Y-114929335D01*
X169288501Y-114993432D01*
X169289449Y-115008739D01*
X169289449Y-117355993D01*
X169269764Y-117423032D01*
X169216960Y-117468787D01*
X169147802Y-117478731D01*
X169084246Y-117449706D01*
X169047518Y-117394312D01*
X169027180Y-117331719D01*
X169027179Y-117331718D01*
X169027179Y-117331716D01*
X168932533Y-117167784D01*
X168805871Y-117027112D01*
X168805870Y-117027111D01*
X168652734Y-116915851D01*
X168652729Y-116915848D01*
X168479807Y-116838857D01*
X168479802Y-116838855D01*
X168334000Y-116807865D01*
X168294646Y-116799500D01*
X168105354Y-116799500D01*
X168072897Y-116806398D01*
X167920197Y-116838855D01*
X167920192Y-116838857D01*
X167747270Y-116915848D01*
X167747265Y-116915851D01*
X167594129Y-117027111D01*
X167467466Y-117167785D01*
X167372821Y-117331715D01*
X167372818Y-117331722D01*
X167318304Y-117499500D01*
X167314326Y-117511744D01*
X167294540Y-117700000D01*
X167314326Y-117888256D01*
X167314327Y-117888259D01*
X167372818Y-118068277D01*
X167372819Y-118068279D01*
X167372821Y-118068284D01*
X167377405Y-118076224D01*
X167393878Y-118144123D01*
X167371026Y-118210150D01*
X167328472Y-118247581D01*
X167241464Y-118294088D01*
X167241460Y-118294090D01*
X167089116Y-118419116D01*
X166964090Y-118571460D01*
X166964086Y-118571467D01*
X166871188Y-118745266D01*
X166813975Y-118933870D01*
X166794659Y-119130000D01*
X166813975Y-119326129D01*
X166871187Y-119514729D01*
X166872321Y-119516850D01*
X166872580Y-119518094D01*
X166873518Y-119520359D01*
X166873088Y-119520536D01*
X166886564Y-119585253D01*
X166862233Y-119649614D01*
X166856205Y-119657666D01*
X166856202Y-119657671D01*
X166805908Y-119792517D01*
X166799501Y-119852116D01*
X166799501Y-119852123D01*
X166799500Y-119852135D01*
X166799500Y-120947870D01*
X166799501Y-120947876D01*
X166805908Y-121007483D01*
X166856202Y-121142328D01*
X166856206Y-121142335D01*
X166942452Y-121257544D01*
X166942455Y-121257547D01*
X167057664Y-121343793D01*
X167057671Y-121343797D01*
X167192517Y-121394091D01*
X167192516Y-121394091D01*
X167199444Y-121394835D01*
X167252127Y-121400500D01*
X168347872Y-121400499D01*
X168407483Y-121394091D01*
X168542331Y-121343796D01*
X168657546Y-121257546D01*
X168743796Y-121142331D01*
X168794091Y-121007483D01*
X168800500Y-120947873D01*
X168800499Y-119852128D01*
X168794091Y-119792517D01*
X168789528Y-119780284D01*
X168747755Y-119668284D01*
X168743796Y-119657669D01*
X168737767Y-119649615D01*
X168713351Y-119584154D01*
X168726895Y-119520525D01*
X168726483Y-119520355D01*
X168727406Y-119518124D01*
X168727677Y-119516853D01*
X168728814Y-119514727D01*
X168786024Y-119326132D01*
X168805341Y-119130000D01*
X168786024Y-118933868D01*
X168728814Y-118745273D01*
X168665656Y-118627112D01*
X168657925Y-118612648D01*
X168643683Y-118544245D01*
X168668683Y-118479002D01*
X168694391Y-118453882D01*
X168805871Y-118372888D01*
X168932533Y-118232216D01*
X169027179Y-118068284D01*
X169043163Y-118019090D01*
X169047518Y-118005688D01*
X169086955Y-117948012D01*
X169151314Y-117920814D01*
X169220160Y-117932729D01*
X169271636Y-117979973D01*
X169289449Y-118044006D01*
X169289449Y-123197558D01*
X169289258Y-123202424D01*
X169287460Y-123225270D01*
X169273340Y-123368627D01*
X169271924Y-123377033D01*
X169257607Y-123436664D01*
X169256651Y-123440189D01*
X169225991Y-123541260D01*
X169223940Y-123546993D01*
X169198683Y-123607967D01*
X169196080Y-123613470D01*
X169146294Y-123706616D01*
X169144478Y-123709785D01*
X169112440Y-123762068D01*
X169107496Y-123769014D01*
X169016122Y-123880354D01*
X169005983Y-123892225D01*
X168992225Y-123905983D01*
X168980354Y-123916122D01*
X168869014Y-124007496D01*
X168862068Y-124012440D01*
X168809785Y-124044478D01*
X168806616Y-124046294D01*
X168713470Y-124096080D01*
X168707967Y-124098683D01*
X168646994Y-124123939D01*
X168641262Y-124125990D01*
X168540169Y-124156656D01*
X168536645Y-124157613D01*
X168477042Y-124171922D01*
X168468636Y-124173338D01*
X168325266Y-124187460D01*
X168317153Y-124188098D01*
X168302415Y-124189258D01*
X168297568Y-124189449D01*
X166356529Y-124189449D01*
X166289490Y-124169764D01*
X166243735Y-124116960D01*
X166233791Y-124047802D01*
X166249142Y-124003450D01*
X166327176Y-123868289D01*
X166327175Y-123868289D01*
X166327179Y-123868284D01*
X166385674Y-123688256D01*
X166405460Y-123500000D01*
X166385674Y-123311744D01*
X166327179Y-123131716D01*
X166232533Y-122967784D01*
X166105871Y-122827112D01*
X166105870Y-122827111D01*
X166068555Y-122800000D01*
X166794659Y-122800000D01*
X166813975Y-122996129D01*
X166813976Y-122996132D01*
X166842011Y-123088552D01*
X166871188Y-123184733D01*
X166964086Y-123358532D01*
X166964090Y-123358539D01*
X167089116Y-123510883D01*
X167241460Y-123635909D01*
X167241467Y-123635913D01*
X167304231Y-123669461D01*
X167415273Y-123728814D01*
X167445937Y-123738116D01*
X167449436Y-123739294D01*
X167451796Y-123740168D01*
X167451799Y-123740170D01*
X167458005Y-123741776D01*
X167603868Y-123786024D01*
X167634662Y-123789056D01*
X167641911Y-123790344D01*
X167641955Y-123790063D01*
X167648178Y-123791016D01*
X167648182Y-123791017D01*
X167656787Y-123791453D01*
X167656805Y-123791459D01*
X167659946Y-123791618D01*
X167662861Y-123791834D01*
X167800000Y-123805341D01*
X167835203Y-123801873D01*
X167844500Y-123801653D01*
X167844498Y-123801610D01*
X167850766Y-123801291D01*
X167850780Y-123801292D01*
X167851208Y-123801226D01*
X167866546Y-123798877D01*
X167869846Y-123798461D01*
X167996132Y-123786024D01*
X168034291Y-123774448D01*
X168050809Y-123770699D01*
X168051290Y-123770574D01*
X168051299Y-123770573D01*
X168068703Y-123764127D01*
X168072227Y-123762940D01*
X168184727Y-123728814D01*
X168227653Y-123705869D01*
X168235333Y-123702415D01*
X168247671Y-123697846D01*
X168249294Y-123697733D01*
X168253361Y-123695739D01*
X168270806Y-123689278D01*
X168295763Y-123669463D01*
X168358538Y-123635910D01*
X168399629Y-123602186D01*
X168406133Y-123597521D01*
X168413096Y-123593181D01*
X168416523Y-123592226D01*
X168424385Y-123586141D01*
X168438415Y-123577395D01*
X168457847Y-123554407D01*
X168510883Y-123510883D01*
X168544967Y-123469351D01*
X168553340Y-123463647D01*
X168553512Y-123463401D01*
X168569861Y-123444357D01*
X168580284Y-123434448D01*
X168593949Y-123409667D01*
X168635910Y-123358538D01*
X168661697Y-123310293D01*
X168670069Y-123301769D01*
X168671629Y-123298136D01*
X168683806Y-123276197D01*
X168690791Y-123266160D01*
X168698745Y-123240980D01*
X168728814Y-123184727D01*
X168745082Y-123131098D01*
X168752588Y-123119642D01*
X168754058Y-123112494D01*
X168761570Y-123088552D01*
X168765511Y-123079366D01*
X168768148Y-123055058D01*
X168786024Y-122996132D01*
X168793116Y-122924122D01*
X168794083Y-122917739D01*
X168797435Y-122901429D01*
X168797435Y-122901426D01*
X168801518Y-122881560D01*
X168799506Y-122859240D01*
X168805341Y-122800000D01*
X168799506Y-122740759D01*
X168802673Y-122724058D01*
X168794085Y-122682270D01*
X168793114Y-122675860D01*
X168786024Y-122603868D01*
X168784699Y-122599500D01*
X168768149Y-122544945D01*
X168767984Y-122526392D01*
X168761570Y-122511446D01*
X168754058Y-122487506D01*
X168753519Y-122484885D01*
X168745083Y-122468904D01*
X168728814Y-122415273D01*
X168728813Y-122415272D01*
X168728813Y-122415270D01*
X168698746Y-122359019D01*
X168694660Y-122339395D01*
X168683807Y-122323802D01*
X168671691Y-122301974D01*
X168661696Y-122289705D01*
X168635910Y-122241462D01*
X168593947Y-122190331D01*
X168585547Y-122170551D01*
X168569858Y-122155638D01*
X168556720Y-122140334D01*
X168544964Y-122130645D01*
X168510882Y-122089115D01*
X168457848Y-122045591D01*
X168444973Y-122026689D01*
X168424384Y-122013856D01*
X168418403Y-122009226D01*
X168413073Y-122006804D01*
X168406145Y-122002485D01*
X168399611Y-121997798D01*
X168358538Y-121964090D01*
X168358537Y-121964089D01*
X168358532Y-121964085D01*
X168295761Y-121930534D01*
X168278483Y-121913562D01*
X168253359Y-121904258D01*
X168250287Y-121902751D01*
X168247673Y-121902152D01*
X168235330Y-121897582D01*
X168227624Y-121894115D01*
X168184726Y-121871185D01*
X168072253Y-121837066D01*
X168068721Y-121835878D01*
X168051295Y-121829425D01*
X168050874Y-121829316D01*
X168034276Y-121825547D01*
X167996130Y-121813975D01*
X167869867Y-121801539D01*
X167866555Y-121801123D01*
X167850804Y-121798709D01*
X167844504Y-121798390D01*
X167844506Y-121798347D01*
X167835205Y-121798125D01*
X167800003Y-121794659D01*
X167799999Y-121794659D01*
X167662932Y-121808157D01*
X167660014Y-121808375D01*
X167656830Y-121808537D01*
X167656797Y-121808546D01*
X167648177Y-121808983D01*
X167641974Y-121809934D01*
X167641931Y-121809654D01*
X167634679Y-121810941D01*
X167603869Y-121813975D01*
X167458009Y-121858221D01*
X167451793Y-121859831D01*
X167449430Y-121860706D01*
X167445903Y-121861893D01*
X167415270Y-121871186D01*
X167241467Y-121964086D01*
X167241460Y-121964090D01*
X167089116Y-122089116D01*
X166964090Y-122241460D01*
X166964086Y-122241467D01*
X166871188Y-122415266D01*
X166813975Y-122603870D01*
X166794659Y-122800000D01*
X166068555Y-122800000D01*
X165952734Y-122715851D01*
X165952729Y-122715848D01*
X165779807Y-122638857D01*
X165779802Y-122638855D01*
X165634000Y-122607865D01*
X165594646Y-122599500D01*
X165405354Y-122599500D01*
X165372897Y-122606398D01*
X165220197Y-122638855D01*
X165220192Y-122638857D01*
X165047270Y-122715848D01*
X165047265Y-122715851D01*
X164894129Y-122827111D01*
X164767466Y-122967785D01*
X164672821Y-123131715D01*
X164672818Y-123131722D01*
X164617567Y-123301769D01*
X164614326Y-123311744D01*
X164594540Y-123500000D01*
X164614326Y-123688256D01*
X164614327Y-123688259D01*
X164672818Y-123868277D01*
X164672823Y-123868289D01*
X164750858Y-124003450D01*
X164767331Y-124071350D01*
X164744478Y-124137377D01*
X164689557Y-124180567D01*
X164643471Y-124189449D01*
X141850396Y-124189449D01*
X141783357Y-124169764D01*
X141737602Y-124116960D01*
X141727658Y-124047802D01*
X141756683Y-123984246D01*
X141799960Y-123952170D01*
X141915547Y-123900706D01*
X141952730Y-123884151D01*
X142105871Y-123772888D01*
X142232533Y-123632216D01*
X142327179Y-123468284D01*
X142385674Y-123288256D01*
X142405460Y-123100000D01*
X142394162Y-122992512D01*
X142406731Y-122923788D01*
X142454463Y-122872764D01*
X142522203Y-122855646D01*
X142588445Y-122877868D01*
X142590368Y-122879238D01*
X142734765Y-122984148D01*
X142734770Y-122984151D01*
X142907692Y-123061142D01*
X142907697Y-123061144D01*
X143092854Y-123100500D01*
X143092855Y-123100500D01*
X143282144Y-123100500D01*
X143282146Y-123100500D01*
X143467303Y-123061144D01*
X143640230Y-122984151D01*
X143793371Y-122872888D01*
X143920033Y-122732216D01*
X144014679Y-122568284D01*
X144073174Y-122388256D01*
X144092960Y-122200000D01*
X144073174Y-122011744D01*
X144014679Y-121831716D01*
X143920033Y-121667784D01*
X143793371Y-121527112D01*
X143793370Y-121527111D01*
X143640234Y-121415851D01*
X143640229Y-121415848D01*
X143467307Y-121338857D01*
X143467302Y-121338855D01*
X143306050Y-121304581D01*
X143282146Y-121299500D01*
X143092854Y-121299500D01*
X143068950Y-121304581D01*
X142907697Y-121338855D01*
X142907692Y-121338857D01*
X142734770Y-121415848D01*
X142734765Y-121415851D01*
X142581629Y-121527111D01*
X142454966Y-121667785D01*
X142360321Y-121831715D01*
X142360318Y-121831722D01*
X142317145Y-121964596D01*
X142301826Y-122011744D01*
X142288311Y-122140334D01*
X142282040Y-122200000D01*
X142293337Y-122307482D01*
X142280767Y-122376211D01*
X142233035Y-122427235D01*
X142165295Y-122444353D01*
X142099054Y-122422131D01*
X142097131Y-122420761D01*
X141952734Y-122315851D01*
X141952729Y-122315848D01*
X141779807Y-122238857D01*
X141779802Y-122238855D01*
X141634000Y-122207865D01*
X141594646Y-122199500D01*
X141405354Y-122199500D01*
X141372897Y-122206398D01*
X141220197Y-122238855D01*
X141220192Y-122238857D01*
X141047270Y-122315848D01*
X141047265Y-122315851D01*
X140894129Y-122427111D01*
X140767466Y-122567785D01*
X140672821Y-122731715D01*
X140672818Y-122731722D01*
X140614327Y-122911740D01*
X140614326Y-122911744D01*
X140605457Y-122996128D01*
X140594763Y-123097883D01*
X140594540Y-123100000D01*
X140614326Y-123288256D01*
X140614327Y-123288259D01*
X140672818Y-123468277D01*
X140672821Y-123468284D01*
X140767467Y-123632216D01*
X140866124Y-123741785D01*
X140894129Y-123772888D01*
X141047265Y-123884148D01*
X141047270Y-123884151D01*
X141200040Y-123952170D01*
X141253277Y-123997420D01*
X141273598Y-124064270D01*
X141254552Y-124131493D01*
X141202186Y-124177748D01*
X141149604Y-124189449D01*
X138302439Y-124189449D01*
X138297574Y-124189258D01*
X138274729Y-124187460D01*
X138131371Y-124173340D01*
X138122965Y-124171924D01*
X138063334Y-124157607D01*
X138059809Y-124156651D01*
X137958738Y-124125991D01*
X137953005Y-124123940D01*
X137892031Y-124098683D01*
X137886528Y-124096080D01*
X137813395Y-124056990D01*
X137793373Y-124046289D01*
X137790213Y-124044478D01*
X137770203Y-124032216D01*
X137737921Y-124012434D01*
X137730988Y-124007499D01*
X137619645Y-123916122D01*
X137607773Y-123905982D01*
X137594017Y-123892226D01*
X137583877Y-123880354D01*
X137582250Y-123878371D01*
X137492496Y-123769006D01*
X137487563Y-123762073D01*
X137455512Y-123709771D01*
X137453722Y-123706648D01*
X137403918Y-123613470D01*
X137401315Y-123607967D01*
X137376059Y-123546994D01*
X137374008Y-123541262D01*
X137353576Y-123473905D01*
X137343340Y-123440162D01*
X137342390Y-123436664D01*
X137328075Y-123377035D01*
X137326660Y-123368635D01*
X137326659Y-123368627D01*
X137312538Y-123225250D01*
X137310742Y-123202426D01*
X137310551Y-123197562D01*
X137310551Y-122800000D01*
X137794659Y-122800000D01*
X137813975Y-122996129D01*
X137813976Y-122996132D01*
X137842011Y-123088552D01*
X137871188Y-123184733D01*
X137964086Y-123358532D01*
X137964090Y-123358539D01*
X138089116Y-123510883D01*
X138241460Y-123635909D01*
X138241467Y-123635913D01*
X138304231Y-123669461D01*
X138415273Y-123728814D01*
X138445937Y-123738116D01*
X138449436Y-123739294D01*
X138451796Y-123740168D01*
X138451799Y-123740170D01*
X138458005Y-123741776D01*
X138603868Y-123786024D01*
X138634662Y-123789056D01*
X138641911Y-123790344D01*
X138641955Y-123790063D01*
X138648178Y-123791016D01*
X138648182Y-123791017D01*
X138656787Y-123791453D01*
X138656805Y-123791459D01*
X138659946Y-123791618D01*
X138662861Y-123791834D01*
X138800000Y-123805341D01*
X138835203Y-123801873D01*
X138844500Y-123801653D01*
X138844498Y-123801610D01*
X138850766Y-123801291D01*
X138850780Y-123801292D01*
X138851208Y-123801226D01*
X138866546Y-123798877D01*
X138869846Y-123798461D01*
X138996132Y-123786024D01*
X139034291Y-123774448D01*
X139050809Y-123770699D01*
X139051290Y-123770574D01*
X139051299Y-123770573D01*
X139068703Y-123764127D01*
X139072227Y-123762940D01*
X139184727Y-123728814D01*
X139227653Y-123705869D01*
X139235333Y-123702415D01*
X139247671Y-123697846D01*
X139249294Y-123697733D01*
X139253361Y-123695739D01*
X139270806Y-123689278D01*
X139295763Y-123669463D01*
X139358538Y-123635910D01*
X139399629Y-123602186D01*
X139406133Y-123597521D01*
X139413096Y-123593181D01*
X139416523Y-123592226D01*
X139424385Y-123586141D01*
X139438415Y-123577395D01*
X139457847Y-123554407D01*
X139510883Y-123510883D01*
X139544967Y-123469351D01*
X139553340Y-123463647D01*
X139553512Y-123463401D01*
X139569861Y-123444357D01*
X139580284Y-123434448D01*
X139593949Y-123409667D01*
X139635910Y-123358538D01*
X139661697Y-123310293D01*
X139670069Y-123301769D01*
X139671629Y-123298136D01*
X139683806Y-123276197D01*
X139690791Y-123266160D01*
X139698745Y-123240980D01*
X139728814Y-123184727D01*
X139745082Y-123131098D01*
X139752588Y-123119642D01*
X139754058Y-123112494D01*
X139761570Y-123088552D01*
X139765511Y-123079366D01*
X139768148Y-123055058D01*
X139786024Y-122996132D01*
X139793116Y-122924122D01*
X139794083Y-122917739D01*
X139797435Y-122901429D01*
X139797435Y-122901426D01*
X139801518Y-122881560D01*
X139799506Y-122859240D01*
X139805341Y-122800000D01*
X139799506Y-122740759D01*
X139802673Y-122724058D01*
X139794085Y-122682270D01*
X139793114Y-122675860D01*
X139786024Y-122603868D01*
X139784699Y-122599500D01*
X139768149Y-122544945D01*
X139767984Y-122526392D01*
X139761570Y-122511446D01*
X139754058Y-122487506D01*
X139753519Y-122484885D01*
X139745083Y-122468904D01*
X139728814Y-122415273D01*
X139728813Y-122415272D01*
X139728813Y-122415270D01*
X139698746Y-122359019D01*
X139694660Y-122339395D01*
X139683807Y-122323802D01*
X139671691Y-122301974D01*
X139661696Y-122289705D01*
X139635910Y-122241462D01*
X139593947Y-122190331D01*
X139585547Y-122170551D01*
X139569858Y-122155638D01*
X139556720Y-122140334D01*
X139544964Y-122130645D01*
X139510882Y-122089115D01*
X139457848Y-122045591D01*
X139444973Y-122026689D01*
X139424384Y-122013856D01*
X139418403Y-122009226D01*
X139413073Y-122006804D01*
X139406145Y-122002485D01*
X139399611Y-121997798D01*
X139358538Y-121964090D01*
X139358537Y-121964089D01*
X139358532Y-121964085D01*
X139295761Y-121930534D01*
X139278483Y-121913562D01*
X139253359Y-121904258D01*
X139250287Y-121902751D01*
X139247673Y-121902152D01*
X139235330Y-121897582D01*
X139227624Y-121894115D01*
X139184726Y-121871185D01*
X139072253Y-121837066D01*
X139068721Y-121835878D01*
X139051295Y-121829425D01*
X139050874Y-121829316D01*
X139034276Y-121825547D01*
X138996130Y-121813975D01*
X138869867Y-121801539D01*
X138866555Y-121801123D01*
X138850804Y-121798709D01*
X138844504Y-121798390D01*
X138844506Y-121798347D01*
X138835205Y-121798125D01*
X138800003Y-121794659D01*
X138799999Y-121794659D01*
X138662932Y-121808157D01*
X138660014Y-121808375D01*
X138656830Y-121808537D01*
X138656797Y-121808546D01*
X138648177Y-121808983D01*
X138641974Y-121809934D01*
X138641931Y-121809654D01*
X138634679Y-121810941D01*
X138603869Y-121813975D01*
X138458009Y-121858221D01*
X138451793Y-121859831D01*
X138449430Y-121860706D01*
X138445903Y-121861893D01*
X138415270Y-121871186D01*
X138241467Y-121964086D01*
X138241460Y-121964090D01*
X138089116Y-122089116D01*
X137964090Y-122241460D01*
X137964086Y-122241467D01*
X137871188Y-122415266D01*
X137813975Y-122603870D01*
X137794659Y-122800000D01*
X137310551Y-122800000D01*
X137310551Y-118855000D01*
X137869659Y-118855000D01*
X137888975Y-119051129D01*
X137888976Y-119051132D01*
X137912900Y-119130000D01*
X137946187Y-119239729D01*
X137947321Y-119241850D01*
X137947580Y-119243094D01*
X137948518Y-119245359D01*
X137948088Y-119245536D01*
X137961564Y-119310253D01*
X137937233Y-119374614D01*
X137931205Y-119382666D01*
X137931202Y-119382671D01*
X137880908Y-119517517D01*
X137874501Y-119577116D01*
X137874501Y-119577123D01*
X137874500Y-119577135D01*
X137874500Y-120672870D01*
X137874501Y-120672876D01*
X137880908Y-120732483D01*
X137931202Y-120867328D01*
X137931206Y-120867335D01*
X138017452Y-120982544D01*
X138017455Y-120982547D01*
X138132664Y-121068793D01*
X138132671Y-121068797D01*
X138267517Y-121119091D01*
X138267516Y-121119091D01*
X138274444Y-121119835D01*
X138327127Y-121125500D01*
X139422872Y-121125499D01*
X139482483Y-121119091D01*
X139617331Y-121068796D01*
X139732546Y-120982546D01*
X139818796Y-120867331D01*
X139869091Y-120732483D01*
X139875500Y-120672873D01*
X139875500Y-120312500D01*
X144294540Y-120312500D01*
X144314326Y-120500756D01*
X144314327Y-120500759D01*
X144372818Y-120680777D01*
X144372819Y-120680779D01*
X144372821Y-120680784D01*
X144467467Y-120844716D01*
X144560350Y-120947873D01*
X144594129Y-120985388D01*
X144747265Y-121096648D01*
X144747270Y-121096651D01*
X144920192Y-121173642D01*
X144920197Y-121173644D01*
X145105354Y-121213000D01*
X145105355Y-121213000D01*
X145294644Y-121213000D01*
X145294646Y-121213000D01*
X145479803Y-121173644D01*
X145652730Y-121096651D01*
X145673219Y-121081764D01*
X145739024Y-121058284D01*
X145807078Y-121074108D01*
X145855774Y-121124213D01*
X145869650Y-121192691D01*
X145862288Y-121225413D01*
X145855908Y-121242517D01*
X145849782Y-121299500D01*
X145849501Y-121302123D01*
X145849500Y-121302135D01*
X145849500Y-123097870D01*
X145849501Y-123097876D01*
X145855908Y-123157483D01*
X145906202Y-123292328D01*
X145906206Y-123292335D01*
X145992452Y-123407544D01*
X145992455Y-123407547D01*
X146107664Y-123493793D01*
X146107671Y-123493797D01*
X146242517Y-123544091D01*
X146242516Y-123544091D01*
X146249444Y-123544835D01*
X146302127Y-123550500D01*
X148097872Y-123550499D01*
X148157483Y-123544091D01*
X148292331Y-123493796D01*
X148407546Y-123407546D01*
X148493796Y-123292331D01*
X148542810Y-123160916D01*
X148584681Y-123104984D01*
X148650145Y-123080566D01*
X148718418Y-123095417D01*
X148746673Y-123116569D01*
X148868599Y-123238495D01*
X148953775Y-123298136D01*
X149062165Y-123374032D01*
X149062167Y-123374033D01*
X149062170Y-123374035D01*
X149276337Y-123473903D01*
X149504592Y-123535063D01*
X149681034Y-123550500D01*
X149739999Y-123555659D01*
X149740000Y-123555659D01*
X149740001Y-123555659D01*
X149798966Y-123550500D01*
X149975408Y-123535063D01*
X150203663Y-123473903D01*
X150417830Y-123374035D01*
X150611401Y-123238495D01*
X150778495Y-123071401D01*
X150914035Y-122877830D01*
X151013903Y-122663663D01*
X151075063Y-122435408D01*
X151095659Y-122200000D01*
X152044341Y-122200000D01*
X152064936Y-122435403D01*
X152064938Y-122435413D01*
X152126094Y-122663655D01*
X152126096Y-122663659D01*
X152126097Y-122663663D01*
X152157831Y-122731716D01*
X152225965Y-122877830D01*
X152225967Y-122877834D01*
X152300412Y-122984151D01*
X152361505Y-123071401D01*
X152528599Y-123238495D01*
X152613775Y-123298136D01*
X152722165Y-123374032D01*
X152722167Y-123374033D01*
X152722170Y-123374035D01*
X152936337Y-123473903D01*
X153164592Y-123535063D01*
X153341034Y-123550500D01*
X153399999Y-123555659D01*
X153400000Y-123555659D01*
X153400001Y-123555659D01*
X153458966Y-123550500D01*
X153635408Y-123535063D01*
X153863663Y-123473903D01*
X154077830Y-123374035D01*
X154271401Y-123238495D01*
X154438495Y-123071401D01*
X154568424Y-122885842D01*
X154623002Y-122842217D01*
X154692500Y-122835023D01*
X154754855Y-122866546D01*
X154771575Y-122885842D01*
X154901500Y-123071395D01*
X154901505Y-123071401D01*
X155068599Y-123238495D01*
X155153775Y-123298136D01*
X155262165Y-123374032D01*
X155262167Y-123374033D01*
X155262170Y-123374035D01*
X155476337Y-123473903D01*
X155704592Y-123535063D01*
X155881034Y-123550500D01*
X155939999Y-123555659D01*
X155940000Y-123555659D01*
X155940001Y-123555659D01*
X155998966Y-123550500D01*
X156175408Y-123535063D01*
X156403663Y-123473903D01*
X156617830Y-123374035D01*
X156811401Y-123238495D01*
X156933329Y-123116566D01*
X156994648Y-123083084D01*
X157064340Y-123088068D01*
X157120274Y-123129939D01*
X157137189Y-123160917D01*
X157186202Y-123292328D01*
X157186206Y-123292335D01*
X157272452Y-123407544D01*
X157272455Y-123407547D01*
X157387664Y-123493793D01*
X157387671Y-123493797D01*
X157522517Y-123544091D01*
X157522516Y-123544091D01*
X157529444Y-123544835D01*
X157582127Y-123550500D01*
X159377872Y-123550499D01*
X159437483Y-123544091D01*
X159572331Y-123493796D01*
X159687546Y-123407546D01*
X159773796Y-123292331D01*
X159824091Y-123157483D01*
X159830500Y-123097873D01*
X159830499Y-121302128D01*
X159824091Y-121242517D01*
X159822810Y-121239083D01*
X159773797Y-121107671D01*
X159773793Y-121107664D01*
X159687547Y-120992455D01*
X159687544Y-120992452D01*
X159572335Y-120906206D01*
X159572328Y-120906202D01*
X159437482Y-120855908D01*
X159437483Y-120855908D01*
X159377883Y-120849501D01*
X159377881Y-120849500D01*
X159377873Y-120849500D01*
X159377864Y-120849500D01*
X157582129Y-120849500D01*
X157582123Y-120849501D01*
X157522516Y-120855908D01*
X157387671Y-120906202D01*
X157387664Y-120906206D01*
X157272455Y-120992452D01*
X157272452Y-120992455D01*
X157186206Y-121107664D01*
X157186203Y-121107669D01*
X157137189Y-121239083D01*
X157095317Y-121295016D01*
X157029853Y-121319433D01*
X156961580Y-121304581D01*
X156933326Y-121283430D01*
X156811402Y-121161506D01*
X156811395Y-121161501D01*
X156617834Y-121025967D01*
X156617830Y-121025965D01*
X156578193Y-121007482D01*
X156403663Y-120926097D01*
X156403659Y-120926096D01*
X156403655Y-120926094D01*
X156175413Y-120864938D01*
X156175403Y-120864936D01*
X155940001Y-120844341D01*
X155939999Y-120844341D01*
X155704596Y-120864936D01*
X155704586Y-120864938D01*
X155476344Y-120926094D01*
X155476335Y-120926098D01*
X155262171Y-121025964D01*
X155262169Y-121025965D01*
X155068597Y-121161505D01*
X154901505Y-121328597D01*
X154771575Y-121514158D01*
X154716998Y-121557783D01*
X154647500Y-121564977D01*
X154585145Y-121533454D01*
X154568425Y-121514158D01*
X154438494Y-121328597D01*
X154271402Y-121161506D01*
X154271395Y-121161501D01*
X154077834Y-121025967D01*
X154077830Y-121025965D01*
X154038193Y-121007482D01*
X153863663Y-120926097D01*
X153863659Y-120926096D01*
X153863655Y-120926094D01*
X153635413Y-120864938D01*
X153635403Y-120864936D01*
X153400001Y-120844341D01*
X153399999Y-120844341D01*
X153164596Y-120864936D01*
X153164586Y-120864938D01*
X152936344Y-120926094D01*
X152936335Y-120926098D01*
X152722171Y-121025964D01*
X152722169Y-121025965D01*
X152528597Y-121161505D01*
X152361505Y-121328597D01*
X152225965Y-121522169D01*
X152225964Y-121522171D01*
X152126098Y-121736335D01*
X152126094Y-121736344D01*
X152064938Y-121964586D01*
X152064936Y-121964596D01*
X152044341Y-122199999D01*
X152044341Y-122200000D01*
X151095659Y-122200000D01*
X151093082Y-122170551D01*
X151085958Y-122089116D01*
X151075063Y-121964592D01*
X151013903Y-121736337D01*
X150914035Y-121522171D01*
X150908425Y-121514158D01*
X150778494Y-121328597D01*
X150611402Y-121161506D01*
X150611395Y-121161501D01*
X150417834Y-121025967D01*
X150417830Y-121025965D01*
X150378193Y-121007482D01*
X150203663Y-120926097D01*
X150203659Y-120926096D01*
X150203655Y-120926094D01*
X149975413Y-120864938D01*
X149975403Y-120864936D01*
X149740001Y-120844341D01*
X149739999Y-120844341D01*
X149504596Y-120864936D01*
X149504586Y-120864938D01*
X149276344Y-120926094D01*
X149276335Y-120926098D01*
X149062171Y-121025964D01*
X149062169Y-121025965D01*
X148868600Y-121161503D01*
X148746673Y-121283430D01*
X148685350Y-121316914D01*
X148615658Y-121311930D01*
X148559725Y-121270058D01*
X148542810Y-121239081D01*
X148493797Y-121107671D01*
X148493793Y-121107664D01*
X148407547Y-120992455D01*
X148407544Y-120992452D01*
X148292335Y-120906206D01*
X148292328Y-120906202D01*
X148157482Y-120855908D01*
X148157483Y-120855908D01*
X148097883Y-120849501D01*
X148097881Y-120849500D01*
X148097873Y-120849500D01*
X148097864Y-120849500D01*
X146302129Y-120849500D01*
X146302123Y-120849501D01*
X146242514Y-120855909D01*
X146162414Y-120885784D01*
X146092722Y-120890768D01*
X146031400Y-120857282D01*
X145997915Y-120795958D01*
X146002901Y-120726267D01*
X146011689Y-120707612D01*
X146027179Y-120680784D01*
X146085674Y-120500756D01*
X146105460Y-120312500D01*
X146085674Y-120124244D01*
X146027179Y-119944216D01*
X145932533Y-119780284D01*
X145805871Y-119639612D01*
X145805870Y-119639611D01*
X145652734Y-119528351D01*
X145652729Y-119528348D01*
X145479807Y-119451357D01*
X145479802Y-119451355D01*
X145334001Y-119420365D01*
X145294646Y-119412000D01*
X145105354Y-119412000D01*
X145072897Y-119418898D01*
X144920197Y-119451355D01*
X144920192Y-119451357D01*
X144747270Y-119528348D01*
X144747265Y-119528351D01*
X144594129Y-119639611D01*
X144467466Y-119780285D01*
X144372821Y-119944215D01*
X144372818Y-119944222D01*
X144327354Y-120084148D01*
X144314326Y-120124244D01*
X144294540Y-120312500D01*
X139875500Y-120312500D01*
X139875499Y-119577128D01*
X139869091Y-119517517D01*
X139868842Y-119516850D01*
X139818797Y-119382672D01*
X139818796Y-119382669D01*
X139812767Y-119374615D01*
X139788351Y-119309154D01*
X139801895Y-119245525D01*
X139801483Y-119245355D01*
X139802406Y-119243124D01*
X139802677Y-119241853D01*
X139803814Y-119239727D01*
X139861024Y-119051132D01*
X139880341Y-118855000D01*
X139861024Y-118658868D01*
X139803814Y-118470273D01*
X139803811Y-118470269D01*
X139803811Y-118470266D01*
X139766253Y-118400000D01*
X154194540Y-118400000D01*
X154214326Y-118588256D01*
X154214327Y-118588259D01*
X154272818Y-118768277D01*
X154272821Y-118768284D01*
X154367467Y-118932216D01*
X154474537Y-119051129D01*
X154494129Y-119072888D01*
X154647265Y-119184148D01*
X154647270Y-119184151D01*
X154820192Y-119261142D01*
X154820197Y-119261144D01*
X155005354Y-119300500D01*
X155005355Y-119300500D01*
X155194644Y-119300500D01*
X155194646Y-119300500D01*
X155379803Y-119261144D01*
X155549566Y-119185559D01*
X155618813Y-119176275D01*
X155650430Y-119185557D01*
X155820197Y-119261144D01*
X156005354Y-119300500D01*
X156005355Y-119300500D01*
X156194644Y-119300500D01*
X156194646Y-119300500D01*
X156196998Y-119300000D01*
X162594540Y-119300000D01*
X162614326Y-119488256D01*
X162614327Y-119488259D01*
X162672818Y-119668277D01*
X162672821Y-119668284D01*
X162767467Y-119832216D01*
X162868312Y-119944215D01*
X162894129Y-119972888D01*
X163047265Y-120084148D01*
X163047270Y-120084151D01*
X163220192Y-120161142D01*
X163220197Y-120161144D01*
X163405354Y-120200500D01*
X163405355Y-120200500D01*
X163594644Y-120200500D01*
X163594646Y-120200500D01*
X163779803Y-120161144D01*
X163952730Y-120084151D01*
X164105871Y-119972888D01*
X164232533Y-119832216D01*
X164327179Y-119668284D01*
X164385674Y-119488256D01*
X164405460Y-119300000D01*
X164385674Y-119111744D01*
X164327878Y-118933868D01*
X164327181Y-118931722D01*
X164327180Y-118931721D01*
X164327179Y-118931716D01*
X164232533Y-118767784D01*
X164105871Y-118627112D01*
X164085963Y-118612648D01*
X163952734Y-118515851D01*
X163952729Y-118515848D01*
X163779807Y-118438857D01*
X163779802Y-118438855D01*
X163634001Y-118407865D01*
X163594646Y-118399500D01*
X163405354Y-118399500D01*
X163372897Y-118406398D01*
X163220197Y-118438855D01*
X163220192Y-118438857D01*
X163047270Y-118515848D01*
X163047265Y-118515851D01*
X162894129Y-118627111D01*
X162767466Y-118767785D01*
X162672821Y-118931715D01*
X162672818Y-118931722D01*
X162634021Y-119051129D01*
X162614326Y-119111744D01*
X162594540Y-119300000D01*
X156196998Y-119300000D01*
X156379803Y-119261144D01*
X156552730Y-119184151D01*
X156705871Y-119072888D01*
X156832533Y-118932216D01*
X156927179Y-118768284D01*
X156985674Y-118588256D01*
X157005460Y-118400000D01*
X156985674Y-118211744D01*
X156927179Y-118031716D01*
X156832533Y-117867784D01*
X156705871Y-117727112D01*
X156705870Y-117727111D01*
X156552734Y-117615851D01*
X156552729Y-117615848D01*
X156379807Y-117538857D01*
X156379802Y-117538855D01*
X156234001Y-117507865D01*
X156194646Y-117499500D01*
X156005354Y-117499500D01*
X155972897Y-117506398D01*
X155820197Y-117538855D01*
X155820192Y-117538857D01*
X155650436Y-117614439D01*
X155581186Y-117623724D01*
X155549564Y-117614439D01*
X155379807Y-117538857D01*
X155379802Y-117538855D01*
X155234001Y-117507865D01*
X155194646Y-117499500D01*
X155005354Y-117499500D01*
X154972897Y-117506398D01*
X154820197Y-117538855D01*
X154820192Y-117538857D01*
X154647270Y-117615848D01*
X154647265Y-117615851D01*
X154494129Y-117727111D01*
X154367466Y-117867785D01*
X154272821Y-118031715D01*
X154272818Y-118031722D01*
X154214844Y-118210150D01*
X154214326Y-118211744D01*
X154194540Y-118400000D01*
X139766253Y-118400000D01*
X139710913Y-118296467D01*
X139710909Y-118296460D01*
X139585883Y-118144116D01*
X139433539Y-118019090D01*
X139433532Y-118019086D01*
X139259733Y-117926188D01*
X139259727Y-117926186D01*
X139071132Y-117868976D01*
X139071129Y-117868975D01*
X138875000Y-117849659D01*
X138678870Y-117868975D01*
X138490266Y-117926188D01*
X138316467Y-118019086D01*
X138316460Y-118019090D01*
X138164116Y-118144116D01*
X138039090Y-118296460D01*
X138039086Y-118296467D01*
X137946188Y-118470266D01*
X137888975Y-118658870D01*
X137869659Y-118855000D01*
X137310551Y-118855000D01*
X137310551Y-117250000D01*
X142044540Y-117250000D01*
X142064326Y-117438256D01*
X142064327Y-117438259D01*
X142122818Y-117618277D01*
X142122821Y-117618284D01*
X142217467Y-117782216D01*
X142312946Y-117888256D01*
X142344129Y-117922888D01*
X142497265Y-118034148D01*
X142497270Y-118034151D01*
X142670192Y-118111142D01*
X142670197Y-118111144D01*
X142855354Y-118150500D01*
X142855355Y-118150500D01*
X143044644Y-118150500D01*
X143044646Y-118150500D01*
X143229803Y-118111144D01*
X143402730Y-118034151D01*
X143555871Y-117922888D01*
X143682533Y-117782216D01*
X143777179Y-117618284D01*
X143835674Y-117438256D01*
X143855460Y-117250000D01*
X143835674Y-117061744D01*
X143777179Y-116881716D01*
X143682533Y-116717784D01*
X143555871Y-116577112D01*
X143555870Y-116577111D01*
X143402734Y-116465851D01*
X143402729Y-116465848D01*
X143229807Y-116388857D01*
X143229802Y-116388855D01*
X143084000Y-116357865D01*
X143044646Y-116349500D01*
X142855354Y-116349500D01*
X142822897Y-116356398D01*
X142670197Y-116388855D01*
X142670192Y-116388857D01*
X142497270Y-116465848D01*
X142497265Y-116465851D01*
X142344129Y-116577111D01*
X142217466Y-116717785D01*
X142122821Y-116881715D01*
X142122818Y-116881722D01*
X142064327Y-117061740D01*
X142064326Y-117061744D01*
X142044540Y-117250000D01*
X137310551Y-117250000D01*
X137310551Y-116644006D01*
X137330236Y-116576967D01*
X137383040Y-116531212D01*
X137452198Y-116521268D01*
X137515754Y-116550293D01*
X137552482Y-116605688D01*
X137572818Y-116668277D01*
X137572821Y-116668284D01*
X137667467Y-116832216D01*
X137712043Y-116881722D01*
X137794129Y-116972888D01*
X137947265Y-117084148D01*
X137947270Y-117084151D01*
X138120192Y-117161142D01*
X138120197Y-117161144D01*
X138305354Y-117200500D01*
X138305355Y-117200500D01*
X138494644Y-117200500D01*
X138494646Y-117200500D01*
X138679803Y-117161144D01*
X138852730Y-117084151D01*
X139005871Y-116972888D01*
X139132533Y-116832216D01*
X139227179Y-116668284D01*
X139285674Y-116488256D01*
X139305460Y-116300000D01*
X139285674Y-116111744D01*
X139227179Y-115931716D01*
X139132533Y-115767784D01*
X139005871Y-115627112D01*
X139005870Y-115627111D01*
X138852734Y-115515851D01*
X138852729Y-115515848D01*
X138679807Y-115438857D01*
X138679802Y-115438855D01*
X138534001Y-115407865D01*
X138494646Y-115399500D01*
X138305354Y-115399500D01*
X138272897Y-115406398D01*
X138120197Y-115438855D01*
X138120192Y-115438857D01*
X137947270Y-115515848D01*
X137947265Y-115515851D01*
X137794129Y-115627111D01*
X137667466Y-115767785D01*
X137572821Y-115931715D01*
X137572819Y-115931719D01*
X137552482Y-115994312D01*
X137513044Y-116051987D01*
X137448685Y-116079185D01*
X137379839Y-116067270D01*
X137328363Y-116020026D01*
X137310551Y-115955993D01*
X137310551Y-114900000D01*
X146744540Y-114900000D01*
X146764326Y-115088256D01*
X146764327Y-115088259D01*
X146822818Y-115268277D01*
X146822821Y-115268284D01*
X146917467Y-115432216D01*
X146992770Y-115515848D01*
X147044129Y-115572888D01*
X147197265Y-115684148D01*
X147197270Y-115684151D01*
X147370192Y-115761142D01*
X147370197Y-115761144D01*
X147555354Y-115800500D01*
X147555355Y-115800500D01*
X147744644Y-115800500D01*
X147744646Y-115800500D01*
X147929803Y-115761144D01*
X148102730Y-115684151D01*
X148218554Y-115600000D01*
X151894540Y-115600000D01*
X151914326Y-115788256D01*
X151914327Y-115788259D01*
X151972818Y-115968277D01*
X151972821Y-115968284D01*
X152067467Y-116132216D01*
X152194128Y-116272887D01*
X152194129Y-116272888D01*
X152347265Y-116384148D01*
X152347270Y-116384151D01*
X152520192Y-116461142D01*
X152520197Y-116461144D01*
X152705354Y-116500500D01*
X152705355Y-116500500D01*
X152894644Y-116500500D01*
X152894646Y-116500500D01*
X153079803Y-116461144D01*
X153252730Y-116384151D01*
X153405871Y-116272888D01*
X153532533Y-116132216D01*
X153627179Y-115968284D01*
X153685674Y-115788256D01*
X153705460Y-115600000D01*
X153685674Y-115411744D01*
X153627179Y-115231716D01*
X153532533Y-115067784D01*
X153405871Y-114927112D01*
X153404020Y-114925767D01*
X153252734Y-114815851D01*
X153252729Y-114815848D01*
X153079807Y-114738857D01*
X153079802Y-114738855D01*
X152934001Y-114707865D01*
X152894646Y-114699500D01*
X152705354Y-114699500D01*
X152672897Y-114706398D01*
X152520197Y-114738855D01*
X152520192Y-114738857D01*
X152347270Y-114815848D01*
X152347265Y-114815851D01*
X152194129Y-114927111D01*
X152067466Y-115067785D01*
X151972821Y-115231715D01*
X151972818Y-115231722D01*
X151914521Y-115411144D01*
X151914326Y-115411744D01*
X151894540Y-115600000D01*
X148218554Y-115600000D01*
X148255871Y-115572888D01*
X148382533Y-115432216D01*
X148477179Y-115268284D01*
X148535674Y-115088256D01*
X148555460Y-114900000D01*
X148535674Y-114711744D01*
X148477179Y-114531716D01*
X148458868Y-114500000D01*
X149894540Y-114500000D01*
X149914326Y-114688256D01*
X149914327Y-114688259D01*
X149972818Y-114868277D01*
X149972821Y-114868284D01*
X150067467Y-115032216D01*
X150183553Y-115161142D01*
X150194129Y-115172888D01*
X150347265Y-115284148D01*
X150347270Y-115284151D01*
X150520192Y-115361142D01*
X150520197Y-115361144D01*
X150705354Y-115400500D01*
X150705355Y-115400500D01*
X150894644Y-115400500D01*
X150894646Y-115400500D01*
X151079803Y-115361144D01*
X151252730Y-115284151D01*
X151405871Y-115172888D01*
X151532533Y-115032216D01*
X151627179Y-114868284D01*
X151685674Y-114688256D01*
X151700205Y-114550000D01*
X156994540Y-114550000D01*
X157014326Y-114738256D01*
X157014327Y-114738259D01*
X157072818Y-114918277D01*
X157072821Y-114918284D01*
X157167467Y-115082216D01*
X157249109Y-115172888D01*
X157294129Y-115222888D01*
X157447265Y-115334148D01*
X157447270Y-115334151D01*
X157620192Y-115411142D01*
X157620197Y-115411144D01*
X157805354Y-115450500D01*
X157805355Y-115450500D01*
X157994644Y-115450500D01*
X157994646Y-115450500D01*
X158179803Y-115411144D01*
X158352730Y-115334151D01*
X158505871Y-115222888D01*
X158632533Y-115082216D01*
X158727179Y-114918284D01*
X158785674Y-114738256D01*
X158805460Y-114550000D01*
X158785674Y-114361744D01*
X158727179Y-114181716D01*
X158632533Y-114017784D01*
X158526404Y-113899916D01*
X158496174Y-113836925D01*
X158504799Y-113767589D01*
X158545667Y-113716628D01*
X158605871Y-113672888D01*
X158732533Y-113532216D01*
X158827179Y-113368284D01*
X158885674Y-113188256D01*
X158905460Y-113000000D01*
X158885674Y-112811744D01*
X158831112Y-112643823D01*
X158827181Y-112631722D01*
X158827180Y-112631721D01*
X158827179Y-112631716D01*
X158732533Y-112467784D01*
X158605871Y-112327112D01*
X158605870Y-112327111D01*
X158452734Y-112215851D01*
X158452729Y-112215848D01*
X158279807Y-112138857D01*
X158279802Y-112138855D01*
X158134001Y-112107865D01*
X158094646Y-112099500D01*
X157905354Y-112099500D01*
X157872897Y-112106398D01*
X157720197Y-112138855D01*
X157720192Y-112138857D01*
X157547270Y-112215848D01*
X157547265Y-112215851D01*
X157394129Y-112327111D01*
X157267466Y-112467785D01*
X157172821Y-112631715D01*
X157172818Y-112631722D01*
X157126951Y-112772888D01*
X157114326Y-112811744D01*
X157094540Y-113000000D01*
X157114326Y-113188256D01*
X157114327Y-113188259D01*
X157172818Y-113368277D01*
X157172821Y-113368284D01*
X157267467Y-113532216D01*
X157299937Y-113568277D01*
X157373595Y-113650083D01*
X157403825Y-113713074D01*
X157395200Y-113782410D01*
X157354331Y-113833373D01*
X157294127Y-113877113D01*
X157167466Y-114017785D01*
X157072821Y-114181715D01*
X157072818Y-114181722D01*
X157030573Y-114311740D01*
X157014326Y-114361744D01*
X156994540Y-114550000D01*
X151700205Y-114550000D01*
X151705460Y-114500000D01*
X151685674Y-114311744D01*
X151627179Y-114131716D01*
X151532533Y-113967784D01*
X151405871Y-113827112D01*
X151375164Y-113804802D01*
X151252734Y-113715851D01*
X151252729Y-113715848D01*
X151079807Y-113638857D01*
X151079802Y-113638855D01*
X150934001Y-113607865D01*
X150894646Y-113599500D01*
X150705354Y-113599500D01*
X150672897Y-113606398D01*
X150520197Y-113638855D01*
X150520192Y-113638857D01*
X150347270Y-113715848D01*
X150347265Y-113715851D01*
X150194129Y-113827111D01*
X150067466Y-113967785D01*
X149972821Y-114131715D01*
X149972818Y-114131722D01*
X149918142Y-114299999D01*
X149914326Y-114311744D01*
X149894540Y-114500000D01*
X148458868Y-114500000D01*
X148382533Y-114367784D01*
X148255871Y-114227112D01*
X148255870Y-114227111D01*
X148102734Y-114115851D01*
X148102729Y-114115848D01*
X147929807Y-114038857D01*
X147929802Y-114038855D01*
X147784001Y-114007865D01*
X147744646Y-113999500D01*
X147555354Y-113999500D01*
X147522897Y-114006398D01*
X147370197Y-114038855D01*
X147370192Y-114038857D01*
X147197270Y-114115848D01*
X147197265Y-114115851D01*
X147044129Y-114227111D01*
X146917466Y-114367785D01*
X146822821Y-114531715D01*
X146822818Y-114531722D01*
X146768304Y-114699500D01*
X146764326Y-114711744D01*
X146744540Y-114900000D01*
X137310551Y-114900000D01*
X137310551Y-113200000D01*
X144294540Y-113200000D01*
X144314326Y-113388256D01*
X144314327Y-113388259D01*
X144372818Y-113568277D01*
X144372821Y-113568284D01*
X144467467Y-113732216D01*
X144561748Y-113836925D01*
X144594129Y-113872888D01*
X144747265Y-113984148D01*
X144747270Y-113984151D01*
X144920192Y-114061142D01*
X144920197Y-114061144D01*
X145105354Y-114100500D01*
X145105355Y-114100500D01*
X145294644Y-114100500D01*
X145294646Y-114100500D01*
X145479803Y-114061144D01*
X145652730Y-113984151D01*
X145805871Y-113872888D01*
X145932533Y-113732216D01*
X146027179Y-113568284D01*
X146085674Y-113388256D01*
X146105460Y-113200000D01*
X146085674Y-113011744D01*
X146027179Y-112831716D01*
X145932533Y-112667784D01*
X145805871Y-112527112D01*
X145805870Y-112527111D01*
X145652734Y-112415851D01*
X145652729Y-112415848D01*
X145479807Y-112338857D01*
X145479802Y-112338855D01*
X145334001Y-112307865D01*
X145294646Y-112299500D01*
X145105354Y-112299500D01*
X145072897Y-112306398D01*
X144920197Y-112338855D01*
X144920192Y-112338857D01*
X144747270Y-112415848D01*
X144747265Y-112415851D01*
X144594129Y-112527111D01*
X144467466Y-112667785D01*
X144372821Y-112831715D01*
X144372818Y-112831722D01*
X144330767Y-112961144D01*
X144314326Y-113011744D01*
X144294540Y-113200000D01*
X137310551Y-113200000D01*
X137310551Y-110800000D01*
X147594540Y-110800000D01*
X147614326Y-110988256D01*
X147614327Y-110988259D01*
X147672818Y-111168277D01*
X147672820Y-111168281D01*
X147672821Y-111168284D01*
X147767467Y-111332216D01*
X147852911Y-111427111D01*
X147894129Y-111472888D01*
X148034981Y-111575223D01*
X148077647Y-111630553D01*
X148083626Y-111700166D01*
X148075377Y-111725972D01*
X148072822Y-111731709D01*
X148017979Y-111900500D01*
X148014326Y-111911744D01*
X147994540Y-112100000D01*
X148014326Y-112288256D01*
X148014327Y-112288259D01*
X148072818Y-112468277D01*
X148072821Y-112468284D01*
X148167467Y-112632216D01*
X148199493Y-112667784D01*
X148294129Y-112772888D01*
X148447265Y-112884148D01*
X148447270Y-112884151D01*
X148620192Y-112961142D01*
X148620197Y-112961144D01*
X148805354Y-113000500D01*
X148805355Y-113000500D01*
X148994644Y-113000500D01*
X148994646Y-113000500D01*
X149179803Y-112961144D01*
X149352730Y-112884151D01*
X149505871Y-112772888D01*
X149632533Y-112632216D01*
X149727179Y-112468284D01*
X149785674Y-112288256D01*
X149805460Y-112100000D01*
X149785674Y-111911744D01*
X149727179Y-111731716D01*
X149726825Y-111730625D01*
X149724830Y-111660784D01*
X149760910Y-111600951D01*
X149823611Y-111570123D01*
X149893026Y-111578088D01*
X149936904Y-111609333D01*
X149989977Y-111668277D01*
X149994129Y-111672888D01*
X150147265Y-111784148D01*
X150147270Y-111784151D01*
X150320192Y-111861142D01*
X150320197Y-111861144D01*
X150505354Y-111900500D01*
X150505355Y-111900500D01*
X150694644Y-111900500D01*
X150694646Y-111900500D01*
X150879803Y-111861144D01*
X151052730Y-111784151D01*
X151205871Y-111672888D01*
X151332533Y-111532216D01*
X151427179Y-111368284D01*
X151449366Y-111300000D01*
X160894540Y-111300000D01*
X160914326Y-111488256D01*
X160914327Y-111488259D01*
X160972818Y-111668277D01*
X160972821Y-111668284D01*
X161067467Y-111832216D01*
X161139071Y-111911740D01*
X161194129Y-111972888D01*
X161347265Y-112084148D01*
X161347270Y-112084151D01*
X161520192Y-112161142D01*
X161520197Y-112161144D01*
X161705354Y-112200500D01*
X161705355Y-112200500D01*
X161894644Y-112200500D01*
X161894646Y-112200500D01*
X162079803Y-112161144D01*
X162252730Y-112084151D01*
X162405871Y-111972888D01*
X162532533Y-111832216D01*
X162627179Y-111668284D01*
X162685674Y-111488256D01*
X162705460Y-111300000D01*
X162685674Y-111111744D01*
X162627179Y-110931716D01*
X162532533Y-110767784D01*
X162405871Y-110627112D01*
X162384719Y-110611744D01*
X162252734Y-110515851D01*
X162252729Y-110515848D01*
X162079807Y-110438857D01*
X162079802Y-110438855D01*
X161934000Y-110407865D01*
X161894646Y-110399500D01*
X161705354Y-110399500D01*
X161672897Y-110406398D01*
X161520197Y-110438855D01*
X161520192Y-110438857D01*
X161347270Y-110515848D01*
X161347265Y-110515851D01*
X161194129Y-110627111D01*
X161067466Y-110767785D01*
X160972821Y-110931715D01*
X160972818Y-110931722D01*
X160914327Y-111111740D01*
X160914326Y-111111744D01*
X160894540Y-111300000D01*
X151449366Y-111300000D01*
X151485674Y-111188256D01*
X151505460Y-111000000D01*
X151485674Y-110811744D01*
X151427179Y-110631716D01*
X151332533Y-110467784D01*
X151205871Y-110327112D01*
X151205870Y-110327111D01*
X151052734Y-110215851D01*
X151052729Y-110215848D01*
X150873866Y-110136212D01*
X150874658Y-110134431D01*
X150824652Y-110100242D01*
X150797451Y-110035885D01*
X150809362Y-109967038D01*
X150856603Y-109915560D01*
X150894859Y-109900454D01*
X151079803Y-109861144D01*
X151252730Y-109784151D01*
X151405871Y-109672888D01*
X151532533Y-109532216D01*
X151551133Y-109500000D01*
X158794540Y-109500000D01*
X158814326Y-109688256D01*
X158814327Y-109688259D01*
X158872818Y-109868277D01*
X158872821Y-109868284D01*
X158967467Y-110032216D01*
X159063487Y-110138857D01*
X159094129Y-110172888D01*
X159247265Y-110284148D01*
X159247270Y-110284151D01*
X159420192Y-110361142D01*
X159420197Y-110361144D01*
X159605354Y-110400500D01*
X159605355Y-110400500D01*
X159794644Y-110400500D01*
X159794646Y-110400500D01*
X159979803Y-110361144D01*
X160152730Y-110284151D01*
X160305871Y-110172888D01*
X160432533Y-110032216D01*
X160527179Y-109868284D01*
X160585674Y-109688256D01*
X160605460Y-109500000D01*
X160585674Y-109311744D01*
X160527179Y-109131716D01*
X160432533Y-108967784D01*
X160305871Y-108827112D01*
X160284719Y-108811744D01*
X160152734Y-108715851D01*
X160152729Y-108715848D01*
X159979807Y-108638857D01*
X159979802Y-108638855D01*
X159834001Y-108607865D01*
X159794646Y-108599500D01*
X159605354Y-108599500D01*
X159572897Y-108606398D01*
X159420197Y-108638855D01*
X159420192Y-108638857D01*
X159247270Y-108715848D01*
X159247265Y-108715851D01*
X159094129Y-108827111D01*
X158967466Y-108967785D01*
X158872821Y-109131715D01*
X158872818Y-109131722D01*
X158814327Y-109311740D01*
X158814326Y-109311744D01*
X158794540Y-109500000D01*
X151551133Y-109500000D01*
X151627179Y-109368284D01*
X151685674Y-109188256D01*
X151705460Y-109000000D01*
X151685674Y-108811744D01*
X151627179Y-108631716D01*
X151532533Y-108467784D01*
X151405871Y-108327112D01*
X151405870Y-108327111D01*
X151368555Y-108300000D01*
X152694540Y-108300000D01*
X152714326Y-108488256D01*
X152714327Y-108488259D01*
X152772818Y-108668277D01*
X152772821Y-108668284D01*
X152867467Y-108832216D01*
X152989533Y-108967784D01*
X152994129Y-108972888D01*
X153147265Y-109084148D01*
X153147270Y-109084151D01*
X153320192Y-109161142D01*
X153320197Y-109161144D01*
X153505354Y-109200500D01*
X153505355Y-109200500D01*
X153694644Y-109200500D01*
X153694646Y-109200500D01*
X153879803Y-109161144D01*
X154052730Y-109084151D01*
X154205871Y-108972888D01*
X154332533Y-108832216D01*
X154427179Y-108668284D01*
X154485674Y-108488256D01*
X154505460Y-108300000D01*
X154485674Y-108111744D01*
X154427179Y-107931716D01*
X154332533Y-107767784D01*
X154205871Y-107627112D01*
X154167382Y-107599148D01*
X154052734Y-107515851D01*
X154052729Y-107515848D01*
X153879807Y-107438857D01*
X153879802Y-107438855D01*
X153734000Y-107407865D01*
X153694646Y-107399500D01*
X153505354Y-107399500D01*
X153472897Y-107406398D01*
X153320197Y-107438855D01*
X153320192Y-107438857D01*
X153147270Y-107515848D01*
X153147265Y-107515851D01*
X152994129Y-107627111D01*
X152867466Y-107767785D01*
X152772821Y-107931715D01*
X152772818Y-107931722D01*
X152718304Y-108099500D01*
X152714326Y-108111744D01*
X152694540Y-108300000D01*
X151368555Y-108300000D01*
X151252734Y-108215851D01*
X151252729Y-108215848D01*
X151079807Y-108138857D01*
X151079802Y-108138855D01*
X150934000Y-108107865D01*
X150894646Y-108099500D01*
X150705354Y-108099500D01*
X150672897Y-108106398D01*
X150520197Y-108138855D01*
X150520192Y-108138857D01*
X150347270Y-108215848D01*
X150347265Y-108215851D01*
X150194129Y-108327111D01*
X150067466Y-108467785D01*
X149972821Y-108631715D01*
X149972818Y-108631722D01*
X149914327Y-108811740D01*
X149914326Y-108811744D01*
X149894540Y-109000000D01*
X149914326Y-109188256D01*
X149914327Y-109188259D01*
X149972818Y-109368277D01*
X149972821Y-109368284D01*
X150067467Y-109532216D01*
X150194128Y-109672887D01*
X150194129Y-109672888D01*
X150347265Y-109784148D01*
X150347270Y-109784151D01*
X150526134Y-109863788D01*
X150525339Y-109865572D01*
X150575333Y-109899741D01*
X150602546Y-109964093D01*
X150590646Y-110032942D01*
X150543413Y-110084428D01*
X150505138Y-110099545D01*
X150320197Y-110138855D01*
X150320192Y-110138857D01*
X150147270Y-110215848D01*
X150147265Y-110215851D01*
X149994129Y-110327111D01*
X149867466Y-110467785D01*
X149772821Y-110631715D01*
X149772818Y-110631722D01*
X149728609Y-110767785D01*
X149714326Y-110811744D01*
X149694540Y-111000000D01*
X149714326Y-111188256D01*
X149714327Y-111188259D01*
X149773174Y-111369374D01*
X149775169Y-111439216D01*
X149739088Y-111499048D01*
X149676387Y-111529876D01*
X149606973Y-111521911D01*
X149563094Y-111490665D01*
X149505871Y-111427112D01*
X149505870Y-111427111D01*
X149365018Y-111324776D01*
X149322352Y-111269446D01*
X149316373Y-111199833D01*
X149324627Y-111174015D01*
X149327180Y-111168281D01*
X149345551Y-111111740D01*
X149385674Y-110988256D01*
X149405460Y-110800000D01*
X149385674Y-110611744D01*
X149327179Y-110431716D01*
X149232533Y-110267784D01*
X149105871Y-110127112D01*
X149105870Y-110127111D01*
X148952734Y-110015851D01*
X148952729Y-110015848D01*
X148779807Y-109938857D01*
X148779802Y-109938855D01*
X148634000Y-109907865D01*
X148594646Y-109899500D01*
X148405354Y-109899500D01*
X148372897Y-109906398D01*
X148220197Y-109938855D01*
X148220192Y-109938857D01*
X148047270Y-110015848D01*
X148047265Y-110015851D01*
X147894129Y-110127111D01*
X147767466Y-110267785D01*
X147672821Y-110431715D01*
X147672818Y-110431722D01*
X147614327Y-110611740D01*
X147614326Y-110611744D01*
X147594540Y-110800000D01*
X137310551Y-110800000D01*
X137310551Y-108000000D01*
X146594540Y-108000000D01*
X146614326Y-108188256D01*
X146614327Y-108188259D01*
X146672818Y-108368277D01*
X146672821Y-108368284D01*
X146767467Y-108532216D01*
X146863487Y-108638857D01*
X146894129Y-108672888D01*
X147047265Y-108784148D01*
X147047270Y-108784151D01*
X147220192Y-108861142D01*
X147220197Y-108861144D01*
X147405354Y-108900500D01*
X147405355Y-108900500D01*
X147594644Y-108900500D01*
X147594646Y-108900500D01*
X147779803Y-108861144D01*
X147952730Y-108784151D01*
X148105871Y-108672888D01*
X148232533Y-108532216D01*
X148327179Y-108368284D01*
X148385674Y-108188256D01*
X148405460Y-108000000D01*
X148385674Y-107811744D01*
X148327179Y-107631716D01*
X148232533Y-107467784D01*
X148105871Y-107327112D01*
X148105870Y-107327111D01*
X147952734Y-107215851D01*
X147952729Y-107215848D01*
X147779807Y-107138857D01*
X147779802Y-107138855D01*
X147634001Y-107107865D01*
X147594646Y-107099500D01*
X147405354Y-107099500D01*
X147372897Y-107106398D01*
X147220197Y-107138855D01*
X147220192Y-107138857D01*
X147047270Y-107215848D01*
X147047265Y-107215851D01*
X146894129Y-107327111D01*
X146767466Y-107467785D01*
X146672821Y-107631715D01*
X146672818Y-107631722D01*
X146628609Y-107767785D01*
X146614326Y-107811744D01*
X146594540Y-108000000D01*
X137310551Y-108000000D01*
X137310551Y-106815000D01*
X144294540Y-106815000D01*
X144314326Y-107003256D01*
X144314327Y-107003259D01*
X144372818Y-107183277D01*
X144372821Y-107183284D01*
X144467467Y-107347216D01*
X144549981Y-107438857D01*
X144594129Y-107487888D01*
X144747265Y-107599148D01*
X144747270Y-107599151D01*
X144920192Y-107676142D01*
X144920197Y-107676144D01*
X145105354Y-107715500D01*
X145105355Y-107715500D01*
X145294644Y-107715500D01*
X145294646Y-107715500D01*
X145479803Y-107676144D01*
X145652730Y-107599151D01*
X145805871Y-107487888D01*
X145932533Y-107347216D01*
X146027179Y-107183284D01*
X146085674Y-107003256D01*
X146105460Y-106815000D01*
X146085674Y-106626744D01*
X146027179Y-106446716D01*
X145932533Y-106282784D01*
X145805871Y-106142112D01*
X145805870Y-106142111D01*
X145652734Y-106030851D01*
X145652729Y-106030848D01*
X145479807Y-105953857D01*
X145479802Y-105953855D01*
X145334001Y-105922865D01*
X145294646Y-105914500D01*
X145105354Y-105914500D01*
X145072897Y-105921398D01*
X144920197Y-105953855D01*
X144920192Y-105953857D01*
X144747270Y-106030848D01*
X144747265Y-106030851D01*
X144594129Y-106142111D01*
X144467466Y-106282785D01*
X144372821Y-106446715D01*
X144372818Y-106446722D01*
X144327763Y-106585388D01*
X144314326Y-106626744D01*
X144294540Y-106815000D01*
X137310551Y-106815000D01*
X137310551Y-105912500D01*
X148682040Y-105912500D01*
X148701826Y-106100756D01*
X148701827Y-106100759D01*
X148760318Y-106280777D01*
X148760321Y-106280784D01*
X148854967Y-106444716D01*
X148890472Y-106484148D01*
X148981629Y-106585388D01*
X149134765Y-106696648D01*
X149134770Y-106696651D01*
X149307692Y-106773642D01*
X149307697Y-106773644D01*
X149492854Y-106813000D01*
X149492855Y-106813000D01*
X149682144Y-106813000D01*
X149682146Y-106813000D01*
X149867303Y-106773644D01*
X150040230Y-106696651D01*
X150193371Y-106585388D01*
X150320033Y-106444716D01*
X150414679Y-106280784D01*
X150473174Y-106100756D01*
X150492960Y-105912500D01*
X150473174Y-105724244D01*
X150465297Y-105700000D01*
X160894540Y-105700000D01*
X160914326Y-105888256D01*
X160914327Y-105888259D01*
X160972818Y-106068277D01*
X160972821Y-106068284D01*
X161067467Y-106232216D01*
X161111192Y-106280777D01*
X161194129Y-106372888D01*
X161347265Y-106484148D01*
X161347270Y-106484151D01*
X161520192Y-106561142D01*
X161520197Y-106561144D01*
X161705354Y-106600500D01*
X161705355Y-106600500D01*
X161894644Y-106600500D01*
X161894646Y-106600500D01*
X162079803Y-106561144D01*
X162252730Y-106484151D01*
X162405871Y-106372888D01*
X162532533Y-106232216D01*
X162627179Y-106068284D01*
X162685674Y-105888256D01*
X162705460Y-105700000D01*
X162685674Y-105511744D01*
X162627179Y-105331716D01*
X162532533Y-105167784D01*
X162405871Y-105027112D01*
X162405870Y-105027111D01*
X162252734Y-104915851D01*
X162252729Y-104915848D01*
X162079807Y-104838857D01*
X162079802Y-104838855D01*
X161934001Y-104807865D01*
X161894646Y-104799500D01*
X161705354Y-104799500D01*
X161672897Y-104806398D01*
X161520197Y-104838855D01*
X161520192Y-104838857D01*
X161347270Y-104915848D01*
X161347265Y-104915851D01*
X161194129Y-105027111D01*
X161067466Y-105167785D01*
X160972821Y-105331715D01*
X160972818Y-105331722D01*
X160914327Y-105511740D01*
X160914326Y-105511744D01*
X160894540Y-105700000D01*
X150465297Y-105700000D01*
X150414679Y-105544216D01*
X150320033Y-105380284D01*
X150193371Y-105239612D01*
X150193370Y-105239611D01*
X150040234Y-105128351D01*
X150040229Y-105128348D01*
X149867307Y-105051357D01*
X149867302Y-105051355D01*
X149721500Y-105020365D01*
X149682146Y-105012000D01*
X149492854Y-105012000D01*
X149460397Y-105018898D01*
X149307697Y-105051355D01*
X149307692Y-105051357D01*
X149134770Y-105128348D01*
X149134765Y-105128351D01*
X148981629Y-105239611D01*
X148854966Y-105380285D01*
X148760321Y-105544215D01*
X148760318Y-105544222D01*
X148709703Y-105700000D01*
X148701826Y-105724244D01*
X148682040Y-105912500D01*
X137310551Y-105912500D01*
X137310551Y-104000000D01*
X151794540Y-104000000D01*
X151814326Y-104188256D01*
X151814327Y-104188259D01*
X151872818Y-104368277D01*
X151872821Y-104368284D01*
X151967467Y-104532216D01*
X152094128Y-104672887D01*
X152094129Y-104672888D01*
X152247265Y-104784148D01*
X152247270Y-104784151D01*
X152420192Y-104861142D01*
X152420197Y-104861144D01*
X152605354Y-104900500D01*
X152605355Y-104900500D01*
X152794644Y-104900500D01*
X152794646Y-104900500D01*
X152979803Y-104861144D01*
X153152730Y-104784151D01*
X153305871Y-104672888D01*
X153432533Y-104532216D01*
X153451133Y-104500000D01*
X162994540Y-104500000D01*
X163014326Y-104688256D01*
X163014327Y-104688259D01*
X163072818Y-104868277D01*
X163072821Y-104868284D01*
X163167467Y-105032216D01*
X163184701Y-105051356D01*
X163294129Y-105172888D01*
X163447265Y-105284148D01*
X163447270Y-105284151D01*
X163620192Y-105361142D01*
X163620197Y-105361144D01*
X163805354Y-105400500D01*
X163805355Y-105400500D01*
X163994644Y-105400500D01*
X163994646Y-105400500D01*
X164179803Y-105361144D01*
X164352730Y-105284151D01*
X164505871Y-105172888D01*
X164632533Y-105032216D01*
X164727179Y-104868284D01*
X164785674Y-104688256D01*
X164805460Y-104500000D01*
X164785674Y-104311744D01*
X164727179Y-104131716D01*
X164632533Y-103967784D01*
X164505871Y-103827112D01*
X164484719Y-103811744D01*
X164352734Y-103715851D01*
X164352729Y-103715848D01*
X164179807Y-103638857D01*
X164179802Y-103638855D01*
X164034000Y-103607865D01*
X163994646Y-103599500D01*
X163805354Y-103599500D01*
X163772897Y-103606398D01*
X163620197Y-103638855D01*
X163620192Y-103638857D01*
X163447270Y-103715848D01*
X163447265Y-103715851D01*
X163294129Y-103827111D01*
X163167466Y-103967785D01*
X163072821Y-104131715D01*
X163072818Y-104131722D01*
X163014327Y-104311740D01*
X163014326Y-104311744D01*
X162994540Y-104500000D01*
X153451133Y-104500000D01*
X153527179Y-104368284D01*
X153585674Y-104188256D01*
X153605460Y-104000000D01*
X153585674Y-103811744D01*
X153527179Y-103631716D01*
X153432533Y-103467784D01*
X153305871Y-103327112D01*
X153305870Y-103327111D01*
X153152734Y-103215851D01*
X153152729Y-103215848D01*
X152979807Y-103138857D01*
X152979802Y-103138855D01*
X152834000Y-103107865D01*
X152794646Y-103099500D01*
X152605354Y-103099500D01*
X152572897Y-103106398D01*
X152420197Y-103138855D01*
X152420192Y-103138857D01*
X152247270Y-103215848D01*
X152247265Y-103215851D01*
X152094129Y-103327111D01*
X151967466Y-103467785D01*
X151872821Y-103631715D01*
X151872818Y-103631722D01*
X151840166Y-103732216D01*
X151814326Y-103811744D01*
X151794540Y-104000000D01*
X137310551Y-104000000D01*
X137310551Y-102672517D01*
X137330236Y-102605478D01*
X137383040Y-102559723D01*
X137452198Y-102549779D01*
X137515754Y-102578804D01*
X137539783Y-102606926D01*
X137619488Y-102734803D01*
X137619489Y-102734804D01*
X137619491Y-102734807D01*
X137752677Y-102874919D01*
X137911342Y-102985353D01*
X138088988Y-103061587D01*
X138278344Y-103100500D01*
X139323207Y-103100500D01*
X139467322Y-103085845D01*
X139651759Y-103027977D01*
X139651760Y-103027976D01*
X139651768Y-103027974D01*
X139820791Y-102934159D01*
X139967468Y-102808240D01*
X140085796Y-102655373D01*
X140170930Y-102481816D01*
X140214966Y-102311740D01*
X140219383Y-102294682D01*
X140219384Y-102294676D01*
X140219385Y-102294674D01*
X140229176Y-102101610D01*
X140228929Y-102100000D01*
X154794540Y-102100000D01*
X154814326Y-102288256D01*
X154814327Y-102288259D01*
X154872818Y-102468277D01*
X154872821Y-102468284D01*
X154967467Y-102632216D01*
X155059837Y-102734803D01*
X155094129Y-102772888D01*
X155247265Y-102884148D01*
X155247270Y-102884151D01*
X155420192Y-102961142D01*
X155420197Y-102961144D01*
X155605354Y-103000500D01*
X155605355Y-103000500D01*
X155794644Y-103000500D01*
X155794646Y-103000500D01*
X155979803Y-102961144D01*
X156152730Y-102884151D01*
X156177113Y-102866435D01*
X156242916Y-102842954D01*
X156310971Y-102858778D01*
X156322880Y-102866431D01*
X156325431Y-102868284D01*
X156347270Y-102884151D01*
X156520192Y-102961142D01*
X156520197Y-102961144D01*
X156705354Y-103000500D01*
X156705355Y-103000500D01*
X156894645Y-103000500D01*
X156894646Y-103000500D01*
X156945708Y-102989646D01*
X157015373Y-102994961D01*
X157063638Y-103027964D01*
X157194129Y-103172888D01*
X157347265Y-103284148D01*
X157347270Y-103284151D01*
X157520192Y-103361142D01*
X157520197Y-103361144D01*
X157705354Y-103400500D01*
X157705355Y-103400500D01*
X157894644Y-103400500D01*
X157894646Y-103400500D01*
X158079803Y-103361144D01*
X158252730Y-103284151D01*
X158368554Y-103200000D01*
X164694540Y-103200000D01*
X164714326Y-103388256D01*
X164714327Y-103388259D01*
X164772818Y-103568277D01*
X164772821Y-103568284D01*
X164867467Y-103732216D01*
X164939071Y-103811740D01*
X164994129Y-103872888D01*
X165147265Y-103984148D01*
X165147270Y-103984151D01*
X165320192Y-104061142D01*
X165320197Y-104061144D01*
X165505354Y-104100500D01*
X165505355Y-104100500D01*
X165694644Y-104100500D01*
X165694646Y-104100500D01*
X165879803Y-104061144D01*
X166052730Y-103984151D01*
X166205871Y-103872888D01*
X166332533Y-103732216D01*
X166427179Y-103568284D01*
X166485674Y-103388256D01*
X166505460Y-103200000D01*
X166485674Y-103011744D01*
X166427179Y-102831716D01*
X166332533Y-102667784D01*
X166205871Y-102527112D01*
X166205870Y-102527111D01*
X166052734Y-102415851D01*
X166052729Y-102415848D01*
X165879807Y-102338857D01*
X165879802Y-102338855D01*
X165734001Y-102307865D01*
X165694646Y-102299500D01*
X165505354Y-102299500D01*
X165472897Y-102306398D01*
X165320197Y-102338855D01*
X165320192Y-102338857D01*
X165147270Y-102415848D01*
X165147265Y-102415851D01*
X164994129Y-102527111D01*
X164867466Y-102667785D01*
X164772821Y-102831715D01*
X164772818Y-102831722D01*
X164730767Y-102961144D01*
X164714326Y-103011744D01*
X164694540Y-103200000D01*
X158368554Y-103200000D01*
X158405871Y-103172888D01*
X158532533Y-103032216D01*
X158627179Y-102868284D01*
X158685674Y-102688256D01*
X158705460Y-102500000D01*
X158685674Y-102311744D01*
X158627179Y-102131716D01*
X158532533Y-101967784D01*
X158405871Y-101827112D01*
X158393583Y-101818184D01*
X158252734Y-101715851D01*
X158252729Y-101715848D01*
X158079807Y-101638857D01*
X158079802Y-101638855D01*
X157934001Y-101607865D01*
X157894646Y-101599500D01*
X157705354Y-101599500D01*
X157654289Y-101610353D01*
X157584623Y-101605037D01*
X157536361Y-101572035D01*
X157405870Y-101427111D01*
X157252734Y-101315851D01*
X157252729Y-101315848D01*
X157079807Y-101238857D01*
X157079802Y-101238855D01*
X156934000Y-101207865D01*
X156896998Y-101200000D01*
X159094540Y-101200000D01*
X159114326Y-101388256D01*
X159114327Y-101388259D01*
X159172818Y-101568277D01*
X159172821Y-101568284D01*
X159267467Y-101732216D01*
X159344873Y-101818184D01*
X159394129Y-101872888D01*
X159547265Y-101984148D01*
X159547270Y-101984151D01*
X159720192Y-102061142D01*
X159720197Y-102061144D01*
X159905354Y-102100500D01*
X159905355Y-102100500D01*
X160094644Y-102100500D01*
X160094646Y-102100500D01*
X160279803Y-102061144D01*
X160452730Y-101984151D01*
X160605871Y-101872888D01*
X160732533Y-101732216D01*
X160827179Y-101568284D01*
X160885674Y-101388256D01*
X160905460Y-101200000D01*
X160885674Y-101011744D01*
X160827179Y-100831716D01*
X160732533Y-100667784D01*
X160605871Y-100527112D01*
X160605870Y-100527111D01*
X160452734Y-100415851D01*
X160452729Y-100415848D01*
X160279807Y-100338857D01*
X160279802Y-100338855D01*
X160134000Y-100307865D01*
X160094646Y-100299500D01*
X159905354Y-100299500D01*
X159872897Y-100306398D01*
X159720197Y-100338855D01*
X159720192Y-100338857D01*
X159547270Y-100415848D01*
X159547265Y-100415851D01*
X159394129Y-100527111D01*
X159267466Y-100667785D01*
X159172821Y-100831715D01*
X159172818Y-100831722D01*
X159114327Y-101011740D01*
X159114326Y-101011744D01*
X159094540Y-101200000D01*
X156896998Y-101200000D01*
X156894646Y-101199500D01*
X156705354Y-101199500D01*
X156672897Y-101206398D01*
X156520197Y-101238855D01*
X156520192Y-101238857D01*
X156347270Y-101315848D01*
X156347265Y-101315851D01*
X156322885Y-101333565D01*
X156257079Y-101357045D01*
X156189025Y-101341219D01*
X156177115Y-101333565D01*
X156152734Y-101315851D01*
X156152729Y-101315848D01*
X155979807Y-101238857D01*
X155979802Y-101238855D01*
X155834000Y-101207865D01*
X155794646Y-101199500D01*
X155605354Y-101199500D01*
X155572897Y-101206398D01*
X155420197Y-101238855D01*
X155420192Y-101238857D01*
X155247270Y-101315848D01*
X155247265Y-101315851D01*
X155094129Y-101427111D01*
X154967466Y-101567785D01*
X154872821Y-101731715D01*
X154872818Y-101731722D01*
X154814719Y-101910533D01*
X154814326Y-101911744D01*
X154794540Y-102100000D01*
X140228929Y-102100000D01*
X140199903Y-101910526D01*
X140132764Y-101729247D01*
X140124413Y-101715849D01*
X140030511Y-101565196D01*
X140030510Y-101565195D01*
X140030509Y-101565193D01*
X139897323Y-101425081D01*
X139844420Y-101388259D01*
X139738657Y-101314646D01*
X139561012Y-101238413D01*
X139371656Y-101199500D01*
X138326794Y-101199500D01*
X138326793Y-101199500D01*
X138182677Y-101214154D01*
X137998240Y-101272022D01*
X137998225Y-101272029D01*
X137829211Y-101365839D01*
X137829206Y-101365842D01*
X137682533Y-101491758D01*
X137682531Y-101491759D01*
X137564205Y-101644624D01*
X137564201Y-101644632D01*
X137545878Y-101681986D01*
X137498681Y-101733505D01*
X137431123Y-101751329D01*
X137364653Y-101729798D01*
X137320376Y-101675750D01*
X137310551Y-101627376D01*
X137310551Y-100200000D01*
X141794540Y-100200000D01*
X141814326Y-100388256D01*
X141814327Y-100388259D01*
X141872818Y-100568277D01*
X141872821Y-100568284D01*
X141967467Y-100732216D01*
X142057063Y-100831722D01*
X142094129Y-100872888D01*
X142247265Y-100984148D01*
X142247270Y-100984151D01*
X142420192Y-101061142D01*
X142420197Y-101061144D01*
X142605354Y-101100500D01*
X142605355Y-101100500D01*
X142794644Y-101100500D01*
X142794646Y-101100500D01*
X142979803Y-101061144D01*
X143152730Y-100984151D01*
X143305871Y-100872888D01*
X143432533Y-100732216D01*
X143527179Y-100568284D01*
X143585674Y-100388256D01*
X143605460Y-100200000D01*
X143585674Y-100011744D01*
X143527179Y-99831716D01*
X143432533Y-99667784D01*
X143305871Y-99527112D01*
X143284719Y-99511744D01*
X143152734Y-99415851D01*
X143152729Y-99415848D01*
X142979807Y-99338857D01*
X142979802Y-99338855D01*
X142834001Y-99307865D01*
X142794646Y-99299500D01*
X142605354Y-99299500D01*
X142572897Y-99306398D01*
X142420197Y-99338855D01*
X142420192Y-99338857D01*
X142247270Y-99415848D01*
X142247265Y-99415851D01*
X142094129Y-99527111D01*
X141967466Y-99667785D01*
X141872821Y-99831715D01*
X141872818Y-99831722D01*
X141814436Y-100011406D01*
X141814326Y-100011744D01*
X141794540Y-100200000D01*
X137310551Y-100200000D01*
X137310551Y-99200000D01*
X148094540Y-99200000D01*
X148114326Y-99388256D01*
X148114327Y-99388259D01*
X148172818Y-99568277D01*
X148172821Y-99568284D01*
X148267467Y-99732216D01*
X148357063Y-99831722D01*
X148394129Y-99872888D01*
X148547265Y-99984148D01*
X148547270Y-99984151D01*
X148720192Y-100061142D01*
X148720197Y-100061144D01*
X148905354Y-100100500D01*
X148905355Y-100100500D01*
X149094644Y-100100500D01*
X149094646Y-100100500D01*
X149279803Y-100061144D01*
X149370659Y-100020691D01*
X149439907Y-100011406D01*
X149503184Y-100041034D01*
X149540398Y-100100169D01*
X149539734Y-100170035D01*
X149513244Y-100216943D01*
X149467466Y-100267784D01*
X149372821Y-100431715D01*
X149372818Y-100431722D01*
X149314327Y-100611740D01*
X149314326Y-100611744D01*
X149294540Y-100800000D01*
X149314326Y-100988256D01*
X149314327Y-100988259D01*
X149372818Y-101168277D01*
X149372821Y-101168284D01*
X149467467Y-101332216D01*
X149552911Y-101427111D01*
X149594129Y-101472888D01*
X149747265Y-101584148D01*
X149747270Y-101584151D01*
X149920192Y-101661142D01*
X149920197Y-101661144D01*
X150105354Y-101700500D01*
X150105355Y-101700500D01*
X150294644Y-101700500D01*
X150294646Y-101700500D01*
X150479803Y-101661144D01*
X150652730Y-101584151D01*
X150805871Y-101472888D01*
X150932533Y-101332216D01*
X151027179Y-101168284D01*
X151085674Y-100988256D01*
X151105460Y-100800000D01*
X151085674Y-100611744D01*
X151029642Y-100439297D01*
X151027181Y-100431722D01*
X151027180Y-100431721D01*
X151027179Y-100431716D01*
X150932533Y-100267784D01*
X150805871Y-100127112D01*
X150769243Y-100100500D01*
X150652734Y-100015851D01*
X150652729Y-100015848D01*
X150479807Y-99938857D01*
X150479802Y-99938855D01*
X150334000Y-99907865D01*
X150294646Y-99899500D01*
X150105354Y-99899500D01*
X150072897Y-99906398D01*
X149920197Y-99938855D01*
X149829340Y-99979308D01*
X149760090Y-99988592D01*
X149696814Y-99958964D01*
X149659601Y-99899829D01*
X149660266Y-99829962D01*
X149686753Y-99783058D01*
X149732533Y-99732216D01*
X149827179Y-99568284D01*
X149885674Y-99388256D01*
X149905460Y-99200000D01*
X149885674Y-99011744D01*
X149827179Y-98831716D01*
X149732533Y-98667784D01*
X149605871Y-98527112D01*
X149569243Y-98500500D01*
X149452734Y-98415851D01*
X149452729Y-98415848D01*
X149417134Y-98400000D01*
X150794540Y-98400000D01*
X150814326Y-98588256D01*
X150814327Y-98588259D01*
X150872818Y-98768277D01*
X150872821Y-98768284D01*
X150967467Y-98932216D01*
X151063487Y-99038857D01*
X151094129Y-99072888D01*
X151247265Y-99184148D01*
X151247270Y-99184151D01*
X151420192Y-99261142D01*
X151420197Y-99261144D01*
X151605354Y-99300500D01*
X151605355Y-99300500D01*
X151794644Y-99300500D01*
X151794646Y-99300500D01*
X151979803Y-99261144D01*
X152152730Y-99184151D01*
X152305871Y-99072888D01*
X152432533Y-98932216D01*
X152451133Y-98900000D01*
X153894540Y-98900000D01*
X153914326Y-99088256D01*
X153914327Y-99088259D01*
X153972818Y-99268277D01*
X153972821Y-99268284D01*
X154067467Y-99432216D01*
X154139071Y-99511740D01*
X154194129Y-99572888D01*
X154347265Y-99684148D01*
X154347270Y-99684151D01*
X154520192Y-99761142D01*
X154520197Y-99761144D01*
X154705354Y-99800500D01*
X154705355Y-99800500D01*
X154894644Y-99800500D01*
X154894646Y-99800500D01*
X155045148Y-99768510D01*
X155114815Y-99773826D01*
X155170549Y-99815963D01*
X155194654Y-99881543D01*
X155194426Y-99893502D01*
X155194540Y-99893502D01*
X155194540Y-99899997D01*
X155194540Y-99900000D01*
X155214326Y-100088256D01*
X155214327Y-100088259D01*
X155272818Y-100268277D01*
X155272821Y-100268284D01*
X155367467Y-100432216D01*
X155414227Y-100484148D01*
X155494129Y-100572888D01*
X155647265Y-100684148D01*
X155647270Y-100684151D01*
X155820192Y-100761142D01*
X155820197Y-100761144D01*
X156005354Y-100800500D01*
X156005355Y-100800500D01*
X156194644Y-100800500D01*
X156194646Y-100800500D01*
X156379803Y-100761144D01*
X156552730Y-100684151D01*
X156654072Y-100610521D01*
X156719875Y-100587043D01*
X156777391Y-100597562D01*
X156920192Y-100661142D01*
X156920197Y-100661144D01*
X157105354Y-100700500D01*
X157105355Y-100700500D01*
X157294644Y-100700500D01*
X157294646Y-100700500D01*
X157479803Y-100661144D01*
X157652730Y-100584151D01*
X157805871Y-100472888D01*
X157820498Y-100456642D01*
X157879981Y-100419994D01*
X157949839Y-100421323D01*
X157985534Y-100439297D01*
X158047264Y-100484147D01*
X158047270Y-100484151D01*
X158220192Y-100561142D01*
X158220197Y-100561144D01*
X158405354Y-100600500D01*
X158405355Y-100600500D01*
X158594644Y-100600500D01*
X158594646Y-100600500D01*
X158779803Y-100561144D01*
X158952730Y-100484151D01*
X159105871Y-100372888D01*
X159232533Y-100232216D01*
X159327179Y-100068284D01*
X159385674Y-99888256D01*
X159405460Y-99700000D01*
X159385674Y-99511744D01*
X159349366Y-99400000D01*
X162894540Y-99400000D01*
X162914326Y-99588256D01*
X162914327Y-99588259D01*
X162972818Y-99768277D01*
X162972821Y-99768284D01*
X163067467Y-99932216D01*
X163183553Y-100061142D01*
X163194129Y-100072888D01*
X163347265Y-100184148D01*
X163347270Y-100184151D01*
X163520192Y-100261142D01*
X163520197Y-100261144D01*
X163705354Y-100300500D01*
X163705355Y-100300500D01*
X163894644Y-100300500D01*
X163894646Y-100300500D01*
X164079803Y-100261144D01*
X164252730Y-100184151D01*
X164405871Y-100072888D01*
X164532533Y-99932216D01*
X164627179Y-99768284D01*
X164685674Y-99588256D01*
X164694950Y-99500000D01*
X166494540Y-99500000D01*
X166514326Y-99688256D01*
X166514327Y-99688259D01*
X166572818Y-99868277D01*
X166572821Y-99868284D01*
X166667467Y-100032216D01*
X166752911Y-100127111D01*
X166794129Y-100172888D01*
X166947265Y-100284148D01*
X166947270Y-100284151D01*
X167120192Y-100361142D01*
X167120197Y-100361144D01*
X167305354Y-100400500D01*
X167305355Y-100400500D01*
X167494644Y-100400500D01*
X167494646Y-100400500D01*
X167679803Y-100361144D01*
X167852730Y-100284151D01*
X168005871Y-100172888D01*
X168132533Y-100032216D01*
X168227179Y-99868284D01*
X168285674Y-99688256D01*
X168305460Y-99500000D01*
X168285674Y-99311744D01*
X168227179Y-99131716D01*
X168132533Y-98967784D01*
X168005871Y-98827112D01*
X168005870Y-98827111D01*
X167852734Y-98715851D01*
X167852729Y-98715848D01*
X167679807Y-98638857D01*
X167679802Y-98638855D01*
X167534001Y-98607865D01*
X167494646Y-98599500D01*
X167305354Y-98599500D01*
X167272897Y-98606398D01*
X167120197Y-98638855D01*
X167120192Y-98638857D01*
X166947270Y-98715848D01*
X166947265Y-98715851D01*
X166794129Y-98827111D01*
X166667466Y-98967785D01*
X166572821Y-99131715D01*
X166572818Y-99131722D01*
X166530767Y-99261144D01*
X166514326Y-99311744D01*
X166494540Y-99500000D01*
X164694950Y-99500000D01*
X164705460Y-99400000D01*
X164685674Y-99211744D01*
X164627179Y-99031716D01*
X164532533Y-98867784D01*
X164405871Y-98727112D01*
X164390369Y-98715849D01*
X164252734Y-98615851D01*
X164252729Y-98615848D01*
X164079807Y-98538857D01*
X164079802Y-98538855D01*
X163934000Y-98507865D01*
X163894646Y-98499500D01*
X163705354Y-98499500D01*
X163672897Y-98506398D01*
X163520197Y-98538855D01*
X163520192Y-98538857D01*
X163347270Y-98615848D01*
X163347265Y-98615851D01*
X163194129Y-98727111D01*
X163067466Y-98867785D01*
X162972821Y-99031715D01*
X162972818Y-99031722D01*
X162918142Y-99200000D01*
X162914326Y-99211744D01*
X162894540Y-99400000D01*
X159349366Y-99400000D01*
X159327179Y-99331716D01*
X159232533Y-99167784D01*
X159105871Y-99027112D01*
X159090369Y-99015849D01*
X158952734Y-98915851D01*
X158952729Y-98915848D01*
X158779807Y-98838857D01*
X158779802Y-98838855D01*
X158634000Y-98807865D01*
X158594646Y-98799500D01*
X158405354Y-98799500D01*
X158372897Y-98806398D01*
X158220197Y-98838855D01*
X158220192Y-98838857D01*
X158047270Y-98915848D01*
X158047265Y-98915851D01*
X157894135Y-99027106D01*
X157894129Y-99027111D01*
X157879497Y-99043361D01*
X157820008Y-99080006D01*
X157750151Y-99078673D01*
X157714466Y-99060702D01*
X157652734Y-99015851D01*
X157652729Y-99015848D01*
X157479807Y-98938857D01*
X157479802Y-98938855D01*
X157327569Y-98906498D01*
X157294646Y-98899500D01*
X157105354Y-98899500D01*
X157072897Y-98906398D01*
X156920197Y-98938855D01*
X156920192Y-98938857D01*
X156747271Y-99015848D01*
X156645929Y-99089477D01*
X156580122Y-99112956D01*
X156522608Y-99102437D01*
X156379807Y-99038857D01*
X156379802Y-99038855D01*
X156234001Y-99007865D01*
X156194646Y-98999500D01*
X156005354Y-98999500D01*
X155897864Y-99022347D01*
X155854850Y-99031490D01*
X155785183Y-99026173D01*
X155729450Y-98984035D01*
X155705345Y-98918455D01*
X155705575Y-98906498D01*
X155705460Y-98906498D01*
X155705460Y-98900002D01*
X155702074Y-98867784D01*
X155685674Y-98711744D01*
X155627179Y-98531716D01*
X155532533Y-98367784D01*
X155405871Y-98227112D01*
X155384719Y-98211744D01*
X155252734Y-98115851D01*
X155252729Y-98115848D01*
X155079807Y-98038857D01*
X155079802Y-98038855D01*
X154934001Y-98007865D01*
X154894646Y-97999500D01*
X154705354Y-97999500D01*
X154672897Y-98006398D01*
X154520197Y-98038855D01*
X154520192Y-98038857D01*
X154347270Y-98115848D01*
X154347265Y-98115851D01*
X154194129Y-98227111D01*
X154067466Y-98367785D01*
X153972821Y-98531715D01*
X153972818Y-98531722D01*
X153928609Y-98667785D01*
X153914326Y-98711744D01*
X153894540Y-98900000D01*
X152451133Y-98900000D01*
X152527179Y-98768284D01*
X152585674Y-98588256D01*
X152605460Y-98400000D01*
X152585674Y-98211744D01*
X152527179Y-98031716D01*
X152432533Y-97867784D01*
X152305871Y-97727112D01*
X152305870Y-97727111D01*
X152152734Y-97615851D01*
X152152729Y-97615848D01*
X152117134Y-97600000D01*
X157394540Y-97600000D01*
X157414326Y-97788256D01*
X157414327Y-97788259D01*
X157472818Y-97968277D01*
X157472821Y-97968284D01*
X157567467Y-98132216D01*
X157639071Y-98211740D01*
X157694129Y-98272888D01*
X157847265Y-98384148D01*
X157847270Y-98384151D01*
X158020192Y-98461142D01*
X158020197Y-98461144D01*
X158205354Y-98500500D01*
X158205355Y-98500500D01*
X158394644Y-98500500D01*
X158394646Y-98500500D01*
X158579803Y-98461144D01*
X158752730Y-98384151D01*
X158905871Y-98272888D01*
X159032533Y-98132216D01*
X159092613Y-98028153D01*
X159143179Y-97979939D01*
X159211786Y-97966715D01*
X159276651Y-97992683D01*
X159307386Y-98028153D01*
X159367467Y-98132216D01*
X159439071Y-98211740D01*
X159494129Y-98272888D01*
X159647265Y-98384148D01*
X159647270Y-98384151D01*
X159820192Y-98461142D01*
X159820197Y-98461144D01*
X160005354Y-98500500D01*
X160005355Y-98500500D01*
X160194644Y-98500500D01*
X160194646Y-98500500D01*
X160379803Y-98461144D01*
X160552730Y-98384151D01*
X160705871Y-98272888D01*
X160832533Y-98132216D01*
X160927179Y-97968284D01*
X160985674Y-97788256D01*
X161005460Y-97600000D01*
X160985674Y-97411744D01*
X160931112Y-97243823D01*
X160927181Y-97231722D01*
X160927180Y-97231721D01*
X160927179Y-97231716D01*
X160832533Y-97067784D01*
X160705871Y-96927112D01*
X160705870Y-96927111D01*
X160552734Y-96815851D01*
X160552729Y-96815848D01*
X160379807Y-96738857D01*
X160379802Y-96738855D01*
X160234000Y-96707865D01*
X160194646Y-96699500D01*
X160005354Y-96699500D01*
X159972897Y-96706398D01*
X159820197Y-96738855D01*
X159820192Y-96738857D01*
X159647270Y-96815848D01*
X159647265Y-96815851D01*
X159494129Y-96927111D01*
X159367465Y-97067785D01*
X159307387Y-97171845D01*
X159256820Y-97220061D01*
X159188213Y-97233284D01*
X159123348Y-97207316D01*
X159092613Y-97171845D01*
X159032534Y-97067785D01*
X158905870Y-96927111D01*
X158752734Y-96815851D01*
X158752729Y-96815848D01*
X158579807Y-96738857D01*
X158579802Y-96738855D01*
X158434000Y-96707865D01*
X158394646Y-96699500D01*
X158205354Y-96699500D01*
X158172897Y-96706398D01*
X158020197Y-96738855D01*
X158020192Y-96738857D01*
X157847270Y-96815848D01*
X157847265Y-96815851D01*
X157694129Y-96927111D01*
X157567466Y-97067785D01*
X157472821Y-97231715D01*
X157472818Y-97231722D01*
X157414327Y-97411740D01*
X157414326Y-97411744D01*
X157394540Y-97600000D01*
X152117134Y-97600000D01*
X151979807Y-97538857D01*
X151979802Y-97538855D01*
X151834000Y-97507865D01*
X151794646Y-97499500D01*
X151605354Y-97499500D01*
X151572897Y-97506398D01*
X151420197Y-97538855D01*
X151420192Y-97538857D01*
X151247270Y-97615848D01*
X151247265Y-97615851D01*
X151094129Y-97727111D01*
X150967466Y-97867785D01*
X150872821Y-98031715D01*
X150872818Y-98031722D01*
X150840166Y-98132216D01*
X150814326Y-98211744D01*
X150794540Y-98400000D01*
X149417134Y-98400000D01*
X149279807Y-98338857D01*
X149279802Y-98338855D01*
X149134001Y-98307865D01*
X149094646Y-98299500D01*
X148905354Y-98299500D01*
X148872897Y-98306398D01*
X148720197Y-98338855D01*
X148720192Y-98338857D01*
X148547270Y-98415848D01*
X148547265Y-98415851D01*
X148394129Y-98527111D01*
X148267466Y-98667785D01*
X148172821Y-98831715D01*
X148172818Y-98831722D01*
X148128609Y-98967785D01*
X148114326Y-99011744D01*
X148094540Y-99200000D01*
X137310551Y-99200000D01*
X137310551Y-96072517D01*
X137330236Y-96005478D01*
X137383040Y-95959723D01*
X137452198Y-95949779D01*
X137515754Y-95978804D01*
X137539781Y-96006924D01*
X137542786Y-96011744D01*
X137619488Y-96134803D01*
X137619489Y-96134804D01*
X137619491Y-96134807D01*
X137752677Y-96274919D01*
X137911342Y-96385353D01*
X138088988Y-96461587D01*
X138278344Y-96500500D01*
X139323207Y-96500500D01*
X139467322Y-96485845D01*
X139651759Y-96427977D01*
X139651760Y-96427976D01*
X139651768Y-96427974D01*
X139820791Y-96334159D01*
X139967468Y-96208240D01*
X139973846Y-96200000D01*
X143394540Y-96200000D01*
X143414326Y-96388256D01*
X143414327Y-96388259D01*
X143472818Y-96568277D01*
X143472821Y-96568284D01*
X143567467Y-96732216D01*
X143642770Y-96815848D01*
X143694129Y-96872888D01*
X143847265Y-96984148D01*
X143847270Y-96984151D01*
X144020192Y-97061142D01*
X144020197Y-97061144D01*
X144205354Y-97100500D01*
X144205355Y-97100500D01*
X144394644Y-97100500D01*
X144394646Y-97100500D01*
X144579803Y-97061144D01*
X144752730Y-96984151D01*
X144905871Y-96872888D01*
X145032533Y-96732216D01*
X145127179Y-96568284D01*
X145185674Y-96388256D01*
X145205460Y-96200000D01*
X145194950Y-96100000D01*
X148994540Y-96100000D01*
X149014326Y-96288256D01*
X149014327Y-96288259D01*
X149072818Y-96468277D01*
X149072821Y-96468284D01*
X149167467Y-96632216D01*
X149263487Y-96738857D01*
X149294129Y-96772888D01*
X149447265Y-96884148D01*
X149447270Y-96884151D01*
X149620192Y-96961142D01*
X149620197Y-96961144D01*
X149805354Y-97000500D01*
X149805355Y-97000500D01*
X149994644Y-97000500D01*
X149994646Y-97000500D01*
X150179803Y-96961144D01*
X150352730Y-96884151D01*
X150505871Y-96772888D01*
X150632533Y-96632216D01*
X150727179Y-96468284D01*
X150785674Y-96288256D01*
X150805460Y-96100000D01*
X150785674Y-95911744D01*
X150727179Y-95731716D01*
X150632533Y-95567784D01*
X150505871Y-95427112D01*
X150490369Y-95415849D01*
X150468555Y-95400000D01*
X165294540Y-95400000D01*
X165314326Y-95588256D01*
X165314327Y-95588259D01*
X165372818Y-95768277D01*
X165372821Y-95768284D01*
X165467467Y-95932216D01*
X165539071Y-96011740D01*
X165594129Y-96072888D01*
X165747265Y-96184148D01*
X165747270Y-96184151D01*
X165920192Y-96261142D01*
X165920197Y-96261144D01*
X166105354Y-96300500D01*
X166105355Y-96300500D01*
X166294644Y-96300500D01*
X166294646Y-96300500D01*
X166479803Y-96261144D01*
X166652730Y-96184151D01*
X166805871Y-96072888D01*
X166932533Y-95932216D01*
X167027179Y-95768284D01*
X167085674Y-95588256D01*
X167105460Y-95400000D01*
X167085674Y-95211744D01*
X167027179Y-95031716D01*
X166932533Y-94867784D01*
X166805871Y-94727112D01*
X166805870Y-94727111D01*
X166652734Y-94615851D01*
X166652729Y-94615848D01*
X166479807Y-94538857D01*
X166479802Y-94538855D01*
X166334000Y-94507865D01*
X166294646Y-94499500D01*
X166105354Y-94499500D01*
X166072897Y-94506398D01*
X165920197Y-94538855D01*
X165920192Y-94538857D01*
X165747270Y-94615848D01*
X165747265Y-94615851D01*
X165594129Y-94727111D01*
X165467466Y-94867785D01*
X165372821Y-95031715D01*
X165372818Y-95031722D01*
X165333956Y-95151329D01*
X165314326Y-95211744D01*
X165294540Y-95400000D01*
X150468555Y-95400000D01*
X150352734Y-95315851D01*
X150352729Y-95315848D01*
X150179807Y-95238857D01*
X150179802Y-95238855D01*
X150034001Y-95207865D01*
X149994646Y-95199500D01*
X149805354Y-95199500D01*
X149772897Y-95206398D01*
X149620197Y-95238855D01*
X149620192Y-95238857D01*
X149447270Y-95315848D01*
X149447265Y-95315851D01*
X149294129Y-95427111D01*
X149167466Y-95567785D01*
X149072821Y-95731715D01*
X149072818Y-95731722D01*
X149024050Y-95881816D01*
X149014326Y-95911744D01*
X148994540Y-96100000D01*
X145194950Y-96100000D01*
X145185674Y-96011744D01*
X145127179Y-95831716D01*
X145032533Y-95667784D01*
X144905871Y-95527112D01*
X144905870Y-95527111D01*
X144752734Y-95415851D01*
X144752729Y-95415848D01*
X144579807Y-95338857D01*
X144579802Y-95338855D01*
X144434001Y-95307865D01*
X144394646Y-95299500D01*
X144205354Y-95299500D01*
X144172897Y-95306398D01*
X144020197Y-95338855D01*
X144020192Y-95338857D01*
X143847270Y-95415848D01*
X143847265Y-95415851D01*
X143694129Y-95527111D01*
X143567466Y-95667785D01*
X143472821Y-95831715D01*
X143472818Y-95831722D01*
X143416362Y-96005478D01*
X143414326Y-96011744D01*
X143394540Y-96200000D01*
X139973846Y-96200000D01*
X140085796Y-96055373D01*
X140170930Y-95881816D01*
X140200328Y-95768277D01*
X140219383Y-95694682D01*
X140219384Y-95694676D01*
X140219385Y-95694674D01*
X140229176Y-95501610D01*
X140199903Y-95310526D01*
X140132764Y-95129247D01*
X140099419Y-95075750D01*
X140030511Y-94965196D01*
X140030510Y-94965195D01*
X140030509Y-94965193D01*
X139897323Y-94825081D01*
X139812211Y-94765841D01*
X139738657Y-94714646D01*
X139561012Y-94638413D01*
X139371656Y-94599500D01*
X138326794Y-94599500D01*
X138326793Y-94599500D01*
X138182677Y-94614154D01*
X137998240Y-94672022D01*
X137998225Y-94672029D01*
X137829211Y-94765839D01*
X137829206Y-94765842D01*
X137682533Y-94891758D01*
X137682531Y-94891759D01*
X137564205Y-95044624D01*
X137564201Y-95044632D01*
X137545878Y-95081986D01*
X137498681Y-95133505D01*
X137431123Y-95151329D01*
X137364653Y-95129798D01*
X137320376Y-95075750D01*
X137310551Y-95027376D01*
X137310551Y-93700000D01*
X155994540Y-93700000D01*
X156014326Y-93888256D01*
X156014327Y-93888259D01*
X156072818Y-94068277D01*
X156072821Y-94068284D01*
X156167467Y-94232216D01*
X156294128Y-94372887D01*
X156294129Y-94372888D01*
X156447265Y-94484148D01*
X156447270Y-94484151D01*
X156620192Y-94561142D01*
X156620197Y-94561144D01*
X156805354Y-94600500D01*
X156805355Y-94600500D01*
X156994644Y-94600500D01*
X156994646Y-94600500D01*
X157179803Y-94561144D01*
X157352730Y-94484151D01*
X157505871Y-94372888D01*
X157632533Y-94232216D01*
X157727179Y-94068284D01*
X157785674Y-93888256D01*
X157805460Y-93700000D01*
X157785674Y-93511744D01*
X157727179Y-93331716D01*
X157632533Y-93167784D01*
X157505871Y-93027112D01*
X157505870Y-93027111D01*
X157352734Y-92915851D01*
X157352729Y-92915848D01*
X157179807Y-92838857D01*
X157179802Y-92838855D01*
X157034001Y-92807865D01*
X156994646Y-92799500D01*
X156805354Y-92799500D01*
X156772897Y-92806398D01*
X156620197Y-92838855D01*
X156620192Y-92838857D01*
X156447270Y-92915848D01*
X156447265Y-92915851D01*
X156294129Y-93027111D01*
X156167466Y-93167785D01*
X156072821Y-93331715D01*
X156072818Y-93331722D01*
X156014327Y-93511740D01*
X156014326Y-93511744D01*
X155994540Y-93700000D01*
X137310551Y-93700000D01*
X137310551Y-92700000D01*
X144407040Y-92700000D01*
X144426826Y-92888256D01*
X144426827Y-92888259D01*
X144485318Y-93068277D01*
X144485321Y-93068284D01*
X144579967Y-93232216D01*
X144669563Y-93331722D01*
X144706629Y-93372888D01*
X144859765Y-93484148D01*
X144859770Y-93484151D01*
X145032692Y-93561142D01*
X145032697Y-93561144D01*
X145217854Y-93600500D01*
X145217855Y-93600500D01*
X145407144Y-93600500D01*
X145407146Y-93600500D01*
X145592303Y-93561144D01*
X145765230Y-93484151D01*
X145918371Y-93372888D01*
X146045033Y-93232216D01*
X146139679Y-93068284D01*
X146198174Y-92888256D01*
X146217960Y-92700000D01*
X146198174Y-92511744D01*
X146194358Y-92500000D01*
X150894540Y-92500000D01*
X150914326Y-92688256D01*
X150914327Y-92688259D01*
X150972818Y-92868277D01*
X150972821Y-92868284D01*
X151067467Y-93032216D01*
X151099937Y-93068277D01*
X151194129Y-93172888D01*
X151347265Y-93284148D01*
X151347270Y-93284151D01*
X151520192Y-93361142D01*
X151520197Y-93361144D01*
X151705354Y-93400500D01*
X151705355Y-93400500D01*
X151894644Y-93400500D01*
X151894646Y-93400500D01*
X152079803Y-93361144D01*
X152252730Y-93284151D01*
X152405871Y-93172888D01*
X152532533Y-93032216D01*
X152627179Y-92868284D01*
X152685674Y-92688256D01*
X152705460Y-92500000D01*
X152685674Y-92311744D01*
X152627179Y-92131716D01*
X152532533Y-91967784D01*
X152498491Y-91929977D01*
X157464563Y-91929977D01*
X157484349Y-92118233D01*
X157484350Y-92118236D01*
X157542841Y-92298254D01*
X157542844Y-92298261D01*
X157637490Y-92462193D01*
X157764151Y-92602865D01*
X157764152Y-92602865D01*
X157917288Y-92714125D01*
X157917293Y-92714128D01*
X158090215Y-92791119D01*
X158090220Y-92791121D01*
X158275377Y-92830477D01*
X158275378Y-92830477D01*
X158464667Y-92830477D01*
X158464669Y-92830477D01*
X158649826Y-92791121D01*
X158822753Y-92714128D01*
X158975894Y-92602865D01*
X159102556Y-92462193D01*
X159197202Y-92298261D01*
X159255697Y-92118233D01*
X159268123Y-92000000D01*
X162494540Y-92000000D01*
X162514326Y-92188256D01*
X162514327Y-92188259D01*
X162572818Y-92368277D01*
X162572821Y-92368284D01*
X162667467Y-92532216D01*
X162731080Y-92602865D01*
X162794129Y-92672888D01*
X162947265Y-92784148D01*
X162947270Y-92784151D01*
X163120192Y-92861142D01*
X163120197Y-92861144D01*
X163305354Y-92900500D01*
X163305355Y-92900500D01*
X163494644Y-92900500D01*
X163494646Y-92900500D01*
X163679803Y-92861144D01*
X163852730Y-92784151D01*
X164005871Y-92672888D01*
X164132533Y-92532216D01*
X164227179Y-92368284D01*
X164285674Y-92188256D01*
X164305460Y-92000000D01*
X164285674Y-91811744D01*
X164227179Y-91631716D01*
X164132533Y-91467784D01*
X164005871Y-91327112D01*
X163939016Y-91278539D01*
X163852734Y-91215851D01*
X163852729Y-91215848D01*
X163679807Y-91138857D01*
X163679802Y-91138855D01*
X163534001Y-91107865D01*
X163494646Y-91099500D01*
X163305354Y-91099500D01*
X163272897Y-91106398D01*
X163120197Y-91138855D01*
X163120192Y-91138857D01*
X162947270Y-91215848D01*
X162947265Y-91215851D01*
X162794129Y-91327111D01*
X162667466Y-91467785D01*
X162572821Y-91631715D01*
X162572818Y-91631722D01*
X162518304Y-91799500D01*
X162514326Y-91811744D01*
X162494540Y-92000000D01*
X159268123Y-92000000D01*
X159275483Y-91929977D01*
X159255697Y-91741721D01*
X159197202Y-91561693D01*
X159102556Y-91397761D01*
X158975894Y-91257089D01*
X158933372Y-91226195D01*
X158890708Y-91170866D01*
X158884729Y-91101252D01*
X158917335Y-91039457D01*
X158933374Y-91025560D01*
X158962048Y-91004727D01*
X159005871Y-90972888D01*
X159132533Y-90832216D01*
X159227179Y-90668284D01*
X159242868Y-90620000D01*
X166719659Y-90620000D01*
X166738975Y-90816129D01*
X166796188Y-91004733D01*
X166889086Y-91178532D01*
X166889090Y-91178539D01*
X167014116Y-91330883D01*
X167166460Y-91455909D01*
X167166467Y-91455913D01*
X167340266Y-91548811D01*
X167340269Y-91548811D01*
X167340273Y-91548814D01*
X167528868Y-91606024D01*
X167725000Y-91625341D01*
X167921132Y-91606024D01*
X168109727Y-91548814D01*
X168283538Y-91455910D01*
X168435883Y-91330883D01*
X168560910Y-91178538D01*
X168624746Y-91059110D01*
X168653811Y-91004733D01*
X168653811Y-91004732D01*
X168653814Y-91004727D01*
X168711024Y-90816132D01*
X168730341Y-90620000D01*
X168711024Y-90423868D01*
X168653814Y-90235273D01*
X168652677Y-90233146D01*
X168652418Y-90231904D01*
X168651483Y-90229645D01*
X168651911Y-90229467D01*
X168638435Y-90164746D01*
X168662771Y-90100379D01*
X168668796Y-90092331D01*
X168719091Y-89957483D01*
X168725500Y-89897873D01*
X168725499Y-88802128D01*
X168719091Y-88742517D01*
X168709145Y-88715851D01*
X168668797Y-88607671D01*
X168668793Y-88607664D01*
X168582547Y-88492455D01*
X168582544Y-88492452D01*
X168467335Y-88406206D01*
X168467328Y-88406202D01*
X168332482Y-88355908D01*
X168332483Y-88355908D01*
X168272883Y-88349501D01*
X168272881Y-88349500D01*
X168272873Y-88349500D01*
X168272864Y-88349500D01*
X167177129Y-88349500D01*
X167177123Y-88349501D01*
X167117516Y-88355908D01*
X166982671Y-88406202D01*
X166982664Y-88406206D01*
X166867455Y-88492452D01*
X166867452Y-88492455D01*
X166781206Y-88607664D01*
X166781202Y-88607671D01*
X166730908Y-88742517D01*
X166724501Y-88802116D01*
X166724501Y-88802123D01*
X166724500Y-88802135D01*
X166724500Y-89897870D01*
X166724501Y-89897876D01*
X166730908Y-89957483D01*
X166781202Y-90092328D01*
X166781204Y-90092331D01*
X166787231Y-90100382D01*
X166811648Y-90165846D01*
X166798105Y-90229470D01*
X166798518Y-90229641D01*
X166797595Y-90231869D01*
X166797324Y-90233143D01*
X166796188Y-90235267D01*
X166796186Y-90235272D01*
X166796186Y-90235273D01*
X166786912Y-90265846D01*
X166738975Y-90423870D01*
X166719659Y-90620000D01*
X159242868Y-90620000D01*
X159285674Y-90488256D01*
X159305460Y-90300000D01*
X159285674Y-90111744D01*
X159227179Y-89931716D01*
X159132533Y-89767784D01*
X159005871Y-89627112D01*
X159005870Y-89627111D01*
X158852734Y-89515851D01*
X158852729Y-89515848D01*
X158679807Y-89438857D01*
X158679802Y-89438855D01*
X158534000Y-89407865D01*
X158494646Y-89399500D01*
X158305354Y-89399500D01*
X158272897Y-89406398D01*
X158120197Y-89438855D01*
X158120192Y-89438857D01*
X157947270Y-89515848D01*
X157947265Y-89515851D01*
X157794129Y-89627111D01*
X157667466Y-89767785D01*
X157572821Y-89931715D01*
X157572818Y-89931722D01*
X157514327Y-90111740D01*
X157514326Y-90111744D01*
X157494540Y-90300000D01*
X157514326Y-90488256D01*
X157514327Y-90488259D01*
X157572818Y-90668277D01*
X157572821Y-90668284D01*
X157667467Y-90832216D01*
X157743023Y-90916129D01*
X157794129Y-90972888D01*
X157836648Y-91003780D01*
X157879314Y-91059110D01*
X157885293Y-91128723D01*
X157852687Y-91190518D01*
X157836650Y-91204415D01*
X157764151Y-91257089D01*
X157637489Y-91397762D01*
X157542844Y-91561692D01*
X157542841Y-91561699D01*
X157489671Y-91725341D01*
X157484349Y-91741721D01*
X157464563Y-91929977D01*
X152498491Y-91929977D01*
X152405871Y-91827112D01*
X152384719Y-91811744D01*
X152252734Y-91715851D01*
X152252729Y-91715848D01*
X152079807Y-91638857D01*
X152079802Y-91638855D01*
X151925339Y-91606024D01*
X151894646Y-91599500D01*
X151705354Y-91599500D01*
X151674661Y-91606024D01*
X151520197Y-91638855D01*
X151520192Y-91638857D01*
X151347270Y-91715848D01*
X151347265Y-91715851D01*
X151194129Y-91827111D01*
X151067466Y-91967785D01*
X150972821Y-92131715D01*
X150972818Y-92131722D01*
X150918709Y-92298254D01*
X150914326Y-92311744D01*
X150894540Y-92500000D01*
X146194358Y-92500000D01*
X146139679Y-92331716D01*
X146045033Y-92167784D01*
X145918371Y-92027112D01*
X145918370Y-92027111D01*
X145765234Y-91915851D01*
X145765229Y-91915848D01*
X145592307Y-91838857D01*
X145592302Y-91838855D01*
X145446500Y-91807865D01*
X145407146Y-91799500D01*
X145217854Y-91799500D01*
X145185397Y-91806398D01*
X145032697Y-91838855D01*
X145032692Y-91838857D01*
X144859770Y-91915848D01*
X144859765Y-91915851D01*
X144706629Y-92027111D01*
X144579966Y-92167785D01*
X144485321Y-92331715D01*
X144485318Y-92331722D01*
X144442926Y-92462193D01*
X144426826Y-92511744D01*
X144407040Y-92700000D01*
X137310551Y-92700000D01*
X137310551Y-90720000D01*
X137794659Y-90720000D01*
X137813975Y-90916129D01*
X137813976Y-90916132D01*
X137869600Y-91099500D01*
X137871188Y-91104733D01*
X137964086Y-91278532D01*
X137964090Y-91278539D01*
X138089116Y-91430883D01*
X138241460Y-91555909D01*
X138241467Y-91555913D01*
X138415266Y-91648811D01*
X138415269Y-91648811D01*
X138415273Y-91648814D01*
X138603868Y-91706024D01*
X138800000Y-91725341D01*
X138996132Y-91706024D01*
X139184727Y-91648814D01*
X139203356Y-91638857D01*
X139276987Y-91599500D01*
X139358538Y-91555910D01*
X139510883Y-91430883D01*
X139635910Y-91278538D01*
X139728814Y-91104727D01*
X139786024Y-90916132D01*
X139805341Y-90720000D01*
X139786024Y-90523868D01*
X139728814Y-90335273D01*
X139727677Y-90333146D01*
X139727418Y-90331904D01*
X139726483Y-90329645D01*
X139726911Y-90329467D01*
X139713435Y-90264746D01*
X139737771Y-90200379D01*
X139743796Y-90192331D01*
X139794091Y-90057483D01*
X139800500Y-89997873D01*
X139800500Y-89500000D01*
X147094540Y-89500000D01*
X147114326Y-89688256D01*
X147114327Y-89688259D01*
X147172818Y-89868277D01*
X147172821Y-89868284D01*
X147267467Y-90032216D01*
X147339071Y-90111740D01*
X147394129Y-90172888D01*
X147547265Y-90284148D01*
X147547270Y-90284151D01*
X147720192Y-90361142D01*
X147720197Y-90361144D01*
X147905354Y-90400500D01*
X147905355Y-90400500D01*
X148094644Y-90400500D01*
X148094646Y-90400500D01*
X148279803Y-90361144D01*
X148452730Y-90284151D01*
X148605871Y-90172888D01*
X148732533Y-90032216D01*
X148827179Y-89868284D01*
X148885674Y-89688256D01*
X148905460Y-89500000D01*
X148885674Y-89311744D01*
X148827179Y-89131716D01*
X148732533Y-88967784D01*
X148605871Y-88827112D01*
X148605870Y-88827111D01*
X148452734Y-88715851D01*
X148452729Y-88715848D01*
X148279807Y-88638857D01*
X148279802Y-88638855D01*
X148133055Y-88607664D01*
X148094646Y-88599500D01*
X147905354Y-88599500D01*
X147872897Y-88606398D01*
X147720197Y-88638855D01*
X147720192Y-88638857D01*
X147547270Y-88715848D01*
X147547265Y-88715851D01*
X147394129Y-88827111D01*
X147267466Y-88967785D01*
X147172821Y-89131715D01*
X147172818Y-89131722D01*
X147114327Y-89311740D01*
X147114326Y-89311744D01*
X147094540Y-89500000D01*
X139800500Y-89500000D01*
X139800499Y-88902128D01*
X139794091Y-88842517D01*
X139788345Y-88827112D01*
X139743797Y-88707671D01*
X139743793Y-88707664D01*
X139657547Y-88592455D01*
X139657544Y-88592452D01*
X139542335Y-88506206D01*
X139542328Y-88506202D01*
X139407482Y-88455908D01*
X139407483Y-88455908D01*
X139347883Y-88449501D01*
X139347881Y-88449500D01*
X139347873Y-88449500D01*
X139347864Y-88449500D01*
X138252129Y-88449500D01*
X138252123Y-88449501D01*
X138192516Y-88455908D01*
X138057671Y-88506202D01*
X138057664Y-88506206D01*
X137942455Y-88592452D01*
X137942452Y-88592455D01*
X137856206Y-88707664D01*
X137856202Y-88707671D01*
X137805908Y-88842517D01*
X137799501Y-88902116D01*
X137799501Y-88902123D01*
X137799500Y-88902135D01*
X137799500Y-89997870D01*
X137799501Y-89997876D01*
X137805908Y-90057483D01*
X137856202Y-90192328D01*
X137856204Y-90192331D01*
X137862231Y-90200382D01*
X137886648Y-90265846D01*
X137873105Y-90329470D01*
X137873518Y-90329641D01*
X137872595Y-90331869D01*
X137872324Y-90333143D01*
X137871188Y-90335267D01*
X137813975Y-90523870D01*
X137794659Y-90720000D01*
X137310551Y-90720000D01*
X137310551Y-85870000D01*
X137894659Y-85870000D01*
X137913975Y-86066129D01*
X137916021Y-86072873D01*
X137959392Y-86215849D01*
X137971188Y-86254733D01*
X138064086Y-86428532D01*
X138064090Y-86428539D01*
X138189116Y-86580883D01*
X138341460Y-86705909D01*
X138341467Y-86705913D01*
X138515266Y-86798811D01*
X138515269Y-86798811D01*
X138515273Y-86798814D01*
X138703868Y-86856024D01*
X138900000Y-86875341D01*
X139096132Y-86856024D01*
X139284727Y-86798814D01*
X139458538Y-86705910D01*
X139610883Y-86580883D01*
X139735910Y-86428538D01*
X139828814Y-86254727D01*
X139886024Y-86066132D01*
X139905341Y-85870000D01*
X139886024Y-85673868D01*
X139828814Y-85485273D01*
X139827419Y-85482663D01*
X139827100Y-85481135D01*
X139826482Y-85479641D01*
X139826765Y-85479523D01*
X139813174Y-85414261D01*
X139837512Y-85349890D01*
X139843351Y-85342089D01*
X139893597Y-85207376D01*
X139893598Y-85207372D01*
X139899999Y-85147844D01*
X139900000Y-85147827D01*
X139900000Y-84850000D01*
X139145581Y-84850000D01*
X139197060Y-84794079D01*
X139243982Y-84687108D01*
X139253628Y-84570698D01*
X139224953Y-84457462D01*
X139161064Y-84359673D01*
X139068885Y-84287928D01*
X138958405Y-84250000D01*
X138870995Y-84250000D01*
X138784784Y-84264386D01*
X138682053Y-84319981D01*
X138602940Y-84405921D01*
X138556018Y-84512892D01*
X138546372Y-84629302D01*
X138575047Y-84742538D01*
X138638936Y-84840327D01*
X138651364Y-84850000D01*
X137900000Y-84850000D01*
X137900000Y-85147844D01*
X137906401Y-85207372D01*
X137906402Y-85207376D01*
X137956648Y-85342091D01*
X137962490Y-85349894D01*
X137986908Y-85415359D01*
X137973251Y-85479535D01*
X137973517Y-85479646D01*
X137972921Y-85481082D01*
X137972589Y-85482647D01*
X137971188Y-85485268D01*
X137971187Y-85485270D01*
X137971186Y-85485273D01*
X137939645Y-85589246D01*
X137913975Y-85673870D01*
X137894659Y-85870000D01*
X137310551Y-85870000D01*
X137310551Y-84350000D01*
X137900000Y-84350000D01*
X138650000Y-84350000D01*
X138650000Y-83600000D01*
X139150000Y-83600000D01*
X139150000Y-84350000D01*
X139900000Y-84350000D01*
X139900000Y-84052172D01*
X139899999Y-84052155D01*
X139893598Y-83992627D01*
X139893596Y-83992620D01*
X139843354Y-83857913D01*
X139843350Y-83857906D01*
X139757190Y-83742812D01*
X139757187Y-83742809D01*
X139642093Y-83656649D01*
X139642086Y-83656645D01*
X139507379Y-83606403D01*
X139507372Y-83606401D01*
X139447844Y-83600000D01*
X139150000Y-83600000D01*
X138650000Y-83600000D01*
X138352155Y-83600000D01*
X138292627Y-83606401D01*
X138292620Y-83606403D01*
X138157913Y-83656645D01*
X138157906Y-83656649D01*
X138042812Y-83742809D01*
X138042809Y-83742812D01*
X137956649Y-83857906D01*
X137956645Y-83857913D01*
X137906403Y-83992620D01*
X137906401Y-83992627D01*
X137900000Y-84052155D01*
X137900000Y-84350000D01*
X137310551Y-84350000D01*
X137310551Y-81800000D01*
X137794659Y-81800000D01*
X137813975Y-81996129D01*
X137813976Y-81996132D01*
X137842011Y-82088552D01*
X137871188Y-82184733D01*
X137964086Y-82358532D01*
X137964090Y-82358539D01*
X138089116Y-82510883D01*
X138241460Y-82635909D01*
X138241467Y-82635913D01*
X138241469Y-82635914D01*
X138415273Y-82728814D01*
X138445937Y-82738116D01*
X138449436Y-82739294D01*
X138451796Y-82740168D01*
X138451799Y-82740170D01*
X138458005Y-82741776D01*
X138603868Y-82786024D01*
X138634662Y-82789056D01*
X138641911Y-82790344D01*
X138641955Y-82790063D01*
X138648178Y-82791016D01*
X138648182Y-82791017D01*
X138656787Y-82791453D01*
X138656805Y-82791459D01*
X138659946Y-82791618D01*
X138662861Y-82791834D01*
X138800000Y-82805341D01*
X138835203Y-82801873D01*
X138844500Y-82801653D01*
X138844498Y-82801610D01*
X138850766Y-82801291D01*
X138850780Y-82801292D01*
X138851208Y-82801226D01*
X138866546Y-82798877D01*
X138869846Y-82798461D01*
X138996132Y-82786024D01*
X139034291Y-82774448D01*
X139050809Y-82770699D01*
X139051290Y-82770574D01*
X139051299Y-82770573D01*
X139068703Y-82764127D01*
X139072227Y-82762940D01*
X139184727Y-82728814D01*
X139227653Y-82705869D01*
X139235333Y-82702415D01*
X139247671Y-82697846D01*
X139249294Y-82697733D01*
X139253361Y-82695739D01*
X139270806Y-82689278D01*
X139295763Y-82669463D01*
X139358538Y-82635910D01*
X139359647Y-82635000D01*
X144464341Y-82635000D01*
X144484936Y-82870403D01*
X144484938Y-82870413D01*
X144546094Y-83098655D01*
X144546096Y-83098659D01*
X144546097Y-83098663D01*
X144550000Y-83107032D01*
X144645965Y-83312830D01*
X144645967Y-83312834D01*
X144754281Y-83467521D01*
X144781501Y-83506396D01*
X144781506Y-83506402D01*
X144903430Y-83628326D01*
X144936915Y-83689649D01*
X144931931Y-83759341D01*
X144890059Y-83815274D01*
X144859083Y-83832189D01*
X144727669Y-83881203D01*
X144727664Y-83881206D01*
X144612455Y-83967452D01*
X144612452Y-83967455D01*
X144526206Y-84082664D01*
X144526202Y-84082671D01*
X144475908Y-84217517D01*
X144469501Y-84277116D01*
X144469500Y-84277135D01*
X144469500Y-86072870D01*
X144469501Y-86072876D01*
X144475908Y-86132483D01*
X144526202Y-86267328D01*
X144526206Y-86267335D01*
X144612452Y-86382544D01*
X144612455Y-86382547D01*
X144727664Y-86468793D01*
X144727671Y-86468797D01*
X144862517Y-86519091D01*
X144862516Y-86519091D01*
X144869444Y-86519835D01*
X144922127Y-86525500D01*
X146717872Y-86525499D01*
X146777483Y-86519091D01*
X146912331Y-86468796D01*
X147027546Y-86382546D01*
X147113796Y-86267331D01*
X147162810Y-86135916D01*
X147204681Y-86079984D01*
X147270145Y-86055566D01*
X147338418Y-86070417D01*
X147366673Y-86091569D01*
X147488599Y-86213495D01*
X147585384Y-86281264D01*
X147682165Y-86349032D01*
X147682167Y-86349033D01*
X147682170Y-86349035D01*
X147896337Y-86448903D01*
X148124592Y-86510063D01*
X148301034Y-86525500D01*
X148359999Y-86530659D01*
X148360000Y-86530659D01*
X148360001Y-86530659D01*
X148418966Y-86525500D01*
X148595408Y-86510063D01*
X148823663Y-86448903D01*
X149037830Y-86349035D01*
X149231401Y-86213495D01*
X149398495Y-86046401D01*
X149528730Y-85860405D01*
X149583307Y-85816781D01*
X149652805Y-85809587D01*
X149715160Y-85841110D01*
X149731879Y-85860405D01*
X149861890Y-86046078D01*
X150028917Y-86213105D01*
X150222421Y-86348600D01*
X150436507Y-86448429D01*
X150436516Y-86448433D01*
X150650000Y-86505634D01*
X150650000Y-85610501D01*
X150757685Y-85659680D01*
X150864237Y-85675000D01*
X150935763Y-85675000D01*
X151042315Y-85659680D01*
X151150000Y-85610501D01*
X151150000Y-86505633D01*
X151363483Y-86448433D01*
X151363492Y-86448429D01*
X151577578Y-86348600D01*
X151771082Y-86213105D01*
X151938105Y-86046082D01*
X152073600Y-85852578D01*
X152173429Y-85638492D01*
X152173432Y-85638486D01*
X152230636Y-85425000D01*
X151333686Y-85425000D01*
X151359493Y-85384844D01*
X151400000Y-85246889D01*
X151400000Y-85103111D01*
X151359493Y-84965156D01*
X151333686Y-84925000D01*
X152230636Y-84925000D01*
X152230635Y-84924999D01*
X152173432Y-84711513D01*
X152173429Y-84711507D01*
X152073600Y-84497422D01*
X152073599Y-84497420D01*
X151938113Y-84303926D01*
X151938108Y-84303920D01*
X151771078Y-84136890D01*
X151585405Y-84006879D01*
X151541780Y-83952302D01*
X151534588Y-83882804D01*
X151566110Y-83820449D01*
X151585406Y-83803730D01*
X151585842Y-83803425D01*
X151771401Y-83673495D01*
X151938495Y-83506401D01*
X152074035Y-83312830D01*
X152173903Y-83098663D01*
X152235063Y-82870408D01*
X152255659Y-82635000D01*
X152252597Y-82600000D01*
X153344341Y-82600000D01*
X153364936Y-82835403D01*
X153364938Y-82835413D01*
X153426094Y-83063655D01*
X153426096Y-83063659D01*
X153426097Y-83063663D01*
X153506004Y-83235023D01*
X153525965Y-83277830D01*
X153525967Y-83277834D01*
X153556082Y-83320842D01*
X153661501Y-83471396D01*
X153661506Y-83471402D01*
X153828597Y-83638493D01*
X153828603Y-83638498D01*
X154014594Y-83768730D01*
X154058219Y-83823307D01*
X154065413Y-83892805D01*
X154033890Y-83955160D01*
X154014595Y-83971880D01*
X153828922Y-84101890D01*
X153828920Y-84101891D01*
X153661891Y-84268920D01*
X153661886Y-84268926D01*
X153526400Y-84462420D01*
X153526399Y-84462422D01*
X153426570Y-84676507D01*
X153426567Y-84676513D01*
X153369364Y-84889999D01*
X153369364Y-84890000D01*
X154266314Y-84890000D01*
X154240507Y-84930156D01*
X154200000Y-85068111D01*
X154200000Y-85211889D01*
X154240507Y-85349844D01*
X154266314Y-85390000D01*
X153369364Y-85390000D01*
X153426567Y-85603486D01*
X153426570Y-85603492D01*
X153526399Y-85817578D01*
X153661894Y-86011082D01*
X153828917Y-86178105D01*
X154022421Y-86313600D01*
X154236507Y-86413429D01*
X154236516Y-86413433D01*
X154450000Y-86470634D01*
X154450000Y-85575501D01*
X154557685Y-85624680D01*
X154664237Y-85640000D01*
X154735763Y-85640000D01*
X154842315Y-85624680D01*
X154950000Y-85575501D01*
X154950000Y-86470633D01*
X155163483Y-86413433D01*
X155163492Y-86413429D01*
X155377578Y-86313600D01*
X155571082Y-86178105D01*
X155738105Y-86011082D01*
X155868119Y-85825405D01*
X155922696Y-85781781D01*
X155992195Y-85774588D01*
X156054549Y-85806110D01*
X156071269Y-85825405D01*
X156201505Y-86011401D01*
X156368599Y-86178495D01*
X156421945Y-86215848D01*
X156562165Y-86314032D01*
X156562167Y-86314033D01*
X156562170Y-86314035D01*
X156776337Y-86413903D01*
X157004592Y-86475063D01*
X157192918Y-86491539D01*
X157239999Y-86495659D01*
X157240000Y-86495659D01*
X157240001Y-86495659D01*
X157279234Y-86492226D01*
X157475408Y-86475063D01*
X157703663Y-86413903D01*
X157917830Y-86314035D01*
X158111401Y-86178495D01*
X158278495Y-86011401D01*
X158408424Y-85825842D01*
X158463002Y-85782217D01*
X158532500Y-85775023D01*
X158594855Y-85806546D01*
X158611575Y-85825842D01*
X158741281Y-86011082D01*
X158741505Y-86011401D01*
X158908599Y-86178495D01*
X158961945Y-86215848D01*
X159102165Y-86314032D01*
X159102167Y-86314033D01*
X159102170Y-86314035D01*
X159316337Y-86413903D01*
X159544592Y-86475063D01*
X159732918Y-86491539D01*
X159779999Y-86495659D01*
X159780000Y-86495659D01*
X159780001Y-86495659D01*
X159819234Y-86492226D01*
X160015408Y-86475063D01*
X160243663Y-86413903D01*
X160457830Y-86314035D01*
X160651401Y-86178495D01*
X160818495Y-86011401D01*
X160948424Y-85825842D01*
X161003002Y-85782217D01*
X161072500Y-85775023D01*
X161134855Y-85806546D01*
X161151575Y-85825842D01*
X161281281Y-86011082D01*
X161281505Y-86011401D01*
X161448599Y-86178495D01*
X161501945Y-86215848D01*
X161642165Y-86314032D01*
X161642167Y-86314033D01*
X161642170Y-86314035D01*
X161856337Y-86413903D01*
X162084592Y-86475063D01*
X162272918Y-86491539D01*
X162319999Y-86495659D01*
X162320000Y-86495659D01*
X162320001Y-86495659D01*
X162346653Y-86493327D01*
X162451954Y-86484114D01*
X162520453Y-86497880D01*
X162570636Y-86546495D01*
X162586570Y-86614524D01*
X162580692Y-86645960D01*
X162531028Y-86798811D01*
X162526826Y-86811744D01*
X162507040Y-87000000D01*
X162526826Y-87188256D01*
X162526827Y-87188259D01*
X162585318Y-87368277D01*
X162585321Y-87368284D01*
X162679967Y-87532216D01*
X162806629Y-87672888D01*
X162959765Y-87784148D01*
X162959770Y-87784151D01*
X163132692Y-87861142D01*
X163132697Y-87861144D01*
X163317854Y-87900500D01*
X163317855Y-87900500D01*
X163507144Y-87900500D01*
X163507146Y-87900500D01*
X163692303Y-87861144D01*
X163865230Y-87784151D01*
X164018371Y-87672888D01*
X164145033Y-87532216D01*
X164239679Y-87368284D01*
X164298174Y-87188256D01*
X164317960Y-87000000D01*
X164298174Y-86811744D01*
X164239679Y-86631716D01*
X164145033Y-86467784D01*
X164018371Y-86327112D01*
X164000368Y-86314032D01*
X163865234Y-86215851D01*
X163865229Y-86215848D01*
X163692307Y-86138857D01*
X163692302Y-86138855D01*
X163507306Y-86099534D01*
X163445824Y-86066342D01*
X163412048Y-86005179D01*
X163416700Y-85935464D01*
X163431513Y-85907120D01*
X163457505Y-85870000D01*
X163494035Y-85817830D01*
X163593903Y-85603663D01*
X163655063Y-85375408D01*
X163675659Y-85140000D01*
X163655063Y-84904592D01*
X163593903Y-84676337D01*
X163494035Y-84462171D01*
X163488730Y-84454595D01*
X163358496Y-84268600D01*
X163303977Y-84214081D01*
X163236567Y-84146671D01*
X163203084Y-84085351D01*
X163208068Y-84015659D01*
X163249939Y-83959725D01*
X163280915Y-83942810D01*
X163412331Y-83893796D01*
X163527546Y-83807546D01*
X163613796Y-83692331D01*
X163664091Y-83557483D01*
X163670500Y-83497873D01*
X163670499Y-81800000D01*
X166794659Y-81800000D01*
X166813975Y-81996129D01*
X166813976Y-81996132D01*
X166842011Y-82088552D01*
X166871188Y-82184733D01*
X166964086Y-82358532D01*
X166964090Y-82358539D01*
X167089116Y-82510883D01*
X167241460Y-82635909D01*
X167241467Y-82635913D01*
X167241469Y-82635914D01*
X167415273Y-82728814D01*
X167445937Y-82738116D01*
X167449436Y-82739294D01*
X167451796Y-82740168D01*
X167451799Y-82740170D01*
X167458005Y-82741776D01*
X167603868Y-82786024D01*
X167634662Y-82789056D01*
X167641911Y-82790344D01*
X167641955Y-82790063D01*
X167648178Y-82791016D01*
X167648182Y-82791017D01*
X167656787Y-82791453D01*
X167656805Y-82791459D01*
X167659946Y-82791618D01*
X167662861Y-82791834D01*
X167800000Y-82805341D01*
X167835203Y-82801873D01*
X167844500Y-82801653D01*
X167844498Y-82801610D01*
X167850766Y-82801291D01*
X167850780Y-82801292D01*
X167851208Y-82801226D01*
X167866546Y-82798877D01*
X167869846Y-82798461D01*
X167996132Y-82786024D01*
X168034291Y-82774448D01*
X168050809Y-82770699D01*
X168051290Y-82770574D01*
X168051299Y-82770573D01*
X168068703Y-82764127D01*
X168072227Y-82762940D01*
X168184727Y-82728814D01*
X168227653Y-82705869D01*
X168235333Y-82702415D01*
X168247671Y-82697846D01*
X168249294Y-82697733D01*
X168253361Y-82695739D01*
X168270806Y-82689278D01*
X168295763Y-82669463D01*
X168358538Y-82635910D01*
X168399629Y-82602186D01*
X168406133Y-82597521D01*
X168413096Y-82593181D01*
X168416523Y-82592226D01*
X168424385Y-82586141D01*
X168438415Y-82577395D01*
X168457847Y-82554407D01*
X168510883Y-82510883D01*
X168544967Y-82469351D01*
X168553340Y-82463647D01*
X168553512Y-82463401D01*
X168569861Y-82444357D01*
X168580284Y-82434448D01*
X168593949Y-82409667D01*
X168635910Y-82358538D01*
X168661697Y-82310293D01*
X168670069Y-82301769D01*
X168671629Y-82298136D01*
X168683806Y-82276197D01*
X168690791Y-82266160D01*
X168698745Y-82240980D01*
X168728814Y-82184727D01*
X168745082Y-82131098D01*
X168752588Y-82119642D01*
X168754058Y-82112494D01*
X168761570Y-82088552D01*
X168765511Y-82079366D01*
X168768148Y-82055058D01*
X168786024Y-81996132D01*
X168793116Y-81924122D01*
X168794083Y-81917739D01*
X168797435Y-81901429D01*
X168797435Y-81901426D01*
X168801518Y-81881560D01*
X168799506Y-81859240D01*
X168805341Y-81800000D01*
X168799506Y-81740759D01*
X168802673Y-81724058D01*
X168794085Y-81682270D01*
X168793114Y-81675860D01*
X168789830Y-81642517D01*
X168786024Y-81603868D01*
X168768149Y-81544945D01*
X168767984Y-81526392D01*
X168761570Y-81511446D01*
X168754058Y-81487506D01*
X168753519Y-81484885D01*
X168745083Y-81468904D01*
X168728814Y-81415273D01*
X168728813Y-81415272D01*
X168728813Y-81415270D01*
X168698746Y-81359019D01*
X168694660Y-81339395D01*
X168683807Y-81323802D01*
X168671691Y-81301974D01*
X168661696Y-81289705D01*
X168635910Y-81241462D01*
X168593947Y-81190331D01*
X168585547Y-81170551D01*
X168569858Y-81155638D01*
X168556720Y-81140334D01*
X168544964Y-81130645D01*
X168537910Y-81122050D01*
X168533228Y-81116345D01*
X168510882Y-81089115D01*
X168457848Y-81045591D01*
X168444973Y-81026689D01*
X168424384Y-81013856D01*
X168418403Y-81009226D01*
X168413073Y-81006804D01*
X168406145Y-81002485D01*
X168399611Y-80997798D01*
X168358538Y-80964090D01*
X168358537Y-80964089D01*
X168358532Y-80964085D01*
X168295761Y-80930534D01*
X168278483Y-80913562D01*
X168253359Y-80904258D01*
X168250287Y-80902751D01*
X168247673Y-80902152D01*
X168235330Y-80897582D01*
X168227624Y-80894115D01*
X168184726Y-80871185D01*
X168072253Y-80837066D01*
X168068721Y-80835878D01*
X168051295Y-80829425D01*
X168050874Y-80829316D01*
X168034276Y-80825547D01*
X167996130Y-80813975D01*
X167869867Y-80801539D01*
X167866555Y-80801123D01*
X167850804Y-80798709D01*
X167844504Y-80798390D01*
X167844506Y-80798347D01*
X167835205Y-80798125D01*
X167800003Y-80794659D01*
X167799999Y-80794659D01*
X167662932Y-80808157D01*
X167660014Y-80808375D01*
X167656830Y-80808537D01*
X167656797Y-80808546D01*
X167648177Y-80808983D01*
X167641974Y-80809934D01*
X167641931Y-80809654D01*
X167634679Y-80810941D01*
X167603869Y-80813975D01*
X167458009Y-80858221D01*
X167451793Y-80859831D01*
X167449430Y-80860706D01*
X167445903Y-80861893D01*
X167415270Y-80871186D01*
X167241467Y-80964086D01*
X167241460Y-80964090D01*
X167089116Y-81089116D01*
X166964090Y-81241460D01*
X166964086Y-81241467D01*
X166871188Y-81415266D01*
X166813975Y-81603870D01*
X166794659Y-81800000D01*
X163670499Y-81800000D01*
X163670499Y-81702128D01*
X163664091Y-81642517D01*
X163662810Y-81639083D01*
X163613797Y-81507671D01*
X163613793Y-81507664D01*
X163527547Y-81392455D01*
X163527544Y-81392452D01*
X163412335Y-81306206D01*
X163412328Y-81306202D01*
X163277482Y-81255908D01*
X163277483Y-81255908D01*
X163217883Y-81249501D01*
X163217881Y-81249500D01*
X163217873Y-81249500D01*
X163217864Y-81249500D01*
X161422129Y-81249500D01*
X161422123Y-81249501D01*
X161362516Y-81255908D01*
X161227671Y-81306202D01*
X161227664Y-81306206D01*
X161112455Y-81392452D01*
X161112452Y-81392455D01*
X161026206Y-81507664D01*
X161026203Y-81507669D01*
X160977189Y-81639083D01*
X160935317Y-81695016D01*
X160869853Y-81719433D01*
X160801580Y-81704581D01*
X160773326Y-81683430D01*
X160651402Y-81561506D01*
X160651395Y-81561501D01*
X160457834Y-81425967D01*
X160457830Y-81425965D01*
X160434901Y-81415273D01*
X160243663Y-81326097D01*
X160243659Y-81326096D01*
X160243655Y-81326094D01*
X160015413Y-81264938D01*
X160015403Y-81264936D01*
X159780001Y-81244341D01*
X159779999Y-81244341D01*
X159544596Y-81264936D01*
X159544586Y-81264938D01*
X159316344Y-81326094D01*
X159316335Y-81326098D01*
X159102171Y-81425964D01*
X159102169Y-81425965D01*
X158908597Y-81561505D01*
X158741505Y-81728597D01*
X158611575Y-81914158D01*
X158556998Y-81957783D01*
X158487500Y-81964977D01*
X158425145Y-81933454D01*
X158408425Y-81914158D01*
X158278494Y-81728597D01*
X158111402Y-81561506D01*
X158111395Y-81561501D01*
X157917834Y-81425967D01*
X157917830Y-81425965D01*
X157894901Y-81415273D01*
X157703663Y-81326097D01*
X157703659Y-81326096D01*
X157703655Y-81326094D01*
X157475413Y-81264938D01*
X157475403Y-81264936D01*
X157240001Y-81244341D01*
X157239999Y-81244341D01*
X157004596Y-81264936D01*
X157004586Y-81264938D01*
X156776344Y-81326094D01*
X156776335Y-81326098D01*
X156562171Y-81425964D01*
X156562169Y-81425965D01*
X156368597Y-81561505D01*
X156201505Y-81728597D01*
X156071575Y-81914158D01*
X156016998Y-81957783D01*
X155947500Y-81964977D01*
X155885145Y-81933454D01*
X155868425Y-81914158D01*
X155738494Y-81728597D01*
X155571402Y-81561506D01*
X155571395Y-81561501D01*
X155377834Y-81425967D01*
X155377830Y-81425965D01*
X155354901Y-81415273D01*
X155163663Y-81326097D01*
X155163659Y-81326096D01*
X155163655Y-81326094D01*
X154935413Y-81264938D01*
X154935403Y-81264936D01*
X154700001Y-81244341D01*
X154699999Y-81244341D01*
X154464596Y-81264936D01*
X154464586Y-81264938D01*
X154236344Y-81326094D01*
X154236335Y-81326098D01*
X154022171Y-81425964D01*
X154022169Y-81425965D01*
X153828597Y-81561505D01*
X153661505Y-81728597D01*
X153525965Y-81922169D01*
X153525964Y-81922171D01*
X153426098Y-82136335D01*
X153426094Y-82136344D01*
X153364938Y-82364586D01*
X153364936Y-82364596D01*
X153344341Y-82599999D01*
X153344341Y-82600000D01*
X152252597Y-82600000D01*
X152235063Y-82399592D01*
X152173903Y-82171337D01*
X152074035Y-81957171D01*
X152072750Y-81955335D01*
X151938494Y-81763597D01*
X151771402Y-81596506D01*
X151771395Y-81596501D01*
X151577834Y-81460967D01*
X151577830Y-81460965D01*
X151577829Y-81460964D01*
X151363663Y-81361097D01*
X151363659Y-81361096D01*
X151363655Y-81361094D01*
X151135413Y-81299938D01*
X151135403Y-81299936D01*
X150900001Y-81279341D01*
X150899999Y-81279341D01*
X150664596Y-81299936D01*
X150664586Y-81299938D01*
X150436344Y-81361094D01*
X150436335Y-81361098D01*
X150222171Y-81460964D01*
X150222169Y-81460965D01*
X150028597Y-81596505D01*
X149861505Y-81763597D01*
X149731575Y-81949158D01*
X149676998Y-81992783D01*
X149607500Y-81999977D01*
X149545145Y-81968454D01*
X149528425Y-81949158D01*
X149398494Y-81763597D01*
X149231402Y-81596506D01*
X149231395Y-81596501D01*
X149037834Y-81460967D01*
X149037830Y-81460965D01*
X149037829Y-81460964D01*
X148823663Y-81361097D01*
X148823659Y-81361096D01*
X148823655Y-81361094D01*
X148595413Y-81299938D01*
X148595403Y-81299936D01*
X148360001Y-81279341D01*
X148359999Y-81279341D01*
X148124596Y-81299936D01*
X148124586Y-81299938D01*
X147896344Y-81361094D01*
X147896335Y-81361098D01*
X147682171Y-81460964D01*
X147682169Y-81460965D01*
X147488597Y-81596505D01*
X147321505Y-81763597D01*
X147191575Y-81949158D01*
X147136998Y-81992783D01*
X147067500Y-81999977D01*
X147005145Y-81968454D01*
X146988425Y-81949158D01*
X146858494Y-81763597D01*
X146691402Y-81596506D01*
X146691395Y-81596501D01*
X146497834Y-81460967D01*
X146497830Y-81460965D01*
X146497830Y-81460964D01*
X146283663Y-81361097D01*
X146283659Y-81361096D01*
X146283655Y-81361094D01*
X146055413Y-81299938D01*
X146055403Y-81299936D01*
X145820001Y-81279341D01*
X145819999Y-81279341D01*
X145584596Y-81299936D01*
X145584586Y-81299938D01*
X145356344Y-81361094D01*
X145356335Y-81361098D01*
X145142171Y-81460964D01*
X145142169Y-81460965D01*
X144948597Y-81596505D01*
X144781505Y-81763597D01*
X144645965Y-81957169D01*
X144645964Y-81957171D01*
X144546098Y-82171335D01*
X144546094Y-82171344D01*
X144484938Y-82399586D01*
X144484936Y-82399596D01*
X144464341Y-82634999D01*
X144464341Y-82635000D01*
X139359647Y-82635000D01*
X139399629Y-82602186D01*
X139406133Y-82597521D01*
X139413096Y-82593181D01*
X139416523Y-82592226D01*
X139424385Y-82586141D01*
X139438415Y-82577395D01*
X139457847Y-82554407D01*
X139510883Y-82510883D01*
X139544967Y-82469351D01*
X139553340Y-82463647D01*
X139553512Y-82463401D01*
X139569861Y-82444357D01*
X139580284Y-82434448D01*
X139593949Y-82409667D01*
X139635910Y-82358538D01*
X139661697Y-82310293D01*
X139670069Y-82301769D01*
X139671629Y-82298136D01*
X139683806Y-82276197D01*
X139690791Y-82266160D01*
X139698745Y-82240980D01*
X139728814Y-82184727D01*
X139745082Y-82131098D01*
X139752588Y-82119642D01*
X139754058Y-82112494D01*
X139761570Y-82088552D01*
X139765511Y-82079366D01*
X139768148Y-82055058D01*
X139786024Y-81996132D01*
X139793116Y-81924122D01*
X139794083Y-81917739D01*
X139797435Y-81901429D01*
X139797435Y-81901426D01*
X139801518Y-81881560D01*
X139799506Y-81859240D01*
X139805341Y-81800000D01*
X139799506Y-81740759D01*
X139802673Y-81724058D01*
X139794085Y-81682270D01*
X139793114Y-81675860D01*
X139789830Y-81642517D01*
X139786024Y-81603868D01*
X139768149Y-81544945D01*
X139767984Y-81526392D01*
X139761570Y-81511446D01*
X139754058Y-81487506D01*
X139753519Y-81484885D01*
X139745083Y-81468904D01*
X139728814Y-81415273D01*
X139728813Y-81415272D01*
X139728813Y-81415270D01*
X139698746Y-81359019D01*
X139694660Y-81339395D01*
X139683807Y-81323802D01*
X139671691Y-81301974D01*
X139661696Y-81289705D01*
X139635910Y-81241462D01*
X139593947Y-81190331D01*
X139585547Y-81170551D01*
X139569858Y-81155638D01*
X139556720Y-81140334D01*
X139544964Y-81130645D01*
X139537910Y-81122050D01*
X139533228Y-81116345D01*
X139510882Y-81089115D01*
X139457848Y-81045591D01*
X139444973Y-81026689D01*
X139424384Y-81013856D01*
X139418403Y-81009226D01*
X139413073Y-81006804D01*
X139406145Y-81002485D01*
X139399611Y-80997798D01*
X139358538Y-80964090D01*
X139358537Y-80964089D01*
X139358532Y-80964085D01*
X139295761Y-80930534D01*
X139278483Y-80913562D01*
X139253359Y-80904258D01*
X139250287Y-80902751D01*
X139247673Y-80902152D01*
X139235330Y-80897582D01*
X139227624Y-80894115D01*
X139184726Y-80871185D01*
X139072253Y-80837066D01*
X139068721Y-80835878D01*
X139051295Y-80829425D01*
X139050874Y-80829316D01*
X139034276Y-80825547D01*
X138996130Y-80813975D01*
X138869867Y-80801539D01*
X138866555Y-80801123D01*
X138850804Y-80798709D01*
X138844504Y-80798390D01*
X138844506Y-80798347D01*
X138835205Y-80798125D01*
X138800003Y-80794659D01*
X138799999Y-80794659D01*
X138662932Y-80808157D01*
X138660014Y-80808375D01*
X138656830Y-80808537D01*
X138656797Y-80808546D01*
X138648177Y-80808983D01*
X138641974Y-80809934D01*
X138641931Y-80809654D01*
X138634679Y-80810941D01*
X138603869Y-80813975D01*
X138458009Y-80858221D01*
X138451793Y-80859831D01*
X138449430Y-80860706D01*
X138445903Y-80861893D01*
X138415270Y-80871186D01*
X138241467Y-80964086D01*
X138241460Y-80964090D01*
X138089116Y-81089116D01*
X137964090Y-81241460D01*
X137964086Y-81241467D01*
X137871188Y-81415266D01*
X137813975Y-81603870D01*
X137794659Y-81800000D01*
X137310551Y-81800000D01*
X137310551Y-81202434D01*
X137310742Y-81197570D01*
X137312542Y-81174701D01*
X137326660Y-81031359D01*
X137328071Y-81022978D01*
X137342391Y-80963334D01*
X137343342Y-80959829D01*
X137374011Y-80858725D01*
X137376049Y-80853028D01*
X137401319Y-80792021D01*
X137403911Y-80786540D01*
X137453738Y-80693321D01*
X137455494Y-80690257D01*
X137487572Y-80637911D01*
X137492485Y-80631006D01*
X137583861Y-80519664D01*
X137594020Y-80507769D01*
X137607769Y-80494020D01*
X137619664Y-80483861D01*
X137731006Y-80392485D01*
X137737911Y-80387572D01*
X137790257Y-80355494D01*
X137793321Y-80353738D01*
X137886540Y-80303911D01*
X137892021Y-80301319D01*
X137953017Y-80276054D01*
X137958726Y-80274011D01*
X138059854Y-80243335D01*
X138063310Y-80242396D01*
X138122968Y-80228073D01*
X138131353Y-80226661D01*
X138274701Y-80212542D01*
X138297573Y-80210741D01*
X138302437Y-80210551D01*
X168297565Y-80210551D01*
X168302424Y-80210741D01*
G37*
%TD.AperFunction*%
%TD*%
M02*
