%TF.GenerationSoftware,KiCad,Pcbnew,7.0.6-1.fc38*%
%TF.CreationDate,2023-08-03T18:28:49+02:00*%
%TF.ProjectId,quadcopter-flight-controler,71756164-636f-4707-9465-722d666c6967,rev?*%
%TF.SameCoordinates,Original*%
%TF.FileFunction,Soldermask,Top*%
%TF.FilePolarity,Negative*%
%FSLAX46Y46*%
G04 Gerber Fmt 4.6, Leading zero omitted, Abs format (unit mm)*
G04 Created by KiCad (PCBNEW 7.0.6-1.fc38) date 2023-08-03 18:28:49*
%MOMM*%
%LPD*%
G01*
G04 APERTURE LIST*
G04 Aperture macros list*
%AMRoundRect*
0 Rectangle with rounded corners*
0 $1 Rounding radius*
0 $2 $3 $4 $5 $6 $7 $8 $9 X,Y pos of 4 corners*
0 Add a 4 corners polygon primitive as box body*
4,1,4,$2,$3,$4,$5,$6,$7,$8,$9,$2,$3,0*
0 Add four circle primitives for the rounded corners*
1,1,$1+$1,$2,$3*
1,1,$1+$1,$4,$5*
1,1,$1+$1,$6,$7*
1,1,$1+$1,$8,$9*
0 Add four rect primitives between the rounded corners*
20,1,$1+$1,$2,$3,$4,$5,0*
20,1,$1+$1,$4,$5,$6,$7,0*
20,1,$1+$1,$6,$7,$8,$9,0*
20,1,$1+$1,$8,$9,$2,$3,0*%
G04 Aperture macros list end*
%ADD10R,1.700000X1.700000*%
%ADD11O,1.700000X1.700000*%
%ADD12R,0.350000X0.500000*%
%ADD13RoundRect,0.250000X0.475000X-0.250000X0.475000X0.250000X-0.475000X0.250000X-0.475000X-0.250000X0*%
%ADD14C,1.000000*%
%ADD15RoundRect,0.243750X-0.456250X0.243750X-0.456250X-0.243750X0.456250X-0.243750X0.456250X0.243750X0*%
%ADD16R,1.000000X1.000000*%
%ADD17O,1.000000X1.000000*%
%ADD18R,3.400000X0.980000*%
%ADD19RoundRect,0.250000X-0.250000X-0.475000X0.250000X-0.475000X0.250000X0.475000X-0.250000X0.475000X0*%
%ADD20RoundRect,0.250000X-0.450000X0.262500X-0.450000X-0.262500X0.450000X-0.262500X0.450000X0.262500X0*%
%ADD21RoundRect,0.075000X0.662500X0.075000X-0.662500X0.075000X-0.662500X-0.075000X0.662500X-0.075000X0*%
%ADD22RoundRect,0.075000X0.075000X0.662500X-0.075000X0.662500X-0.075000X-0.662500X0.075000X-0.662500X0*%
%ADD23R,1.500000X1.000000*%
%ADD24RoundRect,0.150000X0.587500X0.150000X-0.587500X0.150000X-0.587500X-0.150000X0.587500X-0.150000X0*%
%ADD25R,1.200000X2.000000*%
%ADD26R,1.350000X0.400000*%
%ADD27R,1.400000X1.600000*%
%ADD28R,1.900000X1.900000*%
%ADD29O,1.800000X0.900000*%
%ADD30RoundRect,0.250000X0.450000X-0.262500X0.450000X0.262500X-0.450000X0.262500X-0.450000X-0.262500X0*%
%ADD31RoundRect,0.250000X0.250000X0.475000X-0.250000X0.475000X-0.250000X-0.475000X0.250000X-0.475000X0*%
%ADD32RoundRect,0.075000X-0.350000X-0.075000X0.350000X-0.075000X0.350000X0.075000X-0.350000X0.075000X0*%
%ADD33RoundRect,0.075000X0.075000X-0.350000X0.075000X0.350000X-0.075000X0.350000X-0.075000X-0.350000X0*%
%ADD34RoundRect,0.250000X0.262500X0.450000X-0.262500X0.450000X-0.262500X-0.450000X0.262500X-0.450000X0*%
%ADD35RoundRect,0.100000X0.130000X0.100000X-0.130000X0.100000X-0.130000X-0.100000X0.130000X-0.100000X0*%
%ADD36RoundRect,0.250000X-0.262500X-0.450000X0.262500X-0.450000X0.262500X0.450000X-0.262500X0.450000X0*%
%ADD37RoundRect,0.100000X-0.130000X-0.100000X0.130000X-0.100000X0.130000X0.100000X-0.130000X0.100000X0*%
%ADD38RoundRect,0.150000X0.512500X0.150000X-0.512500X0.150000X-0.512500X-0.150000X0.512500X-0.150000X0*%
%ADD39RoundRect,0.150000X-0.150000X0.512500X-0.150000X-0.512500X0.150000X-0.512500X0.150000X0.512500X0*%
G04 APERTURE END LIST*
D10*
%TO.C,J8*%
X162320000Y-82600000D03*
D11*
X162320000Y-85140000D03*
X159780000Y-82600000D03*
X159780000Y-85140000D03*
X157240000Y-82600000D03*
X157240000Y-85140000D03*
X154700000Y-82600000D03*
X154700000Y-85140000D03*
%TD*%
D12*
%TO.C,U6*%
X163050000Y-113050000D03*
X163700000Y-113050000D03*
X164350000Y-113050000D03*
X165000000Y-113050000D03*
X165000000Y-114650000D03*
X164350000Y-114650000D03*
X163700000Y-114650000D03*
X163050000Y-114650000D03*
%TD*%
D13*
%TO.C,C14*%
X159700000Y-111400000D03*
X159700000Y-109500000D03*
%TD*%
D14*
%TO.C,J19*%
X152800000Y-88400000D03*
%TD*%
D15*
%TO.C,D6*%
X147700000Y-94262500D03*
X147700000Y-96137500D03*
%TD*%
D14*
%TO.C,J16*%
X162100000Y-122200000D03*
%TD*%
D13*
%TO.C,C2*%
X151900000Y-112550000D03*
X151900000Y-110650000D03*
%TD*%
D16*
%TO.C,J5*%
X138800000Y-89450000D03*
D17*
X138800000Y-90720000D03*
%TD*%
D18*
%TO.C,L1*%
X140050000Y-110000000D03*
X140050000Y-107630000D03*
%TD*%
D14*
%TO.C,J15*%
X154900000Y-88400000D03*
%TD*%
D19*
%TO.C,C13*%
X143300000Y-106815000D03*
X145200000Y-106815000D03*
%TD*%
%TO.C,C1*%
X143300000Y-104615000D03*
X145200000Y-104615000D03*
%TD*%
%TO.C,C15*%
X156000000Y-114550000D03*
X157900000Y-114550000D03*
%TD*%
D20*
%TO.C,R18*%
X149900000Y-94287500D03*
X149900000Y-96112500D03*
%TD*%
D14*
%TO.C,J13*%
X157000000Y-88300000D03*
%TD*%
D20*
%TO.C,R7*%
X149600000Y-104087500D03*
X149600000Y-105912500D03*
%TD*%
D15*
%TO.C,D1*%
X147500000Y-104062500D03*
X147500000Y-105937500D03*
%TD*%
D16*
%TO.C,J9*%
X138900000Y-84600000D03*
D17*
X138900000Y-85870000D03*
%TD*%
D21*
%TO.C,U2*%
X161762500Y-102650000D03*
X161762500Y-102150000D03*
X161762500Y-101650000D03*
X161762500Y-101150000D03*
X161762500Y-100650000D03*
X161762500Y-100150000D03*
X161762500Y-99650000D03*
X161762500Y-99150000D03*
X161762500Y-98650000D03*
X161762500Y-98150000D03*
X161762500Y-97650000D03*
X161762500Y-97150000D03*
D22*
X160350000Y-95737500D03*
X159850000Y-95737500D03*
X159350000Y-95737500D03*
X158850000Y-95737500D03*
X158350000Y-95737500D03*
X157850000Y-95737500D03*
X157350000Y-95737500D03*
X156850000Y-95737500D03*
X156350000Y-95737500D03*
X155850000Y-95737500D03*
X155350000Y-95737500D03*
X154850000Y-95737500D03*
D21*
X153437500Y-97150000D03*
X153437500Y-97650000D03*
X153437500Y-98150000D03*
X153437500Y-98650000D03*
X153437500Y-99150000D03*
X153437500Y-99650000D03*
X153437500Y-100150000D03*
X153437500Y-100650000D03*
X153437500Y-101150000D03*
X153437500Y-101650000D03*
X153437500Y-102150000D03*
X153437500Y-102650000D03*
D22*
X154850000Y-104062500D03*
X155350000Y-104062500D03*
X155850000Y-104062500D03*
X156350000Y-104062500D03*
X156850000Y-104062500D03*
X157350000Y-104062500D03*
X157850000Y-104062500D03*
X158350000Y-104062500D03*
X158850000Y-104062500D03*
X159350000Y-104062500D03*
X159850000Y-104062500D03*
X160350000Y-104062500D03*
%TD*%
D14*
%TO.C,J11*%
X166400000Y-108800000D03*
%TD*%
D23*
%TO.C,JP1*%
X160100000Y-114800000D03*
X160100000Y-113500000D03*
%TD*%
D24*
%TO.C,Q6*%
X149575000Y-91450000D03*
X149575000Y-89550000D03*
X147700000Y-90500000D03*
%TD*%
D23*
%TO.C,JP4*%
X148900000Y-116250000D03*
X148900000Y-117550000D03*
%TD*%
D25*
%TO.C,Y1*%
X165600000Y-99500000D03*
X165600000Y-103200000D03*
X167800000Y-103200000D03*
X167800000Y-99500000D03*
%TD*%
D11*
%TO.C,J4*%
X150900000Y-85175000D03*
X150900000Y-82635000D03*
X148360000Y-85175000D03*
X148360000Y-82635000D03*
D10*
X145820000Y-85175000D03*
D11*
X145820000Y-82635000D03*
%TD*%
D26*
%TO.C,J2*%
X141500000Y-97550000D03*
X141500000Y-98200000D03*
X141500000Y-98850000D03*
X141500000Y-99500000D03*
X141500000Y-100150000D03*
D27*
X141275000Y-95650000D03*
X141275000Y-102050000D03*
D28*
X138825000Y-100050000D03*
X138825000Y-97650000D03*
D29*
X138825000Y-95550000D03*
X138825000Y-102150000D03*
%TD*%
D14*
%TO.C,J17*%
X151800000Y-105300000D03*
%TD*%
%TO.C,J10*%
X166400000Y-106500000D03*
%TD*%
D16*
%TO.C,J7*%
X138875000Y-120125000D03*
D17*
X138875000Y-118855000D03*
%TD*%
D30*
%TO.C,R3*%
X148900000Y-113912500D03*
X148900000Y-112087500D03*
%TD*%
D31*
%TO.C,C18*%
X164800000Y-111350000D03*
X162900000Y-111350000D03*
%TD*%
D19*
%TO.C,C12*%
X143300000Y-113215000D03*
X145200000Y-113215000D03*
%TD*%
D32*
%TO.C,U5*%
X153800000Y-109350000D03*
X153800000Y-109850000D03*
X153800000Y-110350000D03*
X153800000Y-110850000D03*
X153800000Y-111350000D03*
X153800000Y-111850000D03*
D33*
X154500000Y-112550000D03*
X155000000Y-112550000D03*
X155500000Y-112550000D03*
X156000000Y-112550000D03*
X156500000Y-112550000D03*
X157000000Y-112550000D03*
D32*
X157700000Y-111850000D03*
X157700000Y-111350000D03*
X157700000Y-110850000D03*
X157700000Y-110350000D03*
X157700000Y-109850000D03*
X157700000Y-109350000D03*
D33*
X157000000Y-108650000D03*
X156500000Y-108650000D03*
X156000000Y-108650000D03*
X155500000Y-108650000D03*
X155000000Y-108650000D03*
X154500000Y-108650000D03*
%TD*%
D14*
%TO.C,J18*%
X151800000Y-107500000D03*
%TD*%
D34*
%TO.C,R1*%
X163925000Y-109100000D03*
X162100000Y-109100000D03*
%TD*%
D23*
%TO.C,JP3*%
X167900000Y-112200000D03*
X167900000Y-110900000D03*
%TD*%
D30*
%TO.C,R6*%
X149600000Y-109825000D03*
X149600000Y-108000000D03*
%TD*%
D14*
%TO.C,J12*%
X164300000Y-122200000D03*
%TD*%
D35*
%TO.C,C11*%
X166920000Y-97645000D03*
X166280000Y-97645000D03*
%TD*%
D36*
%TO.C,R9*%
X166600000Y-114300000D03*
X168425000Y-114300000D03*
%TD*%
D19*
%TO.C,C17*%
X162900000Y-116600000D03*
X164800000Y-116600000D03*
%TD*%
D37*
%TO.C,C10*%
X166380000Y-105045000D03*
X167020000Y-105045000D03*
%TD*%
D10*
%TO.C,J20*%
X158480000Y-122200000D03*
D11*
X155940000Y-122200000D03*
X153400000Y-122200000D03*
%TD*%
D14*
%TO.C,J14*%
X159100000Y-88300000D03*
%TD*%
D37*
%TO.C,C16*%
X159080000Y-108300000D03*
X159720000Y-108300000D03*
%TD*%
D34*
%TO.C,R2*%
X149100000Y-102100000D03*
X147275000Y-102100000D03*
%TD*%
D16*
%TO.C,J6*%
X167725000Y-89350000D03*
D17*
X167725000Y-90620000D03*
%TD*%
D30*
%TO.C,R5*%
X147500000Y-109825000D03*
X147500000Y-108000000D03*
%TD*%
D10*
%TO.C,J3*%
X147200000Y-122200000D03*
D11*
X149740000Y-122200000D03*
%TD*%
D34*
%TO.C,R4*%
X163925000Y-107100000D03*
X162100000Y-107100000D03*
%TD*%
%TO.C,R8*%
X153712500Y-114550000D03*
X151887500Y-114550000D03*
%TD*%
D24*
%TO.C,Q5*%
X153600000Y-119600000D03*
X153600000Y-117700000D03*
X151725000Y-118650000D03*
%TD*%
D38*
%TO.C,U3*%
X146537500Y-100150000D03*
X146537500Y-99200000D03*
X146537500Y-98250000D03*
X144262500Y-98250000D03*
X144262500Y-99200000D03*
X144262500Y-100150000D03*
%TD*%
D16*
%TO.C,J1*%
X167800000Y-120400000D03*
D17*
X167800000Y-119130000D03*
%TD*%
D39*
%TO.C,U1*%
X145200000Y-108877500D03*
X144250000Y-108877500D03*
X143300000Y-108877500D03*
X143300000Y-111152500D03*
X144250000Y-111152500D03*
X145200000Y-111152500D03*
%TD*%
M02*
