%TF.GenerationSoftware,KiCad,Pcbnew,7.0.6-1.fc38*%
%TF.CreationDate,2023-08-03T18:28:49+02:00*%
%TF.ProjectId,quadcopter-flight-controler,71756164-636f-4707-9465-722d666c6967,rev?*%
%TF.SameCoordinates,Original*%
%TF.FileFunction,Legend,Bot*%
%TF.FilePolarity,Positive*%
%FSLAX46Y46*%
G04 Gerber Fmt 4.6, Leading zero omitted, Abs format (unit mm)*
G04 Created by KiCad (PCBNEW 7.0.6-1.fc38) date 2023-08-03 18:28:49*
%MOMM*%
%LPD*%
G01*
G04 APERTURE LIST*
%ADD10C,0.120000*%
G04 APERTURE END LIST*
D10*
%TO.C,R17*%
X144465000Y-119627064D02*
X144465000Y-119172936D01*
X145935000Y-119627064D02*
X145935000Y-119172936D01*
%TO.C,R10*%
X162482936Y-115765000D02*
X162937064Y-115765000D01*
X162482936Y-117235000D02*
X162937064Y-117235000D01*
%TO.C,D4*%
X168947500Y-93950000D02*
X165087500Y-93950000D01*
X168947500Y-91950000D02*
X168947500Y-93950000D01*
X168947500Y-91950000D02*
X165087500Y-91950000D01*
%TO.C,D2*%
X169020000Y-117300000D02*
X165160000Y-117300000D01*
X169020000Y-115300000D02*
X169020000Y-117300000D01*
X169020000Y-115300000D02*
X165160000Y-115300000D01*
%TO.C,R13*%
X144465000Y-90177064D02*
X144465000Y-89722936D01*
X145935000Y-90177064D02*
X145935000Y-89722936D01*
%TO.C,C4*%
X155688748Y-92965000D02*
X156211252Y-92965000D01*
X155688748Y-94435000D02*
X156211252Y-94435000D01*
%TO.C,C8*%
X163988748Y-94490000D02*
X165411252Y-94490000D01*
X163988748Y-96310000D02*
X165411252Y-96310000D01*
%TO.C,R16*%
X144327064Y-122935000D02*
X143872936Y-122935000D01*
X144327064Y-121465000D02*
X143872936Y-121465000D01*
%TO.C,Q2*%
X142137500Y-91510000D02*
X142787500Y-91510000D01*
X142137500Y-91510000D02*
X141487500Y-91510000D01*
X142137500Y-88390000D02*
X143812500Y-88390000D01*
X142137500Y-88390000D02*
X141487500Y-88390000D01*
%TO.C,D3*%
X137690000Y-92000000D02*
X141550000Y-92000000D01*
X137690000Y-94000000D02*
X137690000Y-92000000D01*
X137690000Y-94000000D02*
X141550000Y-94000000D01*
%TO.C,C7*%
X164535000Y-98188748D02*
X164535000Y-98711252D01*
X163065000Y-98188748D02*
X163065000Y-98711252D01*
%TO.C,R15*%
X162035000Y-89585436D02*
X162035000Y-90039564D01*
X160565000Y-89585436D02*
X160565000Y-90039564D01*
%TO.C,C5*%
X162535000Y-104488748D02*
X162535000Y-105011252D01*
X161065000Y-104488748D02*
X161065000Y-105011252D01*
%TO.C,D5*%
X137590000Y-115300000D02*
X141450000Y-115300000D01*
X137590000Y-117300000D02*
X137590000Y-115300000D01*
X137590000Y-117300000D02*
X141450000Y-117300000D01*
%TO.C,C3*%
X164635000Y-103288748D02*
X164635000Y-103811252D01*
X163165000Y-103288748D02*
X163165000Y-103811252D01*
%TO.C,R19*%
X151065000Y-93639564D02*
X151065000Y-93185436D01*
X152535000Y-93639564D02*
X152535000Y-93185436D01*
%TO.C,C6*%
X166535000Y-98188748D02*
X166535000Y-98711252D01*
X165065000Y-98188748D02*
X165065000Y-98711252D01*
%TO.C,R12*%
X144627064Y-93435000D02*
X144172936Y-93435000D01*
X144627064Y-91965000D02*
X144172936Y-91965000D01*
%TO.C,R11*%
X162082500Y-119222936D02*
X162082500Y-119677064D01*
X160612500Y-119222936D02*
X160612500Y-119677064D01*
%TO.C,Q4*%
X142200000Y-120960000D02*
X142850000Y-120960000D01*
X142200000Y-120960000D02*
X141550000Y-120960000D01*
X142200000Y-117840000D02*
X143875000Y-117840000D01*
X142200000Y-117840000D02*
X141550000Y-117840000D01*
%TO.C,C19*%
X150465000Y-101611252D02*
X150465000Y-101088748D01*
X151935000Y-101611252D02*
X151935000Y-101088748D01*
%TO.C,R14*%
X162272936Y-86265000D02*
X162727064Y-86265000D01*
X162272936Y-87735000D02*
X162727064Y-87735000D01*
%TO.C,Q1*%
X164447500Y-117840000D02*
X163797500Y-117840000D01*
X164447500Y-117840000D02*
X165097500Y-117840000D01*
X164447500Y-120960000D02*
X162772500Y-120960000D01*
X164447500Y-120960000D02*
X165097500Y-120960000D01*
%TO.C,Q3*%
X164337500Y-88290000D02*
X163687500Y-88290000D01*
X164337500Y-88290000D02*
X164987500Y-88290000D01*
X164337500Y-91410000D02*
X162662500Y-91410000D01*
X164337500Y-91410000D02*
X164987500Y-91410000D01*
%TD*%
M02*
