%TF.GenerationSoftware,KiCad,Pcbnew,7.0.6-1.fc38*%
%TF.CreationDate,2023-08-03T18:28:49+02:00*%
%TF.ProjectId,quadcopter-flight-controler,71756164-636f-4707-9465-722d666c6967,rev?*%
%TF.SameCoordinates,Original*%
%TF.FileFunction,Copper,L4,Bot*%
%TF.FilePolarity,Positive*%
%FSLAX46Y46*%
G04 Gerber Fmt 4.6, Leading zero omitted, Abs format (unit mm)*
G04 Created by KiCad (PCBNEW 7.0.6-1.fc38) date 2023-08-03 18:28:49*
%MOMM*%
%LPD*%
G01*
G04 APERTURE LIST*
G04 Aperture macros list*
%AMRoundRect*
0 Rectangle with rounded corners*
0 $1 Rounding radius*
0 $2 $3 $4 $5 $6 $7 $8 $9 X,Y pos of 4 corners*
0 Add a 4 corners polygon primitive as box body*
4,1,4,$2,$3,$4,$5,$6,$7,$8,$9,$2,$3,0*
0 Add four circle primitives for the rounded corners*
1,1,$1+$1,$2,$3*
1,1,$1+$1,$4,$5*
1,1,$1+$1,$6,$7*
1,1,$1+$1,$8,$9*
0 Add four rect primitives between the rounded corners*
20,1,$1+$1,$2,$3,$4,$5,0*
20,1,$1+$1,$4,$5,$6,$7,0*
20,1,$1+$1,$6,$7,$8,$9,0*
20,1,$1+$1,$8,$9,$2,$3,0*%
G04 Aperture macros list end*
%TA.AperFunction,ComponentPad*%
%ADD10R,1.700000X1.700000*%
%TD*%
%TA.AperFunction,ComponentPad*%
%ADD11O,1.700000X1.700000*%
%TD*%
%TA.AperFunction,ComponentPad*%
%ADD12R,1.000000X1.000000*%
%TD*%
%TA.AperFunction,ComponentPad*%
%ADD13O,1.000000X1.000000*%
%TD*%
%TA.AperFunction,ComponentPad*%
%ADD14O,1.800000X0.900000*%
%TD*%
%TA.AperFunction,SMDPad,CuDef*%
%ADD15RoundRect,0.250000X0.450000X-0.262500X0.450000X0.262500X-0.450000X0.262500X-0.450000X-0.262500X0*%
%TD*%
%TA.AperFunction,SMDPad,CuDef*%
%ADD16RoundRect,0.250000X-0.262500X-0.450000X0.262500X-0.450000X0.262500X0.450000X-0.262500X0.450000X0*%
%TD*%
%TA.AperFunction,SMDPad,CuDef*%
%ADD17RoundRect,0.250000X0.300000X0.300000X-0.300000X0.300000X-0.300000X-0.300000X0.300000X-0.300000X0*%
%TD*%
%TA.AperFunction,SMDPad,CuDef*%
%ADD18RoundRect,0.250000X-0.250000X-0.475000X0.250000X-0.475000X0.250000X0.475000X-0.250000X0.475000X0*%
%TD*%
%TA.AperFunction,SMDPad,CuDef*%
%ADD19RoundRect,0.250000X-0.325000X-0.650000X0.325000X-0.650000X0.325000X0.650000X-0.325000X0.650000X0*%
%TD*%
%TA.AperFunction,SMDPad,CuDef*%
%ADD20RoundRect,0.250000X0.262500X0.450000X-0.262500X0.450000X-0.262500X-0.450000X0.262500X-0.450000X0*%
%TD*%
%TA.AperFunction,SMDPad,CuDef*%
%ADD21RoundRect,0.150000X0.587500X0.150000X-0.587500X0.150000X-0.587500X-0.150000X0.587500X-0.150000X0*%
%TD*%
%TA.AperFunction,SMDPad,CuDef*%
%ADD22RoundRect,0.250000X-0.300000X-0.300000X0.300000X-0.300000X0.300000X0.300000X-0.300000X0.300000X0*%
%TD*%
%TA.AperFunction,SMDPad,CuDef*%
%ADD23RoundRect,0.250000X-0.475000X0.250000X-0.475000X-0.250000X0.475000X-0.250000X0.475000X0.250000X0*%
%TD*%
%TA.AperFunction,SMDPad,CuDef*%
%ADD24RoundRect,0.250000X-0.450000X0.262500X-0.450000X-0.262500X0.450000X-0.262500X0.450000X0.262500X0*%
%TD*%
%TA.AperFunction,SMDPad,CuDef*%
%ADD25RoundRect,0.250000X0.475000X-0.250000X0.475000X0.250000X-0.475000X0.250000X-0.475000X-0.250000X0*%
%TD*%
%TA.AperFunction,SMDPad,CuDef*%
%ADD26RoundRect,0.150000X-0.587500X-0.150000X0.587500X-0.150000X0.587500X0.150000X-0.587500X0.150000X0*%
%TD*%
%TA.AperFunction,ViaPad*%
%ADD27C,0.800000*%
%TD*%
%TA.AperFunction,Conductor*%
%ADD28C,0.550000*%
%TD*%
%TA.AperFunction,Conductor*%
%ADD29C,1.400000*%
%TD*%
%TA.AperFunction,Conductor*%
%ADD30C,1.000000*%
%TD*%
%TA.AperFunction,Conductor*%
%ADD31C,0.300000*%
%TD*%
%TA.AperFunction,Conductor*%
%ADD32C,1.100000*%
%TD*%
G04 APERTURE END LIST*
D10*
%TO.P,J8,1,Pin_1*%
%TO.N,GND*%
X162320000Y-82600000D03*
D11*
%TO.P,J8,2,Pin_2*%
%TO.N,/OUT_PB1*%
X162320000Y-85140000D03*
%TO.P,J8,3,Pin_3*%
%TO.N,/SPI_SCK*%
X159780000Y-82600000D03*
%TO.P,J8,4,Pin_4*%
%TO.N,/SPI_MISO*%
X159780000Y-85140000D03*
%TO.P,J8,5,Pin_5*%
%TO.N,/GPIO_EXTI4*%
X157240000Y-82600000D03*
%TO.P,J8,6,Pin_6*%
%TO.N,/SPI_MOSI*%
X157240000Y-85140000D03*
%TO.P,J8,7,Pin_7*%
%TO.N,/OUT_PB2*%
X154700000Y-82600000D03*
%TO.P,J8,8,Pin_8*%
%TO.N,VDD*%
X154700000Y-85140000D03*
%TD*%
D12*
%TO.P,J5,1,Pin_1*%
%TO.N,Net-(D3-A)*%
X138800000Y-89450000D03*
D13*
%TO.P,J5,2,Pin_2*%
%TO.N,VDC*%
X138800000Y-90720000D03*
%TD*%
D12*
%TO.P,J9,1,Pin_1*%
%TO.N,VDD*%
X138900000Y-84600000D03*
D13*
%TO.P,J9,2,Pin_2*%
%TO.N,Net-(J9-Pin_2)*%
X138900000Y-85870000D03*
%TD*%
D11*
%TO.P,J4,1,VCC*%
%TO.N,VDD*%
X150900000Y-85175000D03*
%TO.P,J4,2,SWDIO*%
%TO.N,/SWDIO*%
X150900000Y-82635000D03*
%TO.P,J4,3,~{RESET}*%
%TO.N,/RST*%
X148360000Y-85175000D03*
%TO.P,J4,4,SWCLK*%
%TO.N,/SWCLK*%
X148360000Y-82635000D03*
D10*
%TO.P,J4,5,GND*%
%TO.N,GND*%
X145820000Y-85175000D03*
D11*
%TO.P,J4,6,SWO*%
%TO.N,unconnected-(J4-SWO-Pad6)*%
X145820000Y-82635000D03*
%TD*%
D14*
%TO.P,J2,S5,SHIELD*%
%TO.N,unconnected-(J2-SHIELD-PadS1)*%
X138825000Y-95550000D03*
%TO.P,J2,S6,SHIELD*%
X138825000Y-102150000D03*
%TD*%
D12*
%TO.P,J7,1,Pin_1*%
%TO.N,Net-(D5-A)*%
X138875000Y-120125000D03*
D13*
%TO.P,J7,2,Pin_2*%
%TO.N,VDC*%
X138875000Y-118855000D03*
%TD*%
D10*
%TO.P,J20,1,Pin_1*%
%TO.N,+5V*%
X158480000Y-122200000D03*
D11*
%TO.P,J20,2,Pin_2*%
%TO.N,VDC*%
X155940000Y-122200000D03*
%TO.P,J20,3,Pin_3*%
%TO.N,+BATT*%
X153400000Y-122200000D03*
%TD*%
D12*
%TO.P,J6,1,Pin_1*%
%TO.N,Net-(D4-A)*%
X167725000Y-89350000D03*
D13*
%TO.P,J6,2,Pin_2*%
%TO.N,VDC*%
X167725000Y-90620000D03*
%TD*%
D10*
%TO.P,J3,1,Pin_1*%
%TO.N,-BATT*%
X147200000Y-122200000D03*
D11*
%TO.P,J3,2,Pin_2*%
%TO.N,+BATT*%
X149740000Y-122200000D03*
%TD*%
D12*
%TO.P,J1,1,Pin_1*%
%TO.N,Net-(D2-A)*%
X167800000Y-120400000D03*
D13*
%TO.P,J1,2,Pin_2*%
%TO.N,VDC*%
X167800000Y-119130000D03*
%TD*%
D15*
%TO.P,R17,1*%
%TO.N,/TM2_CH1*%
X145200000Y-120312500D03*
%TO.P,R17,2*%
%TO.N,Net-(Q4-G)*%
X145200000Y-118487500D03*
%TD*%
D16*
%TO.P,R10,1*%
%TO.N,/TM2_CH2*%
X161797500Y-116500000D03*
%TO.P,R10,2*%
%TO.N,-BATT*%
X163622500Y-116500000D03*
%TD*%
D17*
%TO.P,D4,1,K*%
%TO.N,VDC*%
X168137500Y-92950000D03*
%TO.P,D4,2,A*%
%TO.N,Net-(D4-A)*%
X165337500Y-92950000D03*
%TD*%
%TO.P,D2,1,K*%
%TO.N,VDC*%
X168210000Y-116300000D03*
%TO.P,D2,2,A*%
%TO.N,Net-(D2-A)*%
X165410000Y-116300000D03*
%TD*%
D15*
%TO.P,R13,1*%
%TO.N,/TM2_CH4*%
X145200000Y-90862500D03*
%TO.P,R13,2*%
%TO.N,Net-(Q2-G)*%
X145200000Y-89037500D03*
%TD*%
D18*
%TO.P,C4,1*%
%TO.N,VDD*%
X155000000Y-93700000D03*
%TO.P,C4,2*%
%TO.N,GND*%
X156900000Y-93700000D03*
%TD*%
D19*
%TO.P,C8,1*%
%TO.N,VDD*%
X163225000Y-95400000D03*
%TO.P,C8,2*%
%TO.N,GND*%
X166175000Y-95400000D03*
%TD*%
D20*
%TO.P,R16,1*%
%TO.N,/TM2_CH1*%
X145012500Y-122200000D03*
%TO.P,R16,2*%
%TO.N,-BATT*%
X143187500Y-122200000D03*
%TD*%
D21*
%TO.P,Q2,1,G*%
%TO.N,Net-(Q2-G)*%
X143075000Y-89000000D03*
%TO.P,Q2,2,S*%
%TO.N,-BATT*%
X143075000Y-90900000D03*
%TO.P,Q2,3,D*%
%TO.N,Net-(D3-A)*%
X141200000Y-89950000D03*
%TD*%
D22*
%TO.P,D3,1,K*%
%TO.N,VDC*%
X138500000Y-93000000D03*
%TO.P,D3,2,A*%
%TO.N,Net-(D3-A)*%
X141300000Y-93000000D03*
%TD*%
D23*
%TO.P,C7,1*%
%TO.N,VDD*%
X163800000Y-97500000D03*
%TO.P,C7,2*%
%TO.N,GND*%
X163800000Y-99400000D03*
%TD*%
D24*
%TO.P,R15,1*%
%TO.N,/TM2_CH3*%
X161300000Y-88900000D03*
%TO.P,R15,2*%
%TO.N,Net-(Q3-G)*%
X161300000Y-90725000D03*
%TD*%
D23*
%TO.P,C5,1*%
%TO.N,VDD*%
X161800000Y-103800000D03*
%TO.P,C5,2*%
%TO.N,GND*%
X161800000Y-105700000D03*
%TD*%
D22*
%TO.P,D5,1,K*%
%TO.N,VDC*%
X138400000Y-116300000D03*
%TO.P,D5,2,A*%
%TO.N,Net-(D5-A)*%
X141200000Y-116300000D03*
%TD*%
D23*
%TO.P,C3,1*%
%TO.N,VDD*%
X163900000Y-102600000D03*
%TO.P,C3,2*%
%TO.N,GND*%
X163900000Y-104500000D03*
%TD*%
D15*
%TO.P,R19,1*%
%TO.N,/GPIO_PB13*%
X151800000Y-94325000D03*
%TO.P,R19,2*%
%TO.N,Net-(Q6-B)*%
X151800000Y-92500000D03*
%TD*%
D23*
%TO.P,C6,1*%
%TO.N,VDD*%
X165800000Y-97500000D03*
%TO.P,C6,2*%
%TO.N,GND*%
X165800000Y-99400000D03*
%TD*%
D20*
%TO.P,R12,1*%
%TO.N,/TM2_CH4*%
X145312500Y-92700000D03*
%TO.P,R12,2*%
%TO.N,-BATT*%
X143487500Y-92700000D03*
%TD*%
D24*
%TO.P,R11,1*%
%TO.N,/TM2_CH2*%
X161347500Y-118537500D03*
%TO.P,R11,2*%
%TO.N,Net-(Q1-G)*%
X161347500Y-120362500D03*
%TD*%
D21*
%TO.P,Q4,1,G*%
%TO.N,Net-(Q4-G)*%
X143137500Y-118450000D03*
%TO.P,Q4,2,S*%
%TO.N,-BATT*%
X143137500Y-120350000D03*
%TO.P,Q4,3,D*%
%TO.N,Net-(D5-A)*%
X141262500Y-119400000D03*
%TD*%
D25*
%TO.P,C19,1*%
%TO.N,VDD*%
X151200000Y-102300000D03*
%TO.P,C19,2*%
%TO.N,GND*%
X151200000Y-100400000D03*
%TD*%
D16*
%TO.P,R14,1*%
%TO.N,/TM2_CH3*%
X161587500Y-87000000D03*
%TO.P,R14,2*%
%TO.N,-BATT*%
X163412500Y-87000000D03*
%TD*%
D26*
%TO.P,Q1,1,G*%
%TO.N,Net-(Q1-G)*%
X163510000Y-120350000D03*
%TO.P,Q1,2,S*%
%TO.N,-BATT*%
X163510000Y-118450000D03*
%TO.P,Q1,3,D*%
%TO.N,Net-(D2-A)*%
X165385000Y-119400000D03*
%TD*%
%TO.P,Q3,1,G*%
%TO.N,Net-(Q3-G)*%
X163400000Y-90800000D03*
%TO.P,Q3,2,S*%
%TO.N,-BATT*%
X163400000Y-88900000D03*
%TO.P,Q3,3,D*%
%TO.N,Net-(D4-A)*%
X165275000Y-89850000D03*
%TD*%
D27*
%TO.N,VDD*%
X155000000Y-93700000D03*
X161100000Y-123500000D03*
X168000000Y-110900000D03*
X163925000Y-107100000D03*
X164900000Y-109100000D03*
X149100000Y-101000000D03*
X159700000Y-111400000D03*
X160100000Y-113500000D03*
X161800000Y-103800000D03*
X151200000Y-102300000D03*
X147500000Y-106000000D03*
X150600000Y-112500000D03*
X149600000Y-108000000D03*
X143300000Y-104615000D03*
X163800000Y-97500000D03*
X148900000Y-117600000D03*
X161900000Y-114700000D03*
X163900000Y-102600000D03*
X164800000Y-111350000D03*
%TO.N,GND*%
X165500000Y-123500000D03*
X149587500Y-105912500D03*
X156900000Y-93700000D03*
X161800000Y-111300000D03*
X150600000Y-111000000D03*
X167400000Y-99500000D03*
X166200000Y-95400000D03*
X145200000Y-113200000D03*
X163800000Y-99400000D03*
X155100000Y-118400000D03*
X165600000Y-103200000D03*
X150200000Y-100800000D03*
X156100000Y-118400000D03*
X142700000Y-100200000D03*
X145200000Y-106815000D03*
X148000000Y-89500000D03*
X148900000Y-112100000D03*
X157900000Y-114550000D03*
X149900000Y-96100000D03*
X149000000Y-99200000D03*
X147500000Y-108000000D03*
X161800000Y-105700000D03*
X150800000Y-114500000D03*
X168425000Y-114300000D03*
X163900000Y-104500000D03*
X159700000Y-109500000D03*
%TO.N,/RST*%
X154800000Y-98900000D03*
%TO.N,VDC*%
X147650000Y-114900000D03*
X138400000Y-116300000D03*
X168200000Y-117700000D03*
%TO.N,/SWDIO*%
X156100000Y-99900000D03*
%TO.N,/SWCLK*%
X157200000Y-99800000D03*
%TO.N,+5V*%
X144300000Y-96200000D03*
X142950000Y-117250000D03*
X141500000Y-123100000D03*
%TO.N,/BOOT0*%
X158500000Y-99700000D03*
X152700000Y-104000000D03*
X148500000Y-110800000D03*
X150800000Y-109000000D03*
%TO.N,/SPI_MOSI*%
X158400000Y-90300000D03*
X158370023Y-91929977D03*
%TO.N,/I2C_SDA*%
X153600000Y-108300000D03*
X160000000Y-101200000D03*
%TO.N,/PB5_EXTI5*%
X158000000Y-113000000D03*
X157800000Y-102500000D03*
%TO.N,-BATT*%
X143187500Y-122200000D03*
X163412500Y-87000000D03*
X163500000Y-119300000D03*
X163400000Y-92000000D03*
%TO.N,/TM2_CH1*%
X152800000Y-115600000D03*
X155700000Y-102100000D03*
X145200000Y-120312500D03*
%TO.N,/TM2_CH2*%
X156800000Y-102100000D03*
%TO.N,/TM2_CH3*%
X160100000Y-97600000D03*
%TO.N,/TM2_CH4*%
X145312500Y-92700000D03*
%TO.N,/OUT_PB1*%
X158300000Y-97600000D03*
%TO.N,Net-(Q6-B)*%
X151800000Y-92500000D03*
%TO.N,/GPIO_PB13*%
X151700000Y-98400000D03*
%TD*%
D28*
%TO.N,Net-(Q3-G)*%
X163400000Y-90800000D02*
X163325000Y-90725000D01*
X163325000Y-90725000D02*
X161300000Y-90725000D01*
D29*
%TO.N,-BATT*%
X143075000Y-90900000D02*
X143075000Y-92287500D01*
X143075000Y-92287500D02*
X143487500Y-92700000D01*
D30*
X143487500Y-93587500D02*
X143487500Y-92700000D01*
D31*
%TO.N,VDD*%
X163600000Y-95775000D02*
X163225000Y-95400000D01*
X163600000Y-97300000D02*
X163600000Y-95775000D01*
X165800000Y-97500000D02*
X163800000Y-97500000D01*
X163800000Y-97500000D02*
X163600000Y-97300000D01*
%TO.N,GND*%
X165800000Y-99400000D02*
X163800000Y-99400000D01*
X166175000Y-95400000D02*
X166200000Y-95400000D01*
%TO.N,/RST*%
X154800000Y-98900000D02*
X153150000Y-97250000D01*
X153150000Y-89965000D02*
X148360000Y-85175000D01*
X153150000Y-97250000D02*
X153150000Y-89965000D01*
D30*
%TO.N,VDC*%
X138500000Y-93000000D02*
X138500000Y-91020000D01*
X166700000Y-102900000D02*
X168500000Y-101100000D01*
X167725000Y-92537500D02*
X167725000Y-90620000D01*
X166700000Y-114900000D02*
X166700000Y-102900000D01*
D32*
X155940000Y-122200000D02*
X148640000Y-114900000D01*
D30*
X168137500Y-92950000D02*
X167725000Y-92537500D01*
X168210000Y-116300000D02*
X168200000Y-116300000D01*
X168500000Y-93312500D02*
X168137500Y-92950000D01*
X168200000Y-117700000D02*
X168210000Y-117710000D01*
X138500000Y-91020000D02*
X138800000Y-90720000D01*
X168100000Y-116300000D02*
X166700000Y-114900000D01*
X141400000Y-95600000D02*
X138800000Y-93000000D01*
X168500000Y-101100000D02*
X168500000Y-93312500D01*
X141400000Y-103100000D02*
X141400000Y-95600000D01*
X138400000Y-116300000D02*
X138400000Y-106100000D01*
X138800000Y-93000000D02*
X138500000Y-93000000D01*
X168210000Y-116300000D02*
X168210000Y-117690000D01*
X168210000Y-116300000D02*
X168100000Y-116300000D01*
D32*
X148640000Y-114900000D02*
X147650000Y-114900000D01*
X167800000Y-92612500D02*
X168137500Y-92950000D01*
D30*
X168210000Y-117690000D02*
X168200000Y-117700000D01*
X138400000Y-106100000D02*
X141400000Y-103100000D01*
D31*
%TO.N,/SWDIO*%
X156100000Y-98700000D02*
X154100000Y-96700000D01*
X154100000Y-88287057D02*
X152300000Y-86487057D01*
X152300000Y-86487057D02*
X152300000Y-83100000D01*
X156100000Y-99900000D02*
X156100000Y-98700000D01*
X151835000Y-82635000D02*
X150900000Y-82635000D01*
X154100000Y-96700000D02*
X154100000Y-88287057D01*
X152300000Y-83100000D02*
X151835000Y-82635000D01*
%TO.N,/SWCLK*%
X152400000Y-81400000D02*
X148700000Y-81400000D01*
X148700000Y-81400000D02*
X148360000Y-81740000D01*
X156000000Y-97800000D02*
X156000000Y-88700000D01*
X157200000Y-99800000D02*
X157200000Y-99000000D01*
X153100000Y-85800000D02*
X153100000Y-82100000D01*
X156000000Y-88700000D02*
X153100000Y-85800000D01*
X157200000Y-99000000D02*
X156000000Y-97800000D01*
X148360000Y-81740000D02*
X148360000Y-82635000D01*
X153100000Y-82100000D02*
X152400000Y-81400000D01*
D28*
%TO.N,+5V*%
X156980000Y-123700000D02*
X158480000Y-122200000D01*
X144300000Y-101800000D02*
X144300000Y-96200000D01*
X139700000Y-106400000D02*
X144300000Y-101800000D01*
X139700000Y-112500000D02*
X139700000Y-106400000D01*
X142100000Y-123700000D02*
X141500000Y-123100000D01*
X143000000Y-115800000D02*
X139700000Y-112500000D01*
X143000000Y-117200000D02*
X143000000Y-115800000D01*
X142950000Y-117250000D02*
X143000000Y-117200000D01*
X142100000Y-123700000D02*
X156980000Y-123700000D01*
D31*
%TO.N,/BOOT0*%
X150600000Y-109000000D02*
X148800000Y-110800000D01*
X158500000Y-99700000D02*
X157500000Y-100700000D01*
X157500000Y-100700000D02*
X154500000Y-100700000D01*
X150800000Y-109000000D02*
X150600000Y-109000000D01*
X154500000Y-100700000D02*
X152700000Y-102500000D01*
X148800000Y-110800000D02*
X148500000Y-110800000D01*
X152700000Y-102500000D02*
X152700000Y-104000000D01*
D32*
%TO.N,Net-(D2-A)*%
X165410000Y-119610000D02*
X166200000Y-120400000D01*
X165410000Y-118500000D02*
X165410000Y-119375000D01*
X166200000Y-120400000D02*
X167800000Y-120400000D01*
X165410000Y-119375000D02*
X165385000Y-119400000D01*
X165410000Y-118500000D02*
X165410000Y-119610000D01*
X165410000Y-116300000D02*
X165410000Y-118500000D01*
%TO.N,Net-(D3-A)*%
X138890000Y-89450000D02*
X140700000Y-89450000D01*
X140700000Y-89450000D02*
X141200000Y-89950000D01*
X141300000Y-93000000D02*
X141300000Y-90050000D01*
X141300000Y-90050000D02*
X141200000Y-89950000D01*
D30*
%TO.N,Net-(D4-A)*%
X165337500Y-89912500D02*
X165275000Y-89850000D01*
X165275000Y-89850000D02*
X165775000Y-89350000D01*
X165775000Y-89350000D02*
X167725000Y-89350000D01*
X165337500Y-92950000D02*
X165337500Y-89912500D01*
D32*
%TO.N,Net-(D5-A)*%
X140537500Y-120125000D02*
X138875000Y-120125000D01*
X141262500Y-119400000D02*
X140537500Y-120125000D01*
X141200000Y-119337500D02*
X141200000Y-116300000D01*
X141262500Y-119400000D02*
X141200000Y-119337500D01*
D31*
%TO.N,/SPI_MOSI*%
X158400000Y-90300000D02*
X158370023Y-90329977D01*
X158370023Y-90329977D02*
X158370023Y-91929977D01*
%TO.N,/I2C_SDA*%
X153600000Y-102900000D02*
X153600000Y-108300000D01*
X155300000Y-101200000D02*
X153600000Y-102900000D01*
X160000000Y-101200000D02*
X155300000Y-101200000D01*
D28*
%TO.N,Net-(Q1-G)*%
X163510000Y-120350000D02*
X161360000Y-120350000D01*
X161360000Y-120350000D02*
X161347500Y-120362500D01*
%TO.N,Net-(Q2-G)*%
X143075000Y-89000000D02*
X145162500Y-89000000D01*
%TO.N,Net-(Q4-G)*%
X145162500Y-118450000D02*
X145200000Y-118487500D01*
X143137500Y-118450000D02*
X145162500Y-118450000D01*
D31*
%TO.N,/PB5_EXTI5*%
X158000000Y-102700000D02*
X158000000Y-113000000D01*
X157800000Y-102500000D02*
X158000000Y-102700000D01*
D30*
%TO.N,-BATT*%
X146400000Y-117200000D02*
X146400000Y-96500000D01*
X163500000Y-119300000D02*
X163500000Y-118460000D01*
X163600000Y-116522500D02*
X163622500Y-116500000D01*
D29*
X143187500Y-122200000D02*
X143187500Y-120400000D01*
D30*
X160300000Y-102700000D02*
X161900000Y-101100000D01*
X147200000Y-122200000D02*
X147200000Y-118000000D01*
D29*
X163412500Y-87000000D02*
X163400000Y-87012500D01*
D30*
X163500000Y-118460000D02*
X163510000Y-118450000D01*
X160300000Y-107000000D02*
X160300000Y-102700000D01*
X147200000Y-118000000D02*
X146400000Y-117200000D01*
X161900000Y-101100000D02*
X161900000Y-93500000D01*
X163622500Y-110322500D02*
X160300000Y-107000000D01*
X163510000Y-118450000D02*
X163600000Y-118360000D01*
D29*
X143187500Y-120400000D02*
X143137500Y-120350000D01*
D30*
X146400000Y-96500000D02*
X143487500Y-93587500D01*
X163600000Y-118360000D02*
X163600000Y-116522500D01*
X163622500Y-116500000D02*
X163622500Y-110322500D01*
X161900000Y-93500000D02*
X163400000Y-92000000D01*
D29*
X163400000Y-87012500D02*
X163400000Y-88900000D01*
D28*
%TO.N,/TM2_CH1*%
X145012500Y-120500000D02*
X145200000Y-120312500D01*
D31*
X153400000Y-109700000D02*
X152800000Y-110300000D01*
D28*
X145012500Y-122200000D02*
X145012500Y-120500000D01*
D31*
X154600000Y-103200000D02*
X154600000Y-107700000D01*
X154600000Y-108500000D02*
X153400000Y-109700000D01*
X154600000Y-107700000D02*
X154600000Y-108500000D01*
X155700000Y-102100000D02*
X154600000Y-103200000D01*
X152800000Y-110300000D02*
X152800000Y-115600000D01*
%TO.N,/TM2_CH2*%
X161797500Y-116500000D02*
X160900000Y-115602500D01*
X161700000Y-118200000D02*
X161700000Y-116597500D01*
X161347500Y-118537500D02*
X161362500Y-118537500D01*
X160900000Y-109200000D02*
X159400000Y-107700000D01*
X158700000Y-101700000D02*
X157200000Y-101700000D01*
X161362500Y-118537500D02*
X161700000Y-118200000D01*
X161700000Y-116597500D02*
X161797500Y-116500000D01*
X159400000Y-102400000D02*
X158700000Y-101700000D01*
X160900000Y-115602500D02*
X160900000Y-109200000D01*
X157200000Y-101700000D02*
X156800000Y-102100000D01*
X159400000Y-107700000D02*
X159400000Y-102400000D01*
D28*
%TO.N,/TM2_CH3*%
X161587500Y-87000000D02*
X161587500Y-88612500D01*
D31*
X160100000Y-89200000D02*
X160400000Y-88900000D01*
D28*
X161587500Y-88612500D02*
X161300000Y-88900000D01*
D31*
X160100000Y-97600000D02*
X160100000Y-89200000D01*
X160400000Y-88900000D02*
X161300000Y-88900000D01*
D28*
%TO.N,/TM2_CH4*%
X145200000Y-92587500D02*
X145312500Y-92700000D01*
X145200000Y-90862500D02*
X145200000Y-92587500D01*
D31*
%TO.N,/OUT_PB1*%
X159200000Y-87600000D02*
X161660000Y-85140000D01*
X158300000Y-97600000D02*
X158800000Y-97600000D01*
X158800000Y-97600000D02*
X159200000Y-97200000D01*
X161660000Y-85140000D02*
X162320000Y-85140000D01*
X159200000Y-97200000D02*
X159200000Y-87600000D01*
%TO.N,/GPIO_PB13*%
X151700000Y-98400000D02*
X151700000Y-94725000D01*
X151700000Y-94725000D02*
X152100000Y-94325000D01*
%TD*%
%TA.AperFunction,Conductor*%
%TO.N,GND*%
G36*
X151843039Y-100019685D02*
G01*
X151888794Y-100072489D01*
X151900000Y-100124000D01*
X151900000Y-101176000D01*
X151880315Y-101243039D01*
X151827511Y-101288794D01*
X151776000Y-101300000D01*
X151733066Y-101300000D01*
X151726762Y-101299679D01*
X151725009Y-101299500D01*
X151725008Y-101299500D01*
X150674998Y-101299500D01*
X150674991Y-101299501D01*
X150674606Y-101299540D01*
X150673245Y-101299679D01*
X150666946Y-101300000D01*
X150111645Y-101300000D01*
X150044606Y-101280315D01*
X149998851Y-101227511D01*
X149988324Y-101163039D01*
X150005460Y-101000000D01*
X149985674Y-100811744D01*
X149927179Y-100631716D01*
X149900783Y-100585998D01*
X149884312Y-100518099D01*
X149907165Y-100452072D01*
X149962087Y-100408882D01*
X150008172Y-100400000D01*
X150400000Y-100400000D01*
X150400000Y-100124000D01*
X150419685Y-100056961D01*
X150472489Y-100011206D01*
X150524000Y-100000000D01*
X151776000Y-100000000D01*
X151843039Y-100019685D01*
G37*
%TD.AperFunction*%
%TD*%
M02*
